<?xml version="1.0" encoding="UTF-8" standalone="no"?>
<svg
   xmlns:dc="http://purl.org/dc/elements/1.1/"
   xmlns:cc="http://creativecommons.org/ns#"
   xmlns:rdf="http://www.w3.org/1999/02/22-rdf-syntax-ns#"
   xmlns:svg="http://www.w3.org/2000/svg"
   xmlns="http://www.w3.org/2000/svg"
   xmlns:sodipodi="http://sodipodi.sourceforge.net/DTD/sodipodi-0.dtd"
   xmlns:inkscape="http://www.inkscape.org/namespaces/inkscape"
   width="774.15643"
   height="189.24399"
   viewBox="0 0 619.32515 151.39519"
   version="1.1"
   id="svg2"
   inkscape:version="0.48.1 "
   sodipodi:docname="AJAX.svg">
  <metadata
     id="metadata25">
    <rdf:RDF>
      <cc:Work
         rdf:about="">
        <dc:format>image/svg+xml</dc:format>
        <dc:type
           rdf:resource="http://purl.org/dc/dcmitype/StillImage" />
      </cc:Work>
    </rdf:RDF>
  </metadata>
  <defs
     id="defs23" />
  <sodipodi:namedview
     pagecolor="#ffffff"
     bordercolor="#666666"
     borderopacity="1"
     objecttolerance="10"
     gridtolerance="10"
     guidetolerance="10"
     inkscape:pageopacity="0"
     inkscape:pageshadow="2"
     inkscape:window-width="1280"
     inkscape:window-height="1004"
     id="namedview21"
     showgrid="false"
     fit-margin-top="0"
     fit-margin-left="0"
     fit-margin-right="0"
     fit-margin-bottom="0"
     inkscape:zoom="0.58285714"
     inkscape:cx="387.01564"
     inkscape:cy="94.633442"
     inkscape:window-x="-8"
     inkscape:window-y="-8"
     inkscape:window-maximized="1"
     inkscape:current-layer="#005f9fff" />
  <g
     id="#ffffffff"
     transform="translate(-40.387485,-24.31156)" />
  <g
     id="#005f9fff"
     transform="translate(-40.387485,-24.31156)">
    <path
       d="m 88.89,26.64 c 16.15,-3.87 33.7,-3.05 49.08,3.47 14.8,6.21 26.49,18.86 32.23,33.78 5.45,13.33 6.09,27.99 5.55,42.21 -0.16,3.33 -3.54,5.67 -6.73,5.44 -25.68,0.03 -51.37,0 -77.05,0.01 -4.29,0.05 -8.63,-0.33 -12.86,0.57 -1.24,8.77 2.34,17.99 8.95,23.84 6.17,5.65 14.69,8.12 22.93,8.34 7.35,0.14 14.94,-0.44 21.68,-3.61 4.47,-1.99 8.31,-5.05 12.3,-7.81 1.49,-1.15 3.9,-1.93 5.25,-0.15 5.95,5.76 12.4,11.01 18.09,17.01 1.84,2.27 -0.72,4.73 -2.48,6.06 -17.38,12.86 -38.94,21.63 -60.88,19.62 C 88.73,174.52 71.9,169.61 60.09,157.94 48.44,146.81 43.03,130.77 41.22,115.1 39.09,95 40.64,73.61 50.67,55.65 58.62,41.18 72.84,30.46 88.89,26.64 m -4.05,39.35 c -4.19,5.82 -5.91,13.07 -6.2,20.15 19.68,-0.02 39.35,-0.01 59.02,-0.01 -0.54,-7.14 -2.06,-14.52 -6.47,-20.34 -10.75,-14.48 -35.72,-14.36 -46.35,0.2 z"
       id="path6"
       inkscape:connector-curvature="0"
       style="fill:#005f9f" />
    <path
       d="m 481.43,46.91 c -0.09,-1.86 0.2,-4.53 2.56,-4.72 5.35,-0.25 10.71,-0.11 16.06,-0.07 1.46,-0.06 3.04,1.23 2.97,2.75 0.23,5.01 0,10.03 0.07,15.05 4.64,0.07 9.29,-0.13 13.93,0.06 1.62,-0.15 2.94,1.4 2.87,2.96 0.12,4.37 0.07,8.74 0.03,13.11 0.2,1.56 -0.75,3.07 -2.18,3.67 -4.22,0.6 -8.53,-0.26 -12.74,0.48 -1.59,0.36 -1.9,2.32 -1.84,3.69 -0.01,10.7 0.03,21.41 -0.01,32.11 0.08,3.67 0.31,7.98 3.38,10.49 3.1,2.7 7.49,1.15 11.19,1.8 0.98,0.55 2.14,1.43 2.12,2.68 0.2,4.38 0.14,8.78 0.04,13.16 0.05,1.48 -1.18,3.18 -2.79,3 -8.55,-0.01 -17.98,1.23 -25.51,-3.76 -7.14,-4.45 -10.08,-13.26 -10.11,-21.33 -0.08,-25.04 0.01,-50.09 -0.04,-75.13 z"
       id="path8"
       inkscape:connector-curvature="0"
       style="fill:#005f9f" />
    <path
       d="m 622.43,42.34 c 5.52,-0.55 11.12,-0.2 16.68,-0.2 2.04,-0.12 3.3,1.93 2.99,3.79 0.03,23.36 0,46.72 0.01,70.08 0.14,3.84 0.29,8.56 3.88,10.88 3.8,2.76 9.13,-0.28 12.89,2.3 1.48,3.02 0.47,6.61 0.78,9.86 -0.27,2.62 0.85,6.09 -1.66,7.92 -9.15,0.22 -19.28,1.59 -27.4,-3.63 -7.14,-4.46 -10.19,-13.26 -10.1,-21.36 -0.02,-25 0.02,-50 -0.02,-75 0.04,-1.69 -0.13,-4.08 1.95,-4.64 z"
       id="path10"
       inkscape:connector-curvature="0"
       style="fill:#005f9f" />
    <path
       d="m 308.21,67.28 c 9.67,-9.85 24.6,-12.79 37.84,-10.39 10.09,1.59 19.68,7.28 25.22,15.96 6.67,9.9 8.03,22.41 7.01,34.03 -0.47,1.86 -2.57,2.54 -4.28,2.35 -17.02,0 -34.04,0 -51.06,-0.01 -1.27,0.09 -2.89,-0.22 -3.5,1.22 -0.25,6 2.67,12.19 7.87,15.36 6.06,3.96 13.78,3.88 20.65,2.64 5.25,-1 9.24,-4.76 13.78,-7.28 4.22,3.97 8.88,7.54 12.66,11.96 -0.06,1.97 -1.84,3.03 -3.22,4.1 -9.93,6.87 -21.81,11.74 -34.08,11.04 -11.3,-0.23 -23.27,-3.79 -30.88,-12.58 -7.98,-9.16 -10.23,-21.84 -10.17,-33.64 -0.11,-12.47 3.26,-25.62 12.16,-34.76 m 15.53,13.53 c -3.1,3.61 -3.98,8.45 -4.51,13.03 12,0.01 23.99,0 35.99,0.01 -0.17,-6.85 -3.19,-14.35 -9.83,-17.25 -7.08,-3.09 -16.58,-2.06 -21.65,4.21 z"
       id="path12"
       inkscape:connector-curvature="0"
       style="fill:#005f9f" />
    <path
       d="m 412.51,64.61 c 7.69,-6.17 17.73,-9.82 27.63,-8.14 8.85,0.92 17.23,5.83 21.89,13.48 4.98,7.7 4.97,17.23 4.86,26.06 -0.02,15.68 0,31.36 0,47.04 0.22,1.77 -0.76,4.27 -2.89,4.09 -6.02,0.12 -12.05,0.12 -18.06,0 -1.67,0.19 -2.96,-1.48 -2.8,-3.03 -0.09,-16.38 0.05,-32.76 -0.05,-49.13 -0.03,-6.18 -1.76,-13.33 -7.51,-16.63 -5.15,-2.66 -11.76,-2.47 -16.78,0.42 -4.61,2.64 -7,8.05 -6.9,13.23 -0.06,17.03 0.01,34.05 -0.02,51.07 0.2,1.77 -0.69,4.21 -2.84,4.06 -6.02,0.13 -12.06,0.09 -18.08,0.02 -2.21,0.21 -3.12,-2.33 -2.88,-4.13 0.02,-27.36 -0.02,-54.73 0.02,-82.1 -0.26,-1.77 1.08,-3.61 2.9,-3.72 4,-0.21 8.02,0.01 12.04,-0.08 2.75,0.03 5.79,-0.43 8.1,1.43 0.11,2.09 -0.38,4.48 1.37,6.06 z"
       id="path14"
       inkscape:connector-curvature="0"
       style="fill:#005f9f" />
    <path
       d="m 561.84,56.78 c 10.73,-1.74 22.32,-0.18 31.6,5.72 8.54,5.44 14.26,14.63 16.38,24.44 1.53,6.28 1.37,12.8 1.18,19.2 0.03,2.01 -2.08,3.26 -3.91,3.06 -14.68,0.08 -29.36,0 -44.05,0.03 -3.73,0.07 -7.55,-0.4 -11.2,0.62 0.17,5.08 1.58,10.41 5.48,13.93 6.11,5.85 15.38,6.13 23.24,4.68 5.16,-0.96 9.03,-4.69 13.51,-7.08 1.54,0.42 2.55,1.83 3.74,2.82 3.19,3.3 7.04,5.96 9.75,9.71 -10.87,9.8 -25.85,15.65 -40.58,14.21 -10.27,-0.67 -20.87,-4.27 -27.85,-12.14 -8.01,-8.9 -10.43,-21.35 -10.44,-32.99 -0.25,-11.97 2.51,-24.61 10.49,-33.88 5.68,-6.76 14,-10.98 22.66,-12.33 m -6.61,25.59 c -2.23,3.4 -3.01,7.48 -3.34,11.46 12.04,0.03 24.08,0.02 36.13,0.01 -0.6,-4.17 -1.27,-8.54 -3.81,-12.03 -6.53,-9.42 -22.88,-9.23 -28.98,0.56 z"
       id="path16"
       inkscape:connector-curvature="0"
       style="fill:#005f9f" />
  </g>
  <g
     id="#f57917ff"
     transform="translate(-40.387485,-24.31156)">
    <path
       d="m 205.45,33.58 c 2.79,-1.08 5.98,-0.26 8.13,1.76 13.27,11.24 22.22,27.12 26.12,43.98 5.62,24.83 1.68,52.31 -13.16,73.31 -4.2,5.97 -9.13,11.51 -14.92,15.99 -2.56,2.09 -6.65,2.16 -9.08,-0.2 -4.41,-3.92 -8.81,-7.85 -13.12,-11.88 -2.22,-1.75 -2.16,-5.25 0.15,-6.89 13.35,-12.05 21.49,-29.67 21.83,-47.67 0.22,-17.61 -6.33,-35.81 -19.76,-47.59 -1.5,-1.4 -3.84,-3.2 -2.63,-5.53 1.69,-3.14 4.88,-5.05 7.36,-7.51 3.06,-2.53 5.63,-5.74 9.08,-7.77 z"
       id="path19"
       inkscape:connector-curvature="0"
       style="fill:#f57917" />
  </g>
</svg>
