<?xml version="1.0" encoding="utf-8"?>
<!-- Generator: Adobe Illustrator 24.1.3, SVG Export Plug-In . SVG Version: 6.00 Build 0)  -->
<svg version="1.1" id="Layer_1" xmlns="http://www.w3.org/2000/svg" xmlns:xlink="http://www.w3.org/1999/xlink" x="0px" y="0px"
	 viewBox="0 0 47 30" style="enable-background:new 0 0 47 30;" xml:space="preserve">
<path d="M47,15L47,15C41.7,5.9,33.2,0,23.5,0S5.3,5.9,0,15h0c0,0,0,0,0,0c0,0,0,0,0,0h0c5.2,9.1,13.8,15,23.5,15S41.7,24.1,47,15
	L47,15C47,15,47,15,47,15C47,15,47,15,47,15z M23.5,6.5c4.7,0,8.5,3.8,8.5,8.5s-3.8,8.5-8.5,8.5S15,19.7,15,15S18.8,6.5,23.5,6.5z"
	/>
</svg>
