<?xml version="1.0" encoding="UTF-8"?>
<svg id="Layer_2" data-name="Layer 2" xmlns="http://www.w3.org/2000/svg" xmlns:xlink="http://www.w3.org/1999/xlink" viewBox="0 0 61.96 62.04">
  <defs>
    <style>
      .cls-1 {
        fill: #fff;
      }

      .cls-2 {
        fill: #233caf;
      }

      .cls-3 {
        fill: #eb0000;
      }

      .cls-4 {
        clip-path: url(#clippath);
      }

      .cls-5 {
        fill: none;
      }
    </style>
    <clipPath id="clippath">
      <path class="cls-5" d="m61.96,31.02c0,17.13-13.89,31.02-31.02,31.02S-.08,48.15-.08,31.02,13.81,0,30.94,0s31.02,13.89,31.02,31.02Z"/>
    </clipPath>
  </defs>
  <g class="cls-4">
    <polygon class="cls-1" points=".08 5.07 .59 6.11 1.74 6.28 .91 7.08 1.1 8.23 .08 7.69 -.95 8.23 -.75 7.08 -1.58 6.28 -.43 6.11 .08 5.07"/>
    <polygon class="cls-1" points="7.88 5.07 8.39 6.11 9.54 6.28 8.71 7.08 8.91 8.23 7.88 7.69 6.86 8.23 7.05 7.08 6.23 6.28 7.37 6.11 7.88 5.07"/>
    <polygon class="cls-1" points="15.69 5.07 16.2 6.11 17.34 6.28 16.52 7.08 16.71 8.23 15.69 7.69 14.66 8.23 14.86 7.08 14.03 6.28 15.18 6.11 15.69 5.07"/>
    <polygon class="cls-1" points="23.49 5.07 24 6.11 25.15 6.28 24.32 7.08 24.52 8.23 23.49 7.69 22.47 8.23 22.66 7.08 21.83 6.28 22.98 6.11 23.49 5.07"/>
    <polygon class="cls-1" points=".08 11.8 .59 12.84 1.74 13 .91 13.81 1.1 14.95 .08 14.41 -.95 14.95 -.75 13.81 -1.58 13 -.43 12.84 .08 11.8"/>
    <polygon class="cls-1" points="7.88 11.8 8.39 12.84 9.54 13 8.71 13.81 8.91 14.95 7.88 14.41 6.86 14.95 7.05 13.81 6.23 13 7.37 12.84 7.88 11.8"/>
    <polygon class="cls-1" points="15.69 11.8 16.2 12.84 17.34 13 16.52 13.81 16.71 14.95 15.69 14.41 14.66 14.95 14.86 13.81 14.03 13 15.18 12.84 15.69 11.8"/>
    <polygon class="cls-1" points="23.49 11.8 24 12.84 25.15 13 24.32 13.81 24.52 14.95 23.49 14.41 22.47 14.95 22.66 13.81 21.83 13 22.98 12.84 23.49 11.8"/>
    <polygon class="cls-1" points=".08 18.52 .59 19.56 1.74 19.73 .91 20.54 1.1 21.68 .08 21.14 -.95 21.68 -.75 20.54 -1.58 19.73 -.43 19.56 .08 18.52"/>
    <polygon class="cls-1" points="7.88 18.52 8.39 19.56 9.54 19.73 8.71 20.54 8.91 21.68 7.88 21.14 6.86 21.68 7.05 20.54 6.23 19.73 7.37 19.56 7.88 18.52"/>
    <polygon class="cls-1" points="15.69 18.52 16.2 19.56 17.34 19.73 16.52 20.54 16.71 21.68 15.69 21.14 14.66 21.68 14.86 20.54 14.03 19.73 15.18 19.56 15.69 18.52"/>
    <polygon class="cls-1" points="23.49 18.52 24 19.56 25.15 19.73 24.32 20.54 24.52 21.68 23.49 21.14 22.47 21.68 22.66 20.54 21.83 19.73 22.98 19.56 23.49 18.52"/>
    <polygon class="cls-1" points=".08 25.25 .59 26.29 1.74 26.45 .91 27.26 1.1 28.4 .08 27.86 -.95 28.4 -.75 27.26 -1.58 26.45 -.43 26.29 .08 25.25"/>
    <polygon class="cls-1" points="7.88 25.25 8.39 26.29 9.54 26.45 8.71 27.26 8.91 28.4 7.88 27.86 6.86 28.4 7.05 27.26 6.23 26.45 7.37 26.29 7.88 25.25"/>
    <polygon class="cls-1" points="15.69 25.25 16.2 26.29 17.34 26.45 16.52 27.26 16.71 28.4 15.69 27.86 14.66 28.4 14.86 27.26 14.03 26.45 15.18 26.29 15.69 25.25"/>
    <polygon class="cls-1" points="23.49 25.25 24 26.29 25.15 26.45 24.32 27.26 24.52 28.4 23.49 27.86 22.47 28.4 22.66 27.26 21.83 26.45 22.98 26.29 23.49 25.25"/>
    <rect class="cls-1" x="-15.71" width="93.3" height="62.04"/>
    <rect class="cls-2" x="-15.71" width="47.19" height="33.48"/>
    <rect class="cls-3" x="31.48" width="46.11" height="4.91"/>
    <rect class="cls-3" x="31.48" y="9.52" width="46.11" height="4.91"/>
    <rect class="cls-3" x="31.48" y="19.04" width="46.11" height="4.91"/>
    <rect class="cls-3" x="31.48" y="28.56" width="46.11" height="4.92"/>
    <rect class="cls-3" x="-15.71" y="38.08" width="93.3" height="4.92"/>
    <rect class="cls-3" x="-15.71" y="47.6" width="93.3" height="4.91"/>
    <rect class="cls-3" x="-15.71" y="57.12" width="93.3" height="4.91"/>
    <polygon class="cls-1" points="4.63 3.75 5.75 2.93 4.37 2.93 3.94 1.61 3.51 2.93 2.12 2.93 3.24 3.75 2.81 5.07 3.94 4.25 5.06 5.07 4.63 3.75"/>
    <polygon class="cls-1" points="12.45 3.75 13.57 2.93 12.18 2.93 11.75 1.61 11.32 2.93 9.94 2.93 11.06 3.75 10.63 5.07 11.75 4.25 12.88 5.07 12.45 3.75"/>
    <polygon class="cls-1" points="20.26 3.75 21.39 2.93 20 2.93 19.57 1.61 19.14 2.93 17.75 2.93 18.87 3.75 18.45 5.07 19.57 4.25 20.69 5.07 20.26 3.75"/>
    <polygon class="cls-1" points="28.08 3.75 29.2 2.93 27.81 2.93 27.39 1.61 26.96 2.93 25.57 2.93 26.69 3.75 26.26 5.07 27.39 4.25 28.51 5.07 28.08 3.75"/>
    <polygon class="cls-1" points=".72 7.1 1.85 6.28 .46 6.28 .03 4.96 -.4 6.28 -1.79 6.28 -.67 7.1 -1.1 8.42 .03 7.6 1.15 8.42 .72 7.1"/>
    <polygon class="cls-1" points="8.54 7.1 9.66 6.28 8.27 6.28 7.85 4.96 7.42 6.28 6.03 6.28 7.15 7.1 6.72 8.42 7.85 7.6 8.97 8.42 8.54 7.1"/>
    <polygon class="cls-1" points="16.36 7.1 17.48 6.28 16.09 6.28 15.66 4.96 15.23 6.28 13.84 6.28 14.97 7.1 14.54 8.42 15.66 7.6 16.79 8.42 16.36 7.1"/>
    <polygon class="cls-1" points="24.17 7.1 25.3 6.28 23.91 6.28 23.48 4.96 23.05 6.28 21.66 6.28 22.78 7.1 22.35 8.42 23.48 7.6 24.6 8.42 24.17 7.1"/>
    <polygon class="cls-1" points="4.63 10.45 5.75 9.63 4.37 9.63 3.94 8.31 3.51 9.63 2.12 9.63 3.24 10.45 2.81 11.77 3.94 10.95 5.06 11.77 4.63 10.45"/>
    <polygon class="cls-1" points="12.45 10.45 13.57 9.63 12.18 9.63 11.75 8.31 11.32 9.63 9.94 9.63 11.06 10.45 10.63 11.77 11.75 10.95 12.88 11.77 12.45 10.45"/>
    <polygon class="cls-1" points="20.26 10.45 21.39 9.63 20 9.63 19.57 8.31 19.14 9.63 17.75 9.63 18.87 10.45 18.45 11.77 19.57 10.95 20.69 11.77 20.26 10.45"/>
    <polygon class="cls-1" points="28.08 10.45 29.2 9.63 27.81 9.63 27.39 8.31 26.96 9.63 25.57 9.63 26.69 10.45 26.26 11.77 27.39 10.95 28.51 11.77 28.08 10.45"/>
    <polygon class="cls-1" points=".72 13.8 1.85 12.98 .46 12.98 .03 11.66 -.4 12.98 -1.79 12.98 -.67 13.8 -1.1 15.12 .03 14.3 1.15 15.12 .72 13.8"/>
    <polygon class="cls-1" points="8.54 13.8 9.66 12.98 8.27 12.98 7.85 11.66 7.42 12.98 6.03 12.98 7.15 13.8 6.72 15.12 7.85 14.3 8.97 15.12 8.54 13.8"/>
    <polygon class="cls-1" points="16.36 13.8 17.48 12.98 16.09 12.98 15.66 11.66 15.23 12.98 13.84 12.98 14.97 13.8 14.54 15.12 15.66 14.3 16.79 15.12 16.36 13.8"/>
    <polygon class="cls-1" points="24.17 13.8 25.3 12.98 23.91 12.98 23.48 11.66 23.05 12.98 21.66 12.98 22.78 13.8 22.35 15.12 23.48 14.3 24.6 15.12 24.17 13.8"/>
    <polygon class="cls-1" points="4.63 17.15 5.75 16.33 4.37 16.33 3.94 15.01 3.51 16.33 2.12 16.33 3.24 17.15 2.81 18.47 3.94 17.65 5.06 18.47 4.63 17.15"/>
    <polygon class="cls-1" points="12.45 17.15 13.57 16.33 12.18 16.33 11.75 15.01 11.32 16.33 9.94 16.33 11.06 17.15 10.63 18.47 11.75 17.65 12.88 18.47 12.45 17.15"/>
    <polygon class="cls-1" points="20.26 17.15 21.39 16.33 20 16.33 19.57 15.01 19.14 16.33 17.75 16.33 18.87 17.15 18.45 18.47 19.57 17.65 20.69 18.47 20.26 17.15"/>
    <polygon class="cls-1" points="28.08 17.15 29.2 16.33 27.81 16.33 27.39 15.01 26.96 16.33 25.57 16.33 26.69 17.15 26.26 18.47 27.39 17.65 28.51 18.47 28.08 17.15"/>
    <polygon class="cls-1" points=".72 20.5 1.85 19.68 .46 19.68 .03 18.36 -.4 19.68 -1.79 19.68 -.67 20.5 -1.1 21.82 .03 21 1.15 21.82 .72 20.5"/>
    <polygon class="cls-1" points="8.54 20.5 9.66 19.68 8.27 19.68 7.85 18.36 7.42 19.68 6.03 19.68 7.15 20.5 6.72 21.82 7.85 21 8.97 21.82 8.54 20.5"/>
    <polygon class="cls-1" points="16.36 20.5 17.48 19.68 16.09 19.68 15.66 18.36 15.23 19.68 13.84 19.68 14.97 20.5 14.54 21.82 15.66 21 16.79 21.82 16.36 20.5"/>
    <polygon class="cls-1" points="24.17 20.5 25.3 19.68 23.91 19.68 23.48 18.36 23.05 19.68 21.66 19.68 22.78 20.5 22.35 21.82 23.48 21 24.6 21.82 24.17 20.5"/>
    <polygon class="cls-1" points="4.63 23.85 5.75 23.03 4.37 23.03 3.94 21.71 3.51 23.03 2.12 23.03 3.24 23.85 2.81 25.17 3.94 24.35 5.06 25.17 4.63 23.85"/>
    <polygon class="cls-1" points="12.45 23.85 13.57 23.03 12.18 23.03 11.75 21.71 11.32 23.03 9.94 23.03 11.06 23.85 10.63 25.17 11.75 24.35 12.88 25.17 12.45 23.85"/>
    <polygon class="cls-1" points="20.26 23.85 21.39 23.03 20 23.03 19.57 21.71 19.14 23.03 17.75 23.03 18.87 23.85 18.45 25.17 19.57 24.35 20.69 25.17 20.26 23.85"/>
    <polygon class="cls-1" points="28.08 23.85 29.2 23.03 27.81 23.03 27.39 21.71 26.96 23.03 25.57 23.03 26.69 23.85 26.26 25.17 27.39 24.35 28.51 25.17 28.08 23.85"/>
    <polygon class="cls-1" points=".72 27.2 1.85 26.38 .46 26.38 .03 25.06 -.4 26.38 -1.79 26.38 -.67 27.2 -1.1 28.52 .03 27.7 1.15 28.52 .72 27.2"/>
    <polygon class="cls-1" points="8.54 27.2 9.66 26.38 8.27 26.38 7.85 25.06 7.42 26.38 6.03 26.38 7.15 27.2 6.72 28.52 7.85 27.7 8.97 28.52 8.54 27.2"/>
    <polygon class="cls-1" points="16.36 27.2 17.48 26.38 16.09 26.38 15.66 25.06 15.23 26.38 13.84 26.38 14.97 27.2 14.54 28.52 15.66 27.7 16.79 28.52 16.36 27.2"/>
    <polygon class="cls-1" points="24.17 27.2 25.3 26.38 23.91 26.38 23.48 25.06 23.05 26.38 21.66 26.38 22.78 27.2 22.35 28.52 23.48 27.7 24.6 28.52 24.17 27.2"/>
    <polygon class="cls-1" points="4.63 30.55 5.75 29.73 4.37 29.73 3.94 28.41 3.51 29.73 2.12 29.73 3.24 30.55 2.81 31.87 3.94 31.05 5.06 31.87 4.63 30.55"/>
    <polygon class="cls-1" points="12.45 30.55 13.57 29.73 12.18 29.73 11.75 28.41 11.32 29.73 9.94 29.73 11.06 30.55 10.63 31.87 11.75 31.05 12.88 31.87 12.45 30.55"/>
    <polygon class="cls-1" points="20.26 30.55 21.39 29.73 20 29.73 19.57 28.41 19.14 29.73 17.75 29.73 18.87 30.55 18.45 31.87 19.57 31.05 20.69 31.87 20.26 30.55"/>
    <polygon class="cls-1" points="28.08 30.55 29.2 29.73 27.81 29.73 27.39 28.41 26.96 29.73 25.57 29.73 26.69 30.55 26.26 31.87 27.39 31.05 28.51 31.87 28.08 30.55"/>
  </g>
</svg>