<?xml version="1.0" encoding="utf-8"?>
<!-- Generator: Adobe Illustrator 27.2.0, SVG Export Plug-In . SVG Version: 6.00 Build 0)  -->
<svg version="1.1" id="Layer_1" xmlns="http://www.w3.org/2000/svg" xmlns:xlink="http://www.w3.org/1999/xlink" x="0px" y="0px"
	 viewBox="0 0 1920 1920" style="enable-background:new 0 0 1920 1920;" xml:space="preserve">
<style type="text/css">
	.st0{fill-rule:evenodd;clip-rule:evenodd;}
</style>
<g id="Logo">
	<path id="Icon" class="st0" d="M960.8,0C429.5,0,0,432.7,0,967.9c0,427.9,275.2,790,657,918.2c47.7,9.6,65.2-20.8,65.2-46.4
		c0-22.4-1.6-99.4-1.6-179.5c-267.3,57.7-322.9-115.4-322.9-115.4c-42.9-112.2-106.6-141-106.6-141c-87.5-59.3,6.4-59.3,6.4-59.3
		c97,6.4,147.9,99.4,147.9,99.4c85.9,147.4,224.3,105.8,280,80.1c8-62.5,33.4-105.8,60.5-129.8c-213.2-22.4-437.5-105.8-437.5-477.6
		c0-105.8,38.2-192.3,98.6-259.6c-9.5-24-42.9-123.4,9.6-256.4c0,0,81.1-25.6,264,99.4c78.3-21.2,159.1-32,240.2-32.1
		c81.1,0,163.8,11.2,240.2,32.1c182.9-125,264.1-99.4,264.1-99.4c52.5,133,19.1,232.4,9.5,256.4c62,67.3,98.6,153.8,98.6,259.6
		c0,371.8-224.3,453.5-439,477.6c35,30.4,65.2,88.1,65.2,179.5c0,129.8-1.6,234-1.6,266c0,25.6,17.5,56.1,65.2,46.5
		c381.8-128.2,657-490.4,657-918.3C1921.6,432.7,1490.5,0,960.8,0L960.8,0z"/>
</g>
</svg>
