<svg id="Layer_1" data-name="Layer 1" xmlns="http://www.w3.org/2000/svg" viewBox="0 0 664 664"><defs><style>.cls-1{fill:#f94393;}.cls-2{fill:#250701;}.cls-3{fill:#fb4093;}</style></defs><rect class="cls-1" x="-0.48" y="0.13" width="664.23" height="664.23"/><rect class="cls-2" x="33.18" y="33.79" width="596.9" height="596.9"/><path class="cls-3" d="M199,466.18V214.43h46.3V466.18Zm179.37-30.82A55.31,55.31,0,0,0,391,433.78,84.51,84.51,0,0,0,402,429.2a64.42,64.42,0,0,0,9.33-6.32,57.18,57.18,0,0,0,6.95-6.64v-86.6a82.24,82.24,0,0,0-17.7-10.75,53.69,53.69,0,0,0-20.7-4.11,46,46,0,0,0-14.7,2.69,38.05,38.05,0,0,0-13.91,9.64c-4.1,4.58-7.74,10.9-10.43,19-2.84,7.9-4.26,18.18-4.26,30.66,0,18.33,3.47,32.71,10.59,43s17.54,15.48,31.13,15.64Zm-88-56.73q0-24,6.64-42.67c4.42-12.49,10.43-22.92,18-31.45a75.7,75.7,0,0,1,26.07-19,78.06,78.06,0,0,1,30.5-6.32,81.71,81.71,0,0,1,14.07,1.27,92.91,92.91,0,0,1,12.33,3.63,86.69,86.69,0,0,1,10.9,5.06c3.48,1.89,6.64,3.95,9.48,5.85h.32c-.16-2.53-.16-6-.32-10.59V193.72H463V412c0,12.17.15,22.44.31,31.14.32,8.53.48,16.43.79,23.07H423.69L422,446.74h-.79a88.59,88.59,0,0,1-9.49,9.32,80.66,80.66,0,0,1-12.32,7.75,67.21,67.21,0,0,1-14.7,5.21,86.1,86.1,0,0,1-17.38,1.74,76,76,0,0,1-28.61-5.21,67.28,67.28,0,0,1-24.49-16.28c-7.27-7.27-13-16.91-17.39-28.76-4.27-11.86-6.48-25.76-6.48-41.88Z"/></svg>