<?xml version="1.0" encoding="utf-8"?>
<!-- Generator: Adobe Illustrator 27.2.0, SVG Export Plug-In . SVG Version: 6.00 Build 0)  -->
<svg version="1.1" id="Layer_1" xmlns="http://www.w3.org/2000/svg" xmlns:xlink="http://www.w3.org/1999/xlink" x="0px" y="0px"
	 viewBox="0 0 664 664" style="enable-background:new 0 0 664 664;" xml:space="preserve">
<style type="text/css">
	.st0{fill:#250701;}
	.st1{fill:#FB4093;}
</style>
<rect x="-0.5" y="0.1" class="st0" width="664.2" height="664.2"/>
<rect x="33.2" y="33.8" class="st0" width="596.9" height="596.9"/>
<path class="st1" d="M199,466.2V214.4h46.3v251.8H199z M378.4,435.4c4.3,0,8.5-0.6,12.6-1.6c3.8-1.3,7.4-2.8,11-4.6
	c3.3-1.8,6.4-3.9,9.3-6.3c2.5-2,4.8-4.2,7-6.6v-86.6c-5.4-4.3-11.4-7.9-17.7-10.8c-6.6-2.7-13.6-4.1-20.7-4.1c-5,0.1-10,1-14.7,2.7
	c-5.3,2.1-10.1,5.4-13.9,9.6c-4.1,4.6-7.7,10.9-10.4,19c-2.8,7.9-4.3,18.2-4.3,30.7c0,18.3,3.5,32.7,10.6,43
	S364.7,435.3,378.4,435.4L378.4,435.4z M290.4,378.6c0-16,2.2-30.2,6.6-42.7c4.4-12.5,10.4-22.9,18-31.5c7.2-8.1,16.1-14.6,26.1-19
	c9.6-4.1,20-6.3,30.5-6.3c4.7,0,9.4,0.4,14.1,1.3c4.2,0.9,8.3,2.1,12.3,3.6c3.7,1.4,7.4,3.1,10.9,5.1c3.5,1.9,6.6,4,9.5,5.9h0.3
	c-0.2-2.5-0.2-6-0.3-10.6v-90.7H463V412c0,12.2,0.1,22.4,0.3,31.1c0.3,8.5,0.5,16.4,0.8,23.1h-40.4l-1.7-19.5h-0.8
	c-2.9,3.3-6.1,6.5-9.5,9.3c-3.9,2.9-8,5.5-12.3,7.8c-4.7,2.3-9.6,4-14.7,5.2c-5.7,1.2-11.5,1.8-17.4,1.7c-9.8,0.1-19.5-1.6-28.6-5.2
	c-9.3-3.6-17.6-9.1-24.5-16.3c-7.3-7.3-13-16.9-17.4-28.8C292.6,408.6,290.3,394.7,290.4,378.6L290.4,378.6z"/>
</svg>
