<?xml version="1.0" encoding="utf-8"?>
<!-- Generator: Adobe Illustrator 27.2.0, SVG Export Plug-In . SVG Version: 6.00 Build 0)  -->
<svg version="1.1" id="Layer_1" xmlns="http://www.w3.org/2000/svg" xmlns:xlink="http://www.w3.org/1999/xlink" x="0px" y="0px"
	 viewBox="0 0 160 31.1" style="enable-background:new 0 0 160 31.1;" xml:space="preserve">
<style type="text/css">
	.st0{fill:#231F20;}
	.st1{fill:#FFFFFF;}
	.st2{fill:#D70032;}
	.st3{fill:#EE801D;}
	.st4{fill:#FF6B00;}
	.st5{fill:#074C96;}
	.st6{fill:#0257A0;}
	.st7{fill:none;}
</style>
<g id="Capa_2">
	<g id="Capa_1-2">
		<path class="st0" d="M59.4,18.5l-1.1,6.1c-1.7,0.7-3.5,1.1-5.4,1.1c-3.3,0-4.7-1.4-4.3-3.6s2.7-3.6,5.4-3.5c0.9,0,1.8,0.1,2.7,0.5
			l0.1-0.6c0.2-1.3-0.5-2.1-2.3-2.1c-1.2,0-2.3,0.4-3.3,1c-0.6-0.3-1-1-0.9-1.7c1.4-1,3.1-1.6,4.8-1.6C58.1,13.9,60,15.2,59.4,18.5
			 M53.7,23.7c0.8,0,1.6-0.1,2.4-0.4l0.4-2.4c-0.8-0.3-1.6-0.5-2.5-0.4c-1.3,0-2.3,0.4-2.5,1.5S52.1,23.7,53.7,23.7"/>
		<path class="st0" d="M135.1,18.5l-1.1,6.1c-1.7,0.7-3.5,1.1-5.4,1.1c-3.3,0-4.7-1.4-4.3-3.6s2.7-3.6,5.4-3.5
			c0.9,0,1.8,0.1,2.7,0.4l0.1-0.6c0.2-1.3-0.5-2.1-2.3-2.1c-1.2,0-2.3,0.4-3.3,1c-0.6-0.3-1-1-0.9-1.7c1.4-1,3.1-1.6,4.8-1.6
			C133.9,13.9,135.7,15.2,135.1,18.5 M129.5,23.6c0.8,0,1.6-0.1,2.4-0.4l0.4-2.4c-0.8-0.3-1.6-0.5-2.5-0.4c-1.3,0-2.3,0.4-2.5,1.5
			S127.8,23.6,129.5,23.6"/>
		<path id="_Trazado_" class="st0" d="M72.3,19.8c0.6-3.4,3.5-6,7-6c1.3-0.1,2.6,0.4,3.5,1.3c-0.4,0.8-1,1.5-1.8,1.9
			c-0.6-0.6-1.3-0.9-2.1-0.8c-2,0-3.7,1.6-3.9,3.6c-0.4,1.9,0.3,3.6,2.6,3.6c1,0,1.9-0.3,2.7-1c0.6,0.4,1,1.1,1.1,1.8
			c-1.2,0.9-2.7,1.4-4.2,1.4C73.7,25.7,71.7,23.5,72.3,19.8"/>
		<path class="st0" d="M82.1,19.8c0.6-3.4,3.6-6,7.1-6c3.4,0,5.4,2.5,4.8,6c-0.6,3.4-3.6,5.9-7.1,5.9C83.5,25.7,81.5,23.3,82.1,19.8
			 M91.3,19.8c0.4-2.1-0.6-3.6-2.6-3.6c-2,0-3.7,1.6-3.9,3.6c-0.4,2.1,0.6,3.6,2.6,3.6C89.4,23.3,91.1,21.8,91.3,19.8"/>
		<path id="_Trazado_2" class="st0" d="M105.2,24.3c0.3-0.8,0.9-1.4,1.6-1.8c0.9,0.8,2.1,1.2,3.2,1.1c1.6,0,2.3-0.6,2.4-1.4
			s-0.4-1.2-2.4-1.5s-3.7-1-3.2-3.4c0.4-2.1,2.5-3.5,5.3-3.5c1.4-0.1,2.8,0.3,4,1.1c-0.2,0.8-0.7,1.4-1.4,1.9
			c-0.9-0.6-2-0.9-3.1-0.9c-1.4,0-2.1,0.5-2.2,1.2s0.3,1.1,2.2,1.4c2.4,0.4,4,1.2,3.6,3.4s-2.5,3.8-5.6,3.8
			C108,25.9,106.5,25.4,105.2,24.3"/>
		<path class="st0" d="M148,19.8c0.6-3.5,3.6-6,7.1-6c3.4,0,5.4,2.5,4.8,6c-0.6,3.4-3.6,5.9-7.1,5.9C149.3,25.7,147.4,23.3,148,19.8
			 M157.2,19.8c0.4-2.1-0.6-3.6-2.6-3.6c-2,0.1-3.7,1.6-3.9,3.6c-0.4,2.1,0.6,3.6,2.6,3.6C155.3,23.3,156.9,21.8,157.2,19.8"/>
		<path class="st0" d="M145.8,10.9l-0.6,3.3c-0.7-0.3-1.5-0.4-2.2-0.4c-3.5,0-6.6,2.5-7.2,6c-0.7,3.8,1.4,5.9,5.1,5.9
			c1.8,0,3.5-0.4,5.1-1.1l2.7-14.5L145.8,10.9z M143.6,23c-0.7,0.3-1.5,0.4-2.3,0.4c-2,0-3.2-1.4-2.8-3.6c0.3-2,2.1-3.5,4.1-3.6
			c0.7-0.1,1.5,0.1,2.1,0.5L143.6,23z"/>
		<path id="_Trazado_3" class="st0" d="M125,14.4h-4.2l0.5-2.9l-2.8,0.8l-1.8,9.7c-0.5,2.7,1.1,3.8,3.5,3.8c1.3,0,2.5-0.4,3.6-1.2
			c0-0.7-0.2-1.4-0.8-1.9c-0.6,0.5-1.3,0.7-2,0.8c-1.1,0-1.8-0.4-1.5-2.1l0.9-4.8h4.2c0.2-0.4,0.3-0.7,0.3-1.1
			C125,15.1,125,14.7,125,14.4"/>
		<path class="st0" d="M135.8,26.7l-0.7,3.3c-0.4,0.2-0.7,0.2-1.1,0.2c-0.8,0-1.3-0.5-1.1-1.3c0.2-0.8,0.9-1.3,1.6-1.3
			c0.2,0,0.3,0,0.5,0.1l0.2-1C135.4,26.7,135.6,26.7,135.8,26.7 M134.6,29.7l0.3-1.4c-0.1-0.1-0.3-0.1-0.5-0.1
			c-0.5,0-0.9,0.3-0.9,0.8c-0.1,0.5,0.1,0.8,0.6,0.8C134.2,29.8,134.4,29.8,134.6,29.7"/>
		<path class="st0" d="M138.2,29.1h-1.8c-0.1,0.3,0.1,0.6,0.4,0.7c0.1,0,0.1,0,0.2,0c0.3,0,0.6-0.1,0.8-0.3c0.1,0.1,0.2,0.3,0.2,0.4
			c-0.3,0.2-0.7,0.3-1.1,0.4c-0.6,0-1-0.4-1.1-0.9c0-0.1,0-0.3,0.1-0.4c0.1-0.8,0.8-1.3,1.5-1.4c0.5-0.1,0.9,0.3,1,0.8
			c0,0.1,0,0.3,0,0.4C138.3,28.9,138.3,29.1,138.2,29.1 M137.8,28.8c0.1-0.3,0-0.6-0.4-0.6c-0.4,0-0.7,0.3-0.8,0.6H137.8z"/>
		<path id="_Trazado_4" class="st0" d="M138.4,30c0.1-0.2,0.2-0.3,0.4-0.4c0.2,0.2,0.5,0.3,0.7,0.2c0.4,0,0.5-0.1,0.6-0.3
			s-0.1-0.3-0.5-0.3s-0.8-0.2-0.7-0.8c0.2-0.5,0.7-0.9,1.2-0.8c0.3,0,0.6,0.1,0.9,0.2c-0.1,0.2-0.2,0.3-0.3,0.4
			c-0.2-0.1-0.5-0.2-0.7-0.2c-0.3,0-0.5,0.1-0.5,0.3s0.1,0.2,0.5,0.3s0.9,0.3,0.8,0.8c-0.2,0.6-0.7,0.9-1.3,0.9
			C139.1,30.4,138.7,30.2,138.4,30"/>
		<path class="st0" d="M144.1,26.7l-0.7,3.3c-0.4,0.2-0.8,0.2-1.1,0.2c-0.8,0-1.3-0.5-1.1-1.3c0.2-0.8,0.9-1.3,1.6-1.3
			c0.2,0,0.3,0,0.5,0.1l0.2-1c0.1,0,0.2,0,0.3,0C143.9,26.7,144,26.7,144.1,26.7 M142.9,29.7l0.3-1.4c-0.1-0.1-0.3-0.1-0.5-0.1
			c-0.5,0-0.9,0.3-1,0.8c-0.1,0.5,0.1,0.8,0.6,0.8C142.5,29.8,142.7,29.8,142.9,29.7"/>
		<path class="st0" d="M146.6,29.1h-1.8c-0.1,0.3,0.1,0.6,0.4,0.7c0.1,0,0.1,0,0.2,0c0.3,0,0.6-0.1,0.8-0.3c0.1,0.1,0.2,0.3,0.2,0.4
			c-0.3,0.2-0.7,0.3-1.1,0.4c-0.6,0-1-0.4-1.1-0.9c0-0.1,0-0.3,0.1-0.4c0.1-0.8,0.8-1.3,1.6-1.4c0.5-0.1,0.9,0.3,1,0.8
			c0,0.1,0,0.3,0,0.4C146.7,28.9,146.6,29,146.6,29.1 M146.1,28.8c0.1-0.3,0-0.6-0.4-0.6c-0.4,0-0.7,0.3-0.8,0.6H146.1z"/>
		<path id="_Trazado_5" class="st0" d="M150,26.8l-0.7,3.5c-0.1,0-0.2,0-0.3,0c-0.1,0-0.2,0-0.3,0l0.6-2.7l-0.7,0.3
			c-0.1-0.1-0.2-0.3-0.1-0.5l1.1-0.5h0.2L150,26.8"/>
		<path class="st0" d="M152.6,29.3c-0.2,0.6-0.8,1.1-1.4,1c-0.6,0-1.2-0.2-1-0.9c0.1-0.4,0.4-0.8,0.8-1c-0.3-0.2-0.4-0.5-0.3-0.8
			c0.1-0.6,0.7-1,1.3-1c0.7,0,1,0.4,0.9,0.9c-0.1,0.3-0.3,0.6-0.6,0.8c0.3,0.2,0.5,0.5,0.4,0.8 M152,29.2c0.1-0.3-0.2-0.5-0.6-0.6
			l-0.2-0.1c-0.3,0.2-0.5,0.4-0.5,0.7c-0.1,0.4,0.2,0.5,0.5,0.5S151.9,29.6,152,29.2 M151.2,27.5c-0.1,0.3,0.2,0.4,0.5,0.6l0.1,0.1
			c0.2-0.1,0.4-0.3,0.5-0.6c0.1-0.3-0.1-0.5-0.5-0.5C151.5,27,151.3,27.2,151.2,27.5"/>
		<path id="_Trazado_6" class="st0" d="M152.9,30c0.1-0.2,0.2-0.4,0.4-0.5c0.2,0.2,0.4,0.3,0.7,0.3c0.4,0,0.8-0.2,0.8-0.6
			c0.1-0.4-0.1-0.6-0.6-0.6c-0.3,0-0.6,0.1-0.8,0.1c0,0-0.1,0-0.1,0l0.4-1.8h2c0,0.1,0,0.2,0,0.3c0,0.1,0,0.2-0.1,0.3h-1.5l-0.1,0.7
			c0.1-0.1,0.3-0.1,0.4-0.1c0.8,0,1.1,0.4,1,1.1c-0.1,0.7-0.8,1.3-1.6,1.2C153.5,30.4,153.2,30.3,152.9,30"/>
		<path id="_Trazado_7" class="st0" d="M155.7,30c0.1-0.2,0.2-0.4,0.4-0.5c0.2,0.2,0.4,0.3,0.7,0.3c0.4,0,0.8-0.2,0.8-0.6
			c0.1-0.4-0.1-0.6-0.6-0.6c-0.3,0-0.6,0.1-0.8,0.1c0,0-0.1,0-0.1,0l0.4-1.8h2c0,0.2,0,0.4-0.1,0.6h-1.5l-0.1,0.7
			c0.1-0.1,0.3-0.1,0.5-0.1c0.8,0,1.1,0.4,1,1.1c-0.1,0.7-0.8,1.3-1.6,1.2C156.3,30.4,155.9,30.3,155.7,30"/>
		<path id="_Trazado_8" class="st0" d="M107,10.2H96.3l0.5,1.7c0,0.1,0,0.2,0,0.3c0,0.1,0,0.1,0,0.1l-2.4,13h9.9
			c0.2-0.4,0.3-0.8,0.4-1.2c0.1-0.4,0.1-0.8,0-1.2h-7.2l0.8-4.1h6.3c0.2-0.4,0.3-0.8,0.4-1.2c0.1-0.4,0.1-0.8,0.1-1.2h-6.3l0.7-3.8
			h7c0.2-0.4,0.3-0.8,0.4-1.2C106.9,11,106.9,10.6,107,10.2"/>
		<path id="_Trazado_9" class="st0" d="M67.2,13.9c-1,0-2,0.2-3,0.5c-0.1,0-0.1,0-0.2,0c-0.1,0-0.2,0-0.2,0l0,0l-1.9-0.6l-0.3,1.9
			l0,0l-1.8,9.7c0.4,0.1,0.9,0.1,1.3,0.1c0.5,0,0.9,0,1.4-0.1l1.5-8.5c0.8-0.4,1.7-0.6,2.6-0.6c1.7,0,2.6,0.8,2.2,2.8l-1.2,6.2
			c0.4,0.1,0.9,0.1,1.3,0.1c0.5,0,0.9,0,1.4-0.1l1.3-6.9C72,15.9,70.8,13.8,67.2,13.9"/>
		<path class="st0" d="M48.5,14.2c0.5-2.7-1-4.2-5-4.2h-0.1h-5.6l0.6,1.8c0,0.1,0,0.2,0,0.3c0,0.1,0,0.1,0,0.2l-2.4,13
			c1.5,0.3,3.1,0.4,4.7,0.4c4.3,0,6.7-1.8,7.2-4.6c0.5-1.5-0.3-3.1-1.8-3.6c0,0,0,0,0,0C47.4,16.9,48.3,15.7,48.5,14.2 M45.2,21
			c-0.3,1.7-1.5,2.5-4,2.5c-0.7,0-1.4,0-2.1-0.1l0.8-4.6h2.5C44.5,18.7,45.5,19.5,45.2,21 M45.9,14.3c-0.3,1.4-1.2,2.2-3.2,2.2h-2.3
			l0.8-4.2c0.7-0.1,1.5-0.1,2.1-0.1C45.3,12.2,46.1,13,45.9,14.3"/>
		<rect class="st1" width="31.1" height="31.1"/>
		<path id="_Trazado_10" class="st2" d="M0.7,15.6L11.3,11V7.7l0,0c3.3-0.5,6.3-2.2,8.5-4.8l0,0l10.6,8.6V0.7H0.7V15.6z"/>
		<path id="_Trazado_11" class="st1" d="M11.3,25.4h8.5V2.9l0,0c-2.2,2.5-5.2,4.2-8.5,4.7l0,0V11L0.7,15.6v3.3l10.6-4.6V11l3.4-1.5
			v3.3l-3.4,1.5v3.2l3.4-1.5v3.2l-3.4,1.5v-3.2L0.7,22.2v3.2l10.6-4.6L11.3,25.4z"/>
		<polygon id="_Trazado_12" class="st3" points="11.3,17.5 11.3,17.5 11.3,14.3 11.3,14.3 11.3,14.3 0.7,18.9 0.7,22.2 11.3,17.5 		
			"/>
		<polygon id="_Trazado_13" class="st3" points="11.3,20.8 0.7,25.4 0.7,25.4 11.3,25.4 		"/>
		<polygon id="_Trazado_14" class="st3" points="11.3,14.3 14.7,12.8 14.7,9.6 11.3,11.1 11.3,14.3 11.3,14.3 		"/>
		<polygon id="_Trazado_15" class="st4" points="11.3,14.3 11.3,14.3 11.3,14.3 11.3,14.3 		"/>
		<polygon id="_Trazado_16" class="st3" points="11.3,17.5 11.3,20.8 14.7,19.3 14.7,16.1 11.3,17.5 11.3,17.5 		"/>
		<polygon id="_Trazado_17" class="st4" points="11.3,17.5 11.3,17.5 11.3,17.5 11.3,17.5 		"/>
		<polygon id="_Trazado_18" class="st3" points="19.8,25.4 30.4,25.4 30.4,11.5 19.8,2.9 		"/>
		<polygon id="_Trazado_19" class="st4" points="19.8,25.4 19.8,25.4 19.8,2.9 		"/>
		<polygon id="_Trazado_20" class="st5" points="0.7,30.3 30.4,30.3 30.4,30.3 		"/>
		<polygon id="_Trazado_21" class="st6" points="19.8,25.4 19.8,25.4 11.3,25.4 0.7,25.4 0.7,30.3 30.4,30.3 30.4,25.4 		"/>
		<line id="_Trazado_22" class="st7" x1="19.8" y1="25.4" x2="19.8" y2="25.4"/>
	</g>
</g>
</svg>
