<?xml version="1.0" encoding="utf-8"?>
<!-- Generator: Adobe Illustrator 27.2.0, SVG Export Plug-In . SVG Version: 6.00 Build 0)  -->
<svg version="1.1" id="Layer_1" xmlns="http://www.w3.org/2000/svg" xmlns:xlink="http://www.w3.org/1999/xlink" x="0px" y="0px"
	 viewBox="0 0 439.4 331.5" style="enable-background:new 0 0 439.4 331.5;" xml:space="preserve">
<style type="text/css">
	.st0{fill:#D3C272;}
	.st1{fill:#979367;}
	.st2{fill:#FCB912;stroke:#BF9330;stroke-miterlimit:10;}
	.st3{fill:#FFF100;stroke:#BF9330;stroke-miterlimit:10;}
	.st4{fill:#EDAD2E;stroke:#BF9330;stroke-width:1;stroke-miterlimit:10.0001;}
	.st5{fill:#D39C22;stroke:#BF9330;stroke-width:1;stroke-miterlimit:10.0001;}
	.st6{fill:#FFFFFF;}
	.st7{fill:#FCB912;}
	.st8{opacity:0.47;fill:#FFD16E;}
	.st9{opacity:0.27;fill:#FFD16E;}
	.st10{opacity:0.86;fill:#FFD16E;}
	.st11{opacity:0.44;fill:#FFD16E;}
	.st12{opacity:0.41;fill:#FFD16E;}
	.st13{opacity:0.42;fill:#FFD16E;}
	.st14{opacity:0.63;fill:#FFD16E;}
	.st15{opacity:0.25;fill:#FFD16E;}
	.st16{opacity:0.49;fill:#FFD16E;}
	.st17{opacity:0.57;fill:#FFD16E;}
	.st18{opacity:0.59;fill:#FFD16E;}
	.st19{opacity:0.43;fill:#FFD16E;}
	.st20{opacity:0.64;fill:#FFD16E;}
	.st21{opacity:0.39;fill:#FFD16E;}
	.st22{opacity:0.38;fill:#FFD16E;}
	.st23{opacity:0.5;fill:#FFD16E;}
	.st24{opacity:0.72;fill:#FFD16E;}
	.st25{opacity:0.91;fill:#FFD16E;}
	.st26{opacity:0.35;fill:#FFD16E;}
	.st27{opacity:0.37;fill:#FFD16E;}
	.st28{opacity:0.77;fill:#FFD16E;}
	.st29{opacity:0.53;fill:#FFD16E;}
	.st30{opacity:0.46;fill:#FFD16E;}
	.st31{opacity:0.21;fill:#FFD16E;}
	.st32{opacity:0.58;fill:#FFD16E;}
	.st33{opacity:0.31;fill:#FFD16E;}
	.st34{fill:#FFD16E;}
	.st35{opacity:0.55;fill:#FFD16E;}
	.st36{opacity:0.88;fill:#FFD16E;}
	.st37{opacity:0.65;fill:#FFD16E;}
	.st38{opacity:0.89;fill:#FFD16E;}
	.st39{opacity:0.92;fill:#FFD16E;}
	.st40{opacity:0.8;fill:#FFD16E;}
	.st41{opacity:0.67;fill:#FFD16E;}
	.st42{opacity:0.84;fill:#FFD16E;}
	.st43{opacity:0.94;fill:#FFD16E;}
	.st44{opacity:0.45;fill:#FFD16E;}
	.st45{opacity:0.62;fill:#FFD16E;}
	.st46{opacity:0.95;fill:#FFD16E;}
	.st47{fill:none;stroke:#FCB912;stroke-width:0.25;stroke-miterlimit:10;}
</style>
<g>
	<polygon class="st0" points="324.1,221.4 339.5,250.5 339.5,192.4 324.1,163.4 	"/>
	<polygon class="st1" points="37.3,223.5 339.5,250.5 325.2,222.2 	"/>
	<polygon class="st1" points="387.4,164.8 339.6,192.4 324.1,163.4 	"/>
	<polygon class="st0" points="133.2,164.3 117.9,164.3 117.9,135.3 133.2,106.4 	"/>
	<polygon class="st1" points="88,107.4 117.9,135.3 133.3,106.4 	"/>
	<g>
		<rect x="88.5" y="48.5" class="st2" width="221.7" height="57.9"/>
		<path class="st3" d="M310.7,106.9H88V48h222.7V106.9z M89,105.9h220.7V49H89V105.9z"/>
	</g>
	<g>
		
			<rect x="133.4" y="105.8" transform="matrix(1 -4.014215e-03 4.014215e-03 1 -0.5399 1.0446)" class="st4" width="253.2" height="58.4"/>
		<path class="st3" d="M133.1,165.3l-0.2-59.4l254.2-1l0.2,59.4L133.1,165.3L133.1,165.3z M133.8,106.9l0.2,57.4l252.2-1l-0.2-57.4
			L133.8,106.9L133.8,106.9z"/>
	</g>
	<g>
		<g>
			
				<rect x="38.2" y="164.6" transform="matrix(1 -4.014215e-03 4.014215e-03 1 -0.7744 0.7288)" class="st5" width="286" height="57.3"/>
			<path class="st3" d="M37.8,223l-0.2-58.3l287-1.1l0.2,58.3L37.8,223L37.8,223z M38.6,165.7l0.2,56.3l285-1.1l-0.2-56.3
				C323.5,164.5,38.6,165.7,38.6,165.7z"/>
		</g>
		<g>
			<path class="st6" d="M64.7,205.9c-0.3,0-0.5-0.1-0.6-0.3c-0.2-0.2-0.2-0.4-0.2-0.6v-22.6c0-0.3,0.1-0.5,0.2-0.6
				c0.2-0.2,0.4-0.2,0.6-0.2h4.7c0.3,0,0.5,0.1,0.6,0.2s0.3,0.4,0.3,0.6V205c0,0.2-0.1,0.4-0.3,0.6c-0.2,0.2-0.4,0.3-0.6,0.3H64.7z"
				/>
			<path class="st6" d="M75.9,205.9c-0.3,0-0.5-0.1-0.6-0.3c-0.2-0.2-0.2-0.4-0.2-0.6v-22.6c0-0.3,0.1-0.5,0.2-0.6
				c0.1-0.1,0.4-0.2,0.6-0.2h4.6c0.3,0,0.5,0.1,0.6,0.2s0.2,0.4,0.2,0.6v18.2h10.5c0.3,0,0.5,0.1,0.6,0.3s0.2,0.4,0.2,0.6v3.5
				c0,0.2-0.1,0.4-0.2,0.6c-0.1,0.2-0.4,0.3-0.6,0.3H75.9L75.9,205.9z"/>
			<path class="st6" d="M96.7,205.9c-0.3,0-0.5-0.1-0.6-0.3c-0.2-0.2-0.2-0.4-0.2-0.6v-22.6c0-0.3,0.1-0.5,0.2-0.6
				c0.1-0.1,0.4-0.2,0.6-0.2h4.6c0.3,0,0.5,0.1,0.6,0.2s0.2,0.4,0.2,0.6v18.2h10.5c0.3,0,0.5,0.1,0.6,0.3s0.2,0.4,0.2,0.6v3.5
				c0,0.2-0.1,0.4-0.2,0.6c-0.2,0.2-0.4,0.3-0.6,0.3H96.7L96.7,205.9z"/>
			<path class="st6" d="M126.2,206.3c-2.1,0-3.9-0.3-5.5-1s-2.8-1.7-3.6-3.2s-1.3-3.2-1.3-5.4v-14.1c0-0.3,0.1-0.5,0.2-0.6
				c0.2-0.2,0.4-0.2,0.6-0.2h4.5c0.3,0,0.5,0.1,0.6,0.2c0.2,0.2,0.3,0.4,0.3,0.6v14.1c0,1.5,0.4,2.6,1.1,3.4
				c0.7,0.8,1.7,1.1,3.1,1.1c1.3,0,2.3-0.4,3-1.1c0.7-0.8,1.1-1.9,1.1-3.4v-14.1c0-0.3,0.1-0.5,0.3-0.6c0.2-0.2,0.4-0.2,0.6-0.2h4.5
				c0.2,0,0.4,0.1,0.6,0.2c0.2,0.2,0.3,0.4,0.3,0.6v14.1c0,2.2-0.4,4-1.3,5.4c-0.9,1.4-2.1,2.5-3.6,3.2
				C130.2,205.9,128.3,206.3,126.2,206.3L126.2,206.3z"/>
			<path class="st6" d="M150.2,206.3c-2.3,0-4.2-0.3-5.8-1c-1.5-0.7-2.7-1.5-3.5-2.6s-1.2-2.2-1.3-3.4c0-0.2,0.1-0.4,0.2-0.5
				c0.2-0.1,0.3-0.2,0.5-0.2h4.4c0.3,0,0.6,0.1,0.7,0.2c0.2,0.1,0.3,0.3,0.5,0.5c0.2,0.3,0.4,0.7,0.8,1c0.4,0.3,0.8,0.6,1.3,0.8
				s1.2,0.3,2,0.3c1.3,0,2.4-0.2,3-0.6c0.7-0.4,1-1,1-1.7c0-0.5-0.2-1-0.6-1.3c-0.4-0.3-1-0.6-1.8-0.9c-0.8-0.3-1.9-0.5-3.3-0.8
				c-1.8-0.4-3.3-0.9-4.5-1.4c-1.2-0.6-2.2-1.4-2.8-2.3c-0.7-1-1-2.2-1-3.6s0.4-2.7,1.2-3.8c0.8-1.1,1.9-2,3.3-2.6
				c1.4-0.6,3.1-0.9,5.1-0.9c1.6,0,3,0.2,4.2,0.6s2.2,1,3.1,1.7c0.8,0.7,1.5,1.4,1.9,2.2c0.4,0.8,0.7,1.5,0.7,2.3
				c0,0.2-0.1,0.4-0.2,0.5c-0.1,0.2-0.3,0.2-0.5,0.2h-4.6c-0.3,0-0.5,0-0.7-0.1s-0.3-0.2-0.5-0.5c-0.1-0.5-0.5-1-1.1-1.3
				c-0.6-0.4-1.4-0.6-2.3-0.6c-1,0-1.8,0.2-2.4,0.5c-0.6,0.4-0.9,0.9-0.9,1.6c0,0.5,0.2,0.9,0.5,1.2s0.8,0.6,1.6,0.9
				c0.7,0.3,1.7,0.5,3,0.8c2.1,0.4,3.8,0.9,5.1,1.5s2.2,1.4,2.9,2.3c0.6,0.9,0.9,2.1,0.9,3.5c0,1.6-0.5,2.9-1.4,4.1
				c-0.9,1.2-2.1,2-3.7,2.6C154.1,206,152.3,206.3,150.2,206.3L150.2,206.3z"/>
			<path class="st6" d="M170.2,205.9c-0.3,0-0.5-0.1-0.6-0.3c-0.2-0.2-0.2-0.4-0.2-0.6v-18h-6.2c-0.3,0-0.5-0.1-0.6-0.3
				c-0.2-0.2-0.2-0.4-0.2-0.6v-3.7c0-0.3,0.1-0.5,0.2-0.6c0.2-0.2,0.4-0.2,0.6-0.2h18.7c0.3,0,0.5,0.1,0.6,0.2
				c0.2,0.2,0.2,0.4,0.2,0.6v3.7c0,0.2-0.1,0.4-0.2,0.6s-0.4,0.3-0.6,0.3h-6.2v18c0,0.2-0.1,0.4-0.2,0.6s-0.4,0.3-0.6,0.3H170.2
				L170.2,205.9z"/>
			<path class="st6" d="M186.7,205.9c-0.3,0-0.5-0.1-0.6-0.3c-0.2-0.2-0.2-0.4-0.2-0.6v-22.6c0-0.3,0.1-0.5,0.2-0.6s0.4-0.2,0.6-0.2
				h9.4c3,0,5.4,0.7,7.1,2.1c1.7,1.4,2.6,3.3,2.6,5.8c0,1.6-0.4,3-1.2,4.2c-0.8,1.1-1.8,2-3.1,2.6l4.7,8.5c0.1,0.1,0.1,0.3,0.1,0.4
				c0,0.2-0.1,0.4-0.2,0.5c-0.2,0.2-0.3,0.2-0.5,0.2H201c-0.4,0-0.8-0.1-1-0.3s-0.4-0.4-0.5-0.6l-4-7.6H192v7.7
				c0,0.2-0.1,0.4-0.3,0.6c-0.2,0.2-0.4,0.3-0.6,0.3L186.7,205.9L186.7,205.9z M192.1,192.4h4c1.1,0,1.9-0.3,2.4-0.8
				s0.8-1.3,0.8-2.1s-0.3-1.6-0.8-2.2c-0.5-0.6-1.4-0.8-2.5-0.8h-4L192.1,192.4L192.1,192.4z"/>
			<path class="st6" d="M208.4,205.9c-0.2,0-0.4-0.1-0.5-0.2c-0.2-0.2-0.2-0.3-0.2-0.5c0-0.1,0-0.2,0-0.3l8.1-22.3
				c0.1-0.3,0.2-0.5,0.4-0.7s0.5-0.3,0.9-0.3h5.1c0.4,0,0.7,0.1,0.9,0.3s0.4,0.4,0.4,0.7l8.1,22.3c0,0.1,0.1,0.2,0.1,0.3
				c0,0.2-0.1,0.4-0.2,0.5c-0.2,0.2-0.3,0.2-0.5,0.2h-4.3c-0.3,0-0.6-0.1-0.8-0.3s-0.3-0.3-0.3-0.5l-1.4-3.5h-9.3l-1.3,3.5
				c0,0.1-0.2,0.3-0.3,0.5c-0.2,0.2-0.4,0.3-0.8,0.3H208.4L208.4,205.9z M216.5,196.7h6.5l-3.2-9.2L216.5,196.7z"/>
			<path class="st6" d="M238.4,205.9c-0.3,0-0.5-0.1-0.6-0.3c-0.2-0.2-0.2-0.4-0.2-0.6v-18h-6.3c-0.3,0-0.5-0.1-0.6-0.3
				c-0.2-0.2-0.2-0.4-0.2-0.6v-3.7c0-0.3,0.1-0.5,0.2-0.6c0.2-0.2,0.4-0.2,0.6-0.2H250c0.3,0,0.5,0.1,0.6,0.2
				c0.2,0.2,0.2,0.4,0.2,0.6v3.7c0,0.2-0.1,0.4-0.2,0.6c-0.2,0.2-0.4,0.3-0.6,0.3h-6.2v18c0,0.2-0.1,0.4-0.2,0.6
				c-0.2,0.2-0.4,0.3-0.6,0.3H238.4L238.4,205.9z"/>
			<path class="st6" d="M263.5,206.3c-2.1,0-4-0.3-5.5-1c-1.6-0.7-2.8-1.7-3.7-3.1c-0.9-1.4-1.4-3.2-1.5-5.3c0-1,0-2,0-3s0-2,0-3
				c0.1-2.1,0.6-3.8,1.5-5.3c0.9-1.4,2.1-2.5,3.7-3.2s3.4-1.1,5.5-1.1s3.9,0.4,5.5,1.1c1.6,0.7,2.8,1.8,3.7,3.2s1.4,3.2,1.5,5.3
				c0,1,0.1,2,0.1,3s0,2-0.1,3c-0.1,2.1-0.6,3.9-1.4,5.3c-0.9,1.4-2.1,2.4-3.7,3.1C267.5,205.9,265.7,206.3,263.5,206.3L263.5,206.3
				z M263.5,201.3c1.2,0,2.2-0.4,3-1.1c0.8-0.7,1.2-1.9,1.2-3.5c0-1,0.1-2,0.1-2.9s0-1.8-0.1-2.8c0-1.1-0.2-2-0.6-2.7
				c-0.4-0.7-0.9-1.2-1.5-1.5s-1.3-0.5-2.1-0.5c-0.8,0-1.5,0.2-2.1,0.5s-1.1,0.8-1.5,1.5s-0.6,1.6-0.6,2.7c0,1,0,1.9,0,2.8
				s0,1.9,0,2.9c0.1,1.6,0.5,2.8,1.3,3.5S262.3,201.3,263.5,201.3L263.5,201.3z"/>
			<path class="st6" d="M279.2,205.9c-0.3,0-0.5-0.1-0.6-0.3c-0.2-0.2-0.2-0.4-0.2-0.6v-22.6c0-0.3,0.1-0.5,0.2-0.6
				c0.2-0.2,0.4-0.2,0.6-0.2h9.4c3,0,5.4,0.7,7.1,2.1c1.7,1.4,2.6,3.3,2.6,5.8c0,1.6-0.4,3-1.2,4.2c-0.8,1.1-1.8,2-3.1,2.6l4.7,8.5
				c0.1,0.1,0.1,0.3,0.1,0.4c0,0.2-0.1,0.4-0.2,0.5s-0.3,0.2-0.5,0.2h-4.6c-0.4,0-0.8-0.1-1-0.3c-0.2-0.2-0.4-0.4-0.5-0.6l-4-7.6
				h-3.5v7.7c0,0.2-0.1,0.4-0.3,0.6c-0.2,0.2-0.4,0.3-0.6,0.3L279.2,205.9L279.2,205.9z M284.6,192.4h4c1.1,0,1.9-0.3,2.4-0.8
				s0.8-1.3,0.8-2.1s-0.3-1.6-0.8-2.2c-0.5-0.6-1.4-0.8-2.5-0.8h-4L284.6,192.4L284.6,192.4z"/>
		</g>
	</g>
	<g>
		<path class="st6" d="M113.3,89.3c-0.3,0-0.5-0.1-0.6-0.3c-0.1-0.2-0.2-0.4-0.2-0.6V65.9c0-0.3,0.1-0.5,0.2-0.6
			c0.2-0.2,0.4-0.2,0.6-0.2h9c2.3,0,4.2,0.4,5.8,1.1c1.6,0.7,2.8,1.8,3.7,3.2s1.3,3.1,1.4,5.2c0,1,0,1.9,0,2.7s0,1.6,0,2.6
			c-0.1,2.1-0.6,3.9-1.4,5.3s-2,2.5-3.6,3.1c-1.6,0.6-3.5,1-5.7,1H113.3L113.3,89.3z M118.6,84.3h3.7c1,0,1.8-0.2,2.5-0.5
			c0.7-0.3,1.2-0.8,1.5-1.5c0.3-0.7,0.5-1.6,0.5-2.6c0-0.7,0.1-1.3,0.1-1.8s0-1.1,0-1.6s0-1.1-0.1-1.8c0-1.6-0.5-2.7-1.2-3.5
			c-0.8-0.7-1.9-1.1-3.5-1.1h-3.5V84.3L118.6,84.3z"/>
		<path class="st6" d="M138.1,89.3c-0.3,0-0.5-0.1-0.6-0.3c-0.2-0.2-0.2-0.4-0.2-0.6V65.9c0-0.3,0.1-0.5,0.2-0.6
			c0.2-0.2,0.4-0.2,0.6-0.2h16.2c0.3,0,0.5,0.1,0.6,0.2c0.2,0.2,0.2,0.4,0.2,0.6v3.3c0,0.3-0.1,0.5-0.2,0.6
			c-0.2,0.2-0.4,0.2-0.6,0.2h-11.1v4.7h10.3c0.3,0,0.5,0.1,0.6,0.3c0.2,0.2,0.2,0.4,0.2,0.6v3c0,0.2-0.1,0.4-0.2,0.6
			c-0.2,0.2-0.4,0.3-0.6,0.3h-10.3v4.8h11.3c0.3,0,0.5,0.1,0.6,0.2c0.1,0.1,0.2,0.4,0.2,0.6v3.3c0,0.2-0.1,0.4-0.2,0.6
			c-0.2,0.2-0.4,0.3-0.6,0.3H138.1L138.1,89.3z"/>
		<path class="st6" d="M168.4,89.7c-2.3,0-4.2-0.3-5.8-1c-1.5-0.7-2.7-1.5-3.5-2.6s-1.2-2.2-1.3-3.4c0-0.2,0.1-0.4,0.2-0.5
			c0.2-0.2,0.3-0.2,0.5-0.2h4.4c0.3,0,0.6,0.1,0.7,0.2c0.2,0.1,0.3,0.3,0.5,0.5c0.2,0.3,0.4,0.7,0.8,1c0.4,0.3,0.8,0.6,1.3,0.8
			c0.5,0.2,1.2,0.3,2,0.3c1.3,0,2.4-0.2,3-0.6c0.7-0.4,1-1,1-1.7c0-0.5-0.2-1-0.6-1.3c-0.4-0.3-1-0.6-1.8-0.9
			c-0.8-0.3-1.9-0.5-3.3-0.8c-1.8-0.4-3.3-0.9-4.5-1.4c-1.2-0.6-2.2-1.4-2.8-2.3c-0.7-1-1-2.2-1-3.6s0.4-2.7,1.2-3.8
			c0.8-1.1,1.9-2,3.3-2.6c1.4-0.6,3.1-0.9,5.1-0.9c1.6,0,3,0.2,4.2,0.6s2.2,1,3.1,1.7c0.9,0.7,1.5,1.4,1.9,2.2
			c0.4,0.8,0.7,1.5,0.7,2.3c0,0.2-0.1,0.4-0.2,0.5c-0.1,0.2-0.3,0.2-0.5,0.2h-4.6c-0.3,0-0.5,0-0.7-0.1c-0.2-0.1-0.3-0.2-0.5-0.5
			c-0.1-0.5-0.5-1-1.1-1.3c-0.6-0.4-1.4-0.6-2.3-0.6c-1,0-1.8,0.2-2.4,0.5c-0.6,0.4-0.9,0.9-0.9,1.6c0,0.5,0.2,0.9,0.5,1.2
			c0.3,0.3,0.8,0.6,1.6,0.9c0.7,0.3,1.7,0.5,3,0.8c2.1,0.4,3.8,0.9,5.1,1.5s2.2,1.4,2.9,2.3c0.6,0.9,0.9,2.1,0.9,3.5
			c0,1.6-0.5,2.9-1.4,4.1s-2.1,2-3.7,2.6C172.3,89.4,170.5,89.7,168.4,89.7L168.4,89.7z"/>
		<path class="st6" d="M183.3,89.3c-0.3,0-0.5-0.1-0.6-0.3c-0.1-0.2-0.2-0.4-0.2-0.6V65.9c0-0.3,0.1-0.5,0.2-0.6
			c0.2-0.2,0.4-0.2,0.6-0.2h4.7c0.3,0,0.5,0.1,0.6,0.2c0.2,0.2,0.3,0.4,0.3,0.6v22.6c0,0.2-0.1,0.4-0.3,0.6s-0.4,0.3-0.6,0.3
			L183.3,89.3L183.3,89.3z"/>
		<path class="st6" d="M203.7,89.7c-2.2,0-4.1-0.4-5.7-1.1c-1.6-0.7-2.8-1.8-3.7-3.2s-1.4-3.1-1.4-5.1c0-1,0-2,0-3.2
			c0-1.2,0-2.2,0-3.2c0.1-2,0.6-3.6,1.5-5c0.9-1.4,2.1-2.4,3.7-3.1c1.6-0.7,3.5-1.1,5.6-1.1c1.7,0,3.3,0.2,4.6,0.6
			c1.3,0.4,2.5,1,3.4,1.7c0.9,0.7,1.6,1.5,2.1,2.4c0.5,0.9,0.7,1.7,0.8,2.5c0,0.2-0.1,0.4-0.2,0.5c-0.1,0.1-0.3,0.2-0.5,0.2h-5.1
			c-0.3,0-0.4,0-0.6-0.1c-0.1-0.1-0.2-0.2-0.3-0.4c-0.2-0.3-0.4-0.7-0.7-1.1s-0.7-0.7-1.3-1c-0.6-0.3-1.3-0.4-2.1-0.4
			c-1.3,0-2.3,0.3-3.1,1c-0.8,0.7-1.2,1.8-1.3,3.3c-0.1,2-0.1,4,0,6c0.1,1.6,0.5,2.8,1.3,3.5c0.8,0.7,1.8,1.1,3.2,1.1
			c0.9,0,1.6-0.2,2.3-0.5c0.7-0.3,1.2-0.8,1.6-1.4c0.4-0.6,0.6-1.5,0.6-2.4v-0.7h-3.3c-0.3,0-0.5-0.1-0.6-0.3
			c-0.2-0.2-0.2-0.4-0.2-0.6V76c0-0.3,0.1-0.5,0.2-0.6c0.2-0.2,0.4-0.3,0.6-0.3h8.7c0.3,0,0.5,0.1,0.6,0.3c0.2,0.2,0.2,0.4,0.2,0.6
			v4c0,2-0.5,3.7-1.4,5.1c-0.9,1.4-2.2,2.5-3.8,3.2C207.8,89.3,205.8,89.7,203.7,89.7L203.7,89.7z"/>
		<path class="st6" d="M219.5,89.3c-0.3,0-0.5-0.1-0.6-0.3c-0.1-0.2-0.2-0.4-0.2-0.6V65.9c0-0.3,0.1-0.5,0.2-0.6
			c0.2-0.2,0.4-0.2,0.6-0.2h3.7c0.4,0,0.7,0.1,0.9,0.3c0.2,0.2,0.3,0.3,0.3,0.4l8.5,13.3V65.9c0-0.3,0.1-0.5,0.2-0.6
			c0.2-0.2,0.4-0.2,0.6-0.2h4.2c0.3,0,0.5,0.1,0.6,0.2c0.2,0.2,0.2,0.4,0.2,0.6v22.5c0,0.3-0.1,0.5-0.2,0.6
			c-0.2,0.2-0.4,0.3-0.6,0.3h-3.7c-0.4,0-0.6-0.1-0.8-0.3c-0.2-0.2-0.3-0.3-0.3-0.4l-8.5-12.8v12.6c0,0.2-0.1,0.4-0.2,0.6
			c-0.2,0.2-0.4,0.3-0.6,0.3H219.5z"/>
		<path class="st6" d="M244.4,89.3c-0.3,0-0.5-0.1-0.6-0.3c-0.1-0.2-0.2-0.4-0.2-0.6V65.9c0-0.3,0.1-0.5,0.2-0.6
			c0.2-0.2,0.4-0.2,0.6-0.2h16.2c0.3,0,0.5,0.1,0.6,0.2c0.2,0.2,0.2,0.4,0.2,0.6v3.3c0,0.3-0.1,0.5-0.2,0.6
			c-0.2,0.2-0.4,0.2-0.6,0.2h-11.1v4.7h10.3c0.3,0,0.5,0.1,0.6,0.3c0.2,0.2,0.2,0.4,0.2,0.6v3c0,0.2-0.1,0.4-0.2,0.6
			c-0.2,0.2-0.4,0.3-0.6,0.3h-10.3v4.8h11.3c0.3,0,0.5,0.1,0.6,0.2c0.1,0.1,0.2,0.4,0.2,0.6v3.3c0,0.2-0.1,0.4-0.2,0.6
			c-0.2,0.2-0.4,0.3-0.6,0.3H244.4L244.4,89.3z"/>
		<path class="st6" d="M266.6,89.3c-0.3,0-0.5-0.1-0.6-0.3c-0.1-0.2-0.2-0.4-0.2-0.6V65.9c0-0.3,0.1-0.5,0.2-0.6
			c0.2-0.2,0.4-0.2,0.6-0.2h9.4c3,0,5.4,0.7,7.1,2.1c1.7,1.4,2.6,3.3,2.6,5.8c0,1.6-0.4,3-1.2,4.2c-0.8,1.1-1.8,2-3.1,2.6l4.7,8.5
			c0.1,0.1,0.1,0.3,0.1,0.4c0,0.2-0.1,0.4-0.2,0.5c-0.2,0.2-0.3,0.2-0.5,0.2h-4.6c-0.4,0-0.8-0.1-1-0.3c-0.2-0.2-0.4-0.4-0.5-0.6
			l-4-7.6h-3.5v7.7c0,0.2-0.1,0.4-0.3,0.6c-0.2,0.2-0.4,0.3-0.6,0.3C271.1,89.3,266.6,89.3,266.6,89.3z M272,75.8h4
			c1.1,0,1.9-0.3,2.4-0.8s0.8-1.3,0.8-2.1c0-0.8-0.3-1.6-0.8-2.2s-1.4-0.8-2.5-0.8h-4L272,75.8L272,75.8z"/>
	</g>
</g>
<path class="st7" d="M206.2,38l-0.8,1.7c-1.9-1.3-9.7-7.7-4.5-18.1c5-9.9,13.9-8,16.7-7.1c-0.2,0.9,0,1.8,0.5,2.4
	c0.2-0.8,0.3-1.4,0.4-1.8c0-0.3,0.1-0.5,0.2-0.8c0,0,0,0,0,0c0,0,0,0,0,0c0.5-0.9,1.6-1.3,2.5-0.8c0.2,0.1,0.4,0.3,0.6,0.5l0.5,0
	c0.3,0,0.6,0.2,0.7,0.5c0,0,0.1,0.4,0.2,1c0.2-1.2-0.4-2.4-1.5-3c-1-0.5-2.2-0.3-3.1,0.4l-11.1-9.6c0.2-0.4,0.3-0.9,0.1-1.4
	c-0.3-1-1.4-1.5-2.4-1.2c-1,0.3-1.5,1.4-1.2,2.4c0.3,1,1.4,1.5,2.4,1.2c0.1,0,0.3-0.1,0.4-0.2l10.8,9.3c-3.3-0.9-12.5-2.4-17.5,7.7
	c-5.6,11.2,3.2,18.2,4.9,19.5l-0.9,1.7l4.3,2.1l2.2-4.3L206.2,38z M205.4,41.8l1.3-2.5l2.5,1.2l-1.3,2.5L205.4,41.8z M236.7,27
	c0.3,1-0.2,2-1.2,2.4c-1,0.3-2-0.2-2.4-1.2c-0.2-0.5-0.1-1,0.1-1.4l-9.3-8c-0.1-0.6-0.3-1.2-0.4-1.7l10.3,8.9
	c0.1-0.1,0.3-0.2,0.4-0.2C235.3,25.5,236.4,26.1,236.7,27z M222.3,14.6c0,0,2.2,11.6,4.8,14.9c-0.4,2.4-0.7,4.1-0.7,4.1
	s-2.4,1.8-2.7,4.5c0,0.2,0,0.5-0.1,0.7l0.3,0l0,0.8l0.7,0l0.7,6.7l-5,0l-5,0l0.9-6.7l0.7,0l0-0.8l0.3,0c0-0.2,0-0.5,0-0.7
	c-0.2-2.8-2.6-4.5-2.6-4.5s-0.2-1.7-0.6-4.1c2.7-3.3,5.3-14.9,5.3-14.9l1.2,0l-0.1,12.1c-2.5,0.4-2.5,4.5,0.1,4.8
	c2.7-0.3,2.7-4.4,0.3-4.8l0.3-12.1L222.3,14.6z"/>
<path class="st7" d="M50,259.8l10.1-0.2l0.2,10.1l-10.1,0.2L50,259.8z M32,270.2l-0.2-10.1l-10.1,0.2l0.2,10.1L32,270.2z
	 M46.7,263.8l-1.2,1.3l0.1,4.3l-8.9,0.2l-0.2-8.9l3.1-0.1c0.1-0.1,0.1-0.2,0.2-0.3l0.9-1l-5.6,0.1l0.2,11.4l11.4-0.2L46.7,263.8z
	 M55.7,242.8c-0.3-0.3-0.4-0.9,0-1.2l0.3-0.3c0.3-0.3,0.9-0.4,1.2,0l0.7,0.7l6.8-7c1.3-1.3,3.4-1.3,4.8,0c1.4,1.3,1.4,3.4,0.1,4.8
	l-6.8,7l0.7,0.7c0.3,0.3,0.4,0.9,0,1.2l-0.3,0.3c-0.3,0.3-0.9,0.4-1.2,0l-0.6-0.5l-0.5,0.5l-0.5-0.5l-15.5,16c0,0-0.3,0.3-0.4,0.5
	c-0.8,0.8-2.2,0.4-4.1,1.2l-1.2-1.2c0.7-1.9,0.2-3.3,1.1-4.1c0.1-0.1,0.4-0.5,0.4-0.5l15.5-16l-0.5-0.5l0.5-0.5L55.7,242.8z
	 M63.2,244.4l0.5,0.5c0,0,2.8-3,5.1-5.3c0.7-0.7,0.8-1.6,0.9-2.2c-0.5,0.8-0.5,0.7-2.5,2.8C65.1,242.3,63.2,244.4,63.2,244.4z
	 M59.9,246.4c0,0,2.2,2.1,2.3,2.3c0.2,0.2,0.5,0.2,0.8-0.2c0.3-0.4,0.2-0.7,0.2-0.7c-0.2,0.4-0.6,0.6-0.8,0.5
	C62.3,248.1,59.9,246.4,59.9,246.4z M44.6,263.2c-1.7,1.8-3.1,1.7-4,2.4c0,0,3-0.3,4.4-1.7c0.9-0.9,4.7-4.9,7.9-8.2
	c3.2-3.3,6.7-7,6.7-7l-0.5-0.5C59.1,248.1,46.3,261.4,44.6,263.2z"/>
<path class="st7" d="M166,250.5c-0.2,1.8,1.1,3.3,2.8,3.5c1.8,0.2,3.3-1.1,3.5-2.8c0.2-1.8-1.1-3.3-2.8-3.5
	C167.8,247.5,166.2,248.8,166,250.5z M171.8,251.2c-0.2,1.5-1.5,2.5-2.9,2.4c-1.5-0.2-2.5-1.5-2.4-2.9c0.2-1.5,1.5-2.5,2.9-2.4
	C170.9,248.4,172,249.7,171.8,251.2z M144.8,254.9l1.5-13.3l5.8,0.6l-1.5,13.3L144.8,254.9z M179.3,252c0.3-2.5-0.4-4.9-1.8-6.9
	l7.4,0.8l-1.5,13.3l-7.4-0.8C177.8,256.7,179,254.5,179.3,252z M159.1,249.7c-0.3,2.5,0.4,4.9,1.8,6.9l-7.4-0.8l1.5-13.3l7.4,0.8
	C160.5,245,159.3,247.3,159.1,249.7z M186.2,259.5l1.5-13.3l5.8,0.6l-1.5,13.3L186.2,259.5z M188.2,325.1l1.6-14l-1.7-2.1l-1.8,16
	c-0.1,0.5-0.5,0.8-1,0.8l-48.4-5.4c-0.5-0.1-0.8-0.5-0.8-1l6.9-61.8l50.1,5.6l-3.8,33.8l1.7,2.1l5.8-51.7c0.2-1.6-0.9-3-2.5-3.1
	l-48.4-5.4c-1.6-0.2-3,0.9-3.1,2.5l-8.7,77.7c-0.2,1.6,0.9,3,2.5,3.1l48.4,5.4C186.7,327.8,188.1,326.7,188.2,325.1z M143.7,255.7
	l1.7-15.2l7.8,0.9l-1.7,15.2L143.7,255.7z M152.3,256.7l1.7-15.2l11,1.2c-2.6,1.4-4.6,4-4.9,7.2c-0.4,3.2,1,6.2,3.2,8.1L152.3,256.7
	z M170,243.5c4.1,0.5,7,4.1,6.6,8.2c-0.5,4.1-4.1,7-8.2,6.6c-4.1-0.5-7-4.1-6.6-8.2C162.2,246,165.9,243,170,243.5z M173.4,259
	c2.6-1.4,4.6-4,4.9-7.2c0.4-3.2-1-6.2-3.2-8.1l11,1.2l-1.7,15.2L173.4,259z M185.1,260.3l1.7-15.2l7.8,0.9l-1.7,15.2L185.1,260.3z
	 M167,273c-0.3-0.4-0.7-0.6-1.2-0.6c-0.5-0.1-0.9,0.1-1.3,0.4c-0.4,0.3-0.6,0.7-0.6,1.2c-0.1,0.5,0.1,0.9,0.4,1.3l0.4,0.5l0.1,2.4
	c0,0.2,0.1,0.3,0.1,0.5l2.1,3.9c0,0.1,0.1,0.1,0.1,0.2l20.1,25.2l-1.8,15.7c-0.1,0.5-0.5,0.8-0.9,0.8l-46.3-5.2
	c-0.5-0.1-0.8-0.5-0.8-0.9L144,259l48,5.3l-3.5,31.4l-14.8-18.5c0-0.1-0.1-0.1-0.2-0.2l-3.4-2.9c-0.1-0.1-0.3-0.2-0.4-0.2l-2.4-0.6
	L167,273z M169.5,275.1l-2.7-0.7l-0.6-0.7c-0.2-0.3-0.6-0.3-0.9-0.1l0,0c-0.3,0.2-0.3,0.6-0.1,0.9l0.6,0.7l0.1,2.8l2.1,3.9
	l32.4,40.6l0.4-0.3l1.4,1.8c0.7,0.8,1.8,0.9,2.7,0.3l1.1-0.9c0.8-0.7,0.9-1.8,0.3-2.7l-1.4-1.8l0.4-0.3L172.8,278L169.5,275.1z
	 M185.2,293.5l-4.9,3.9l-0.5-0.6l4.9-3.9L185.2,293.5z M179.8,289.6c0.5,0.6,0.4,1.4-0.2,1.9l0,0c-0.6,0.5-1.4,0.4-1.9-0.2l-4.7-5.8
	l2.1-1.7L179.8,289.6z M172.5,280.4l2.1,2.7l-2.1,1.7l-2.1-2.7c-0.5-0.6-0.4-1.4,0.2-1.9l0,0C171.2,279.7,172,279.8,172.5,280.4z"/>
<path class="st7" d="M338.5,70.8l5,5.1l-4.1,1.9l-0.1,0l-0.5-5.5L338.5,70.8z M338.1,77.9l-0.6-6.9l-0.7-3.7l0.1,0l2.3,2.9l4.9,5
	c0,0,0-0.1,0-0.1c0.4-0.8,1.4-1.3,2.8-1.3l4,0l-14-13.2l-2.8,1.3l1,15.9L338.1,77.9z M344.2,77.2c-0.1-0.2-0.2-0.4-0.3-0.6l-2.6,1.2
	l3.4,0L344.2,77.2z M356,73.8C356.1,73.8,356.1,73.8,356,73.8c0.3-0.8,0.7-1.6,1.3-2.4c0.3-0.4,0.7-0.8,1.2-1.2
	c-0.3-0.2-0.6-0.4-1-0.7l-0.1,0c-0.1,0.1-0.2,0.1-0.3,0.1c-0.1,0-0.3,0-0.4-0.1c-0.4-0.2-0.8-0.5-1.2-0.8c-0.4-0.3-0.8-0.7-1.2-1
	c-0.4-0.4-0.8-0.8-1.1-1.2c-0.3-0.4-0.7-0.9-0.9-1.3c-0.2-0.3-0.2-0.6,0-0.8c0.1-0.2,0.3-0.4,0.4-0.6h-3.1c-1.8,0-3.3,1.5-3.3,3.3
	v1.5l5.6,5.3L356,73.8z M374.7,68.8c0.3,0.5,0.5,1,0.7,1.4c0.1,0.2,0.2,0.4,0.4,0.6l0.1,0v-2.1V67c0-1.8-1.5-3.3-3.3-3.3h-0.1
	c0.2,0.5,0.4,0.9,0.6,1.4C373.5,66.3,374.1,67.5,374.7,68.8z M373.6,78.6c-0.3-0.3-0.6-0.6-0.8-0.8l-0.3,0.1
	c-0.1,0.1-0.2,0.1-0.3,0.1c-0.2,0-0.4-0.1-0.5-0.2c-0.2-0.2-0.4-0.4-0.6-0.6c-0.1,0.5-0.3,1-0.5,1.5c-0.3,0.6-0.7,1.1-1.2,1.7
	c-0.5,0.5-1.2,1-2,1.3c-0.5,0.2-1,0.4-1.5,0.5l9,12.7c0.3,0.4,0.4,0.7,0.5,1c0.3-0.5,0.5-1.1,0.5-1.7V77.4c-0.3,0.2-0.7,0.4-0.9,0.6
	L373.6,78.6z M333.5,69.3c-1.1,0.6-1.8,1.8-1.8,3.1v5.4l2.3,0L333.5,69.3z M365.1,65.8c-0.3-0.8-0.7-1.6-1-2.2h-3.8
	c-0.1,0.1-0.3,0.3-0.4,0.4l0.3,4.8c0.1-0.1,0.3-0.2,0.4-0.3C361.8,67.7,363.3,66.8,365.1,65.8z M378.8,72.3c-0.2,0.3-0.6,0.6-1,1
	c-0.4,0.4-0.9,0.8-1.4,1.2c-0.5,0.4-1,0.8-1.5,1.1c-0.5,0.4-1,0.7-1.4,0.9l-1.3,0.6c-0.5-0.5-1-1-1.3-1.5c-0.3-0.6-0.7-1.2-1.1-2.1
	l-0.2,0.1c0.1,0.6,0.1,1.2,0,1.8c-0.1,0.6-0.3,1.2-0.6,1.8c-0.3,0.6-0.7,1.1-1.2,1.7c-0.5,0.5-1.2,1-2,1.3c-0.4,0.2-0.7,0.3-1.1,0.4
	l-3.1-4.3c-0.9-1.2-2.8-2.2-4.7-2.5c0.2-0.7,0.5-1.3,1-2c0.7-0.9,1.7-1.8,3.1-2.7c1.3-0.9,3-1.9,5-3c-0.8-2.3-1.7-3.8-2.5-4.6
	c-0.9-0.8-1.9-0.9-3.2-0.3c-0.8,0.4-1.4,0.8-2,1.4l0.4,5.4l-1.7,0.8h0c-0.3-0.2-0.7-0.5-1.1-0.8c-0.4-0.3-0.7-0.6-1.1-1
	c-0.4-0.4-0.7-0.7-1.1-1.1c-0.3-0.4-0.6-0.8-0.9-1.2c0.6-1.1,1.6-2.2,3-3.3c1.3-1.1,2.8-2,4.5-2.8c1.4-0.7,2.7-1.1,3.7-1.2
	c1.1-0.1,2,0,2.7,0.3c0.8,0.3,1.4,0.8,2,1.4c0.5,0.6,1,1.4,1.4,2.2c0.7,1.5,1.3,2.9,1.9,4.1c0.5,1.3,1.1,2.5,1.7,3.8
	c0.3,0.6,0.5,1,0.7,1.4c0.2,0.4,0.4,0.8,0.7,1.2l2.8-0.9L378.8,72.3z M368.8,72.8c0-0.4,0-0.7-0.1-1l-1.8-3.8
	c-1.2,0.6-2.1,1.1-2.8,1.6c-0.7,0.5-1.2,1-1.5,1.5c-0.3,0.5-0.4,1-0.4,1.5c0,0.5,0.2,1.1,0.5,1.7c0.5,1,1,1.6,1.7,1.9
	c0.7,0.3,1.5,0.3,2.3-0.1c0.5-0.3,0.9-0.6,1.2-0.9c0.3-0.4,0.5-0.8,0.6-1.2C368.8,73.6,368.8,73.2,368.8,72.8z M367.1,70.1
	c-0.6,0.3-1.1,0.6-1.5,0.9c-0.7,0.5-1.2,1-1.5,1.5c-0.3,0.5-0.4,1-0.4,1.5c0,0.1,0,0.2,0.1,0.4c0.3,0.5,0.7,0.9,1.1,1.1
	c0.2,0.1,0.4,0.1,0.7,0.1c0.3,0,0.6-0.1,0.9-0.2c0.4-0.2,0.7-0.4,0.9-0.7c0.2-0.3,0.4-0.6,0.5-0.9c0.1-0.3,0.1-0.6,0.1-0.9
	c0-0.3,0-0.6-0.1-0.8L367.1,70.1z M363.6,80.5l-1.2-1.7l-1.4-2c-0.9-1.2-3.1-2.2-5-2.2l-9.3-0.1c-1.9,0-2.7,1-1.8,2.2l1.4,2l-25-0.1
	c-2,0-2.9,1-1.9,2.4l10.7,14.4c0.9,1.3,3.3,2.3,5.2,2.3h37.1c1.9,0,2.7-1,1.9-2.3L363.6,80.5z"/>
<path class="st7" d="M72.1,84.5l-1.6,6.2l4.3,4.8c0.6,0.7,0.2,1.8-0.8,1.8l-6.4,0.4l-3.3,5.5c-0.5,0.8-1.6,0.7-2-0.2l-2.4-6
	l-6.3-1.4c-0.9-0.2-1.2-1.3-0.5-1.9l5-4.1l-0.6-6.4c-0.1-0.9,0.9-1.5,1.7-1l5.4,3.5l5.9-2.6C71.5,82.8,72.4,83.6,72.1,84.5z
	 M66.3,75.4l-7.7,4.7l0.4,0.6l7.7-4.7L66.3,75.4z M53.7,98.8l4.4,7.2l0.6-0.4l-4.4-7.2L53.7,98.8z M68.2,76.4l4.4,7.2l0.6-0.4
	l-4.4-7.2L68.2,76.4z M56,81.7l-7.8,4.7l0.4,0.6l7.8-4.7L56,81.7z M74.2,86.2l4.4,7.2l0.6-0.4l-4.4-7.2L74.2,86.2z M70.9,100.4
	l7.7-4.7L78.3,95l-7.7,4.7L70.9,100.4z M60.6,106.7l7.8-4.7l-0.4-0.6l-7.8,4.7L60.6,106.7z M52.7,95.9l-4.4-7.2L47.7,89l4.4,7.2
	L52.7,95.9z M57.8,79.9l-1.7,1.1l1.1,1.7l1.7-1.1L57.8,79.9z M73.4,86.2l1.7-1.1l-1.1-1.7l-1.7,1.1L73.4,86.2z M66.4,74.6l1.1,1.7
	l1.7-1.1l-1.1-1.7L66.4,74.6z M47.5,86.2l-1.7,1.1l1.1,1.7l1.7-1.1L47.5,86.2z M79.4,95.9l1.7-1.1l-1.1-1.7l-1.7,1.1L79.4,95.9z
	 M69.1,102.2l1.7-1.1l-1.1-1.7l-1.7,1.1L69.1,102.2z M58.8,108.5l1.7-1.1l-1.1-1.7l-1.7,1.1L58.8,108.5z M52.8,98.8l1.7-1.1L53.5,96
	L51.8,97L52.8,98.8z"/>
<path class="st7" d="M15.9,220.6c0.1-0.1,0.2-0.3,0.3-0.4c0.3-0.3,0.8-0.6,1.3-0.7c0.2-0.2,0.4-0.3,0.6-0.4c1.6-0.6,2.2,0.7,2.4,2.1
	c0.1,1,0.6,2.5-0.3,3.3l1.4,1c0,0,0,0,0,0c0,0,0,0,0,0l2.3,1.7c0.2,0.2,0.3,0.3,0.4,0.5c0,0,0.1,0.1,0.1,0.1l10.4,9.5
	c0.3-0.6,0.9-1,1.6-0.9c1,0.1,2.4,0.7,2.9,1.7c0.1,0.3,0,0.7-0.3,0.9c-0.4,0.3-0.6,1-0.9,1.4l2.1,2c1-1.5,1.8-3.4,2.2-5.8
	c1.6-9-1.9-11.6-5.8-10c-3.9,1.6-4.7-10.1-9.7-12.1c-4.4-1.7-9.2,0.7-12.4,4.7C15.2,219.7,15.6,220.2,15.9,220.6z M32.9,229.1
	c1.5,2.5,4.4,0.3,5.2,2.8c0.3,0.9-1.5,2.7-5,1c-3.5-1.7-4.8-5.9-3.7-6.7C30.5,225.3,31.4,226.6,32.9,229.1z M22.2,218.4
	c0-0.2,0.1-0.3,0.1-0.4c0.3-0.7,1-1.2,1.7-1.4c1-0.3,2.3,0.1,3,0.7c0.9,0.8,0.6,2.2-0.3,3c-1.4,1.3-3.7,0.9-4.4-0.7
	c-0.1-0.2-0.2-0.3-0.2-0.5C22.1,218.9,22.1,218.6,22.2,218.4C22.2,218.4,22.2,218.4,22.2,218.4z M32,240.7c0.5,1,0.9,2.2,0.4,3.3
	c-1,1.9-3.6,0.2-4.1-1.4c-0.2-0.3-0.4-0.8-0.5-1.3c-0.1-1.1,0.3-2,1.4-2.3c0.2,0,0.3-0.1,0.4-0.1l-8.9-6.8c0,0-0.1-0.1-0.1-0.1
	c-0.3,0-0.4-0.2-0.6-0.3l-1-1c-0.1,0.1-0.1,0.2-0.2,0.2c-0.6,0.8-1.8,0.7-2.7,0.2c-0.5-0.2-0.9-0.5-1.2-0.9c-0.5-0.5-0.9-1-0.7-1.7
	c0.1-0.4,0.4-0.5,0.6-0.6c0.2-0.2,0.5-0.5,0.7-0.7l-1.1-1.1c0,0-0.1-0.1-0.1-0.1c0,0-0.1-0.1-0.1-0.1l-0.7-0.7
	c-0.1,0-0.2,0.1-0.3,0.1c-0.4,0-0.9-0.1-1.5-0.3c-0.9,4.7,0.5,10.3,3.9,15.1c3.2,4.6,7.8,7.3,13.2,7.4c2.9,0.1,6.2-0.6,8.8-2.6
	L32,240.7z M16.9,237.6c-0.5-0.5-1.1-1.3-0.7-2c0.1-0.1,0.1-0.2,0.2-0.3c0-0.2,0.1-0.5,0.3-0.8c0.5-0.9,1.9-1.8,2.9-1.2
	c1.1,0.6,1.3,2.2,1.2,3.4c0,1-0.4,2.1-1.6,2.1C18.4,238.9,17.5,238.3,16.9,237.6z M23.6,243.3c-0.5-0.1-1.1-0.5-1.4-1
	c-0.1-0.2-0.2-0.4-0.2-0.6c-0.3-0.4-0.7-0.7-0.8-1.2c-0.1-0.5,0.2-1,0.6-1.4c0.8-0.7,2.1-1.3,3.1-0.7c0.9,0.5,0.9,1.7,0.8,2.6
	c0.1,0.6,0,1.2-0.4,1.6C24.9,243.2,24.4,243.5,23.6,243.3z M14.7,223.3c0.2-0.2,0.3-0.4,0.5-0.6c-0.2,0.1-0.6-0.2-0.6-0.2
	s-0.6-1.5-2.9-3.7c-2.3-2.2-4.7-2.6-4.7-2.6c3-0.3,8,5.4,8.2,6.2c0,0.1,0,0.2,0,0.3c0.3-0.4,0.5-0.7,0.7-1.1c-1-1.6-3-3.9-6.4-5.4
	c-4.7-2.1-7.7-0.8-5.6-0.2c2,0.6,1.9,3.4,4.9,6.5c1.8,1.9,3.5,2.4,4.6,2.5l-0.1-0.1C13.8,224.3,14.2,223.8,14.7,223.3z M14,223
	c0,0-1.9-0.7-4-2.4c-2-1.7-2.5-3-2.5-3C9.3,220,14,223,14,223z M10.7,223.2c-2.1-1-3.4-3.4-4.2-5.3c-0.9-1.9-2.4-2.1-2.4-2.1
	c1.4,0,2.5,1.5,4,4.1c1.5,2.6,4.9,3.9,4.9,3.9S12.8,224.2,10.7,223.2z M18.9,229.4l0.5,0.5c-0.1,0-0.2,0.1-0.3,0.1l-0.5-0.5
	C18.7,229.5,18.8,229.5,18.9,229.4z M19.3,230.2c0.1,0,0.2,0,0.3,0l1.1,1.1c0,0,0.5,0,1-0.4c-0.2-0.2-0.7-0.6-1.3-1.1
	c0.3-0.3,0.6-0.6,0.8-0.8l0.1-0.1c0.5-0.6,1.1-1.5,1-2.1l-0.2-0.2c0.1,0.6-0.5,1.6-1,2.1l-0.1,0.1c-0.2,0.2-0.5,0.6-0.8,0.8
	c-0.2-0.2-0.4-0.3-0.5-0.5c0.3-0.3,0.6-0.5,0.8-0.8l0.1-0.1c0.4-0.5,1-1.4,1-2l-0.2-0.1l2.3,1.7c0.6,0.5-0.2,1.8-0.8,2.5l-0.1,0.1
	c-0.6,0.7-1.7,1.7-2.3,1.2L19.3,230.2z M23.2,230.2c-1.1,1.4-2,1.6-2,1.6l0,0l0,0l20.1,15.4c0.6,0.5,1.4,0.7,1.9,0.1l0.1-0.1
	c0.5-0.6,0.2-1.3-0.4-1.8l-18.7-17.1C24.2,228.2,24.4,228.8,23.2,230.2z M42.2,247.1l-0.6,0.1l-20-15.7l0.6-0.3L42.2,247.1z
	 M17.1,222.8c-0.1,0.5-0.6,1.2-0.9,1.6l-0.1,0.1c-0.2,0.2-0.4,0.5-0.7,0.7c-0.6-0.5-0.9-0.8-0.9-0.8l-0.3,0.4l0.8,0.8
	c-0.1,0-0.1,0.1-0.2,0.1l-0.8-0.8c0.4-0.4,0.8-0.8,1.2-1.3c0.4-0.5,0.7-1,1.1-1.5L17.1,222.8z M15.2,225.8l3.5,3.4
	c-0.1,0-0.2,0.1-0.3,0.1l-3.4-3.4C15,225.9,15.1,225.8,15.2,225.8z M21.3,225.8c0,0.6-0.6,1.5-1,2l-0.1,0.1
	c-0.2,0.2-0.5,0.5-0.8,0.8c-1.3-1.1-2.7-2.4-3.7-3.3c0.3-0.2,0.5-0.5,0.7-0.7l0.1-0.1c0.3-0.4,0.8-1.1,0.9-1.6L21.3,225.8z"/>
<g>
	<path class="st8" d="M28.3,116.1h2.8v7h-1.5v-5.7h-1.3V116.1z"/>
	<path class="st9" d="M36.4,123.2c-1,0-1.7-0.3-2.2-1c-0.5-0.7-0.7-1.5-0.7-2.6c0-1.1,0.2-2,0.7-2.6c0.5-0.7,1.2-1,2.2-1
		c1,0,1.7,0.3,2.2,1c0.5,0.7,0.7,1.5,0.7,2.6c0,1.1-0.2,2-0.7,2.6C38.1,122.8,37.4,123.2,36.4,123.2z M35.4,117.9
		c-0.2,0.4-0.3,1-0.3,1.7c0,0.7,0.1,1.3,0.3,1.7c0.2,0.4,0.6,0.6,1,0.6c0.5,0,0.8-0.2,1-0.6c0.2-0.4,0.3-1,0.3-1.7
		c0-0.7-0.1-1.3-0.3-1.7c-0.2-0.4-0.6-0.6-1-0.6C36,117.2,35.6,117.4,35.4,117.9z"/>
	<path class="st10" d="M41.2,116.1H44v7h-1.5v-5.7h-1.3V116.1z"/>
	<path class="st11" d="M49.4,123.2c-1,0-1.7-0.3-2.2-1c-0.5-0.7-0.7-1.5-0.7-2.6c0-1.1,0.2-2,0.7-2.6c0.5-0.7,1.2-1,2.2-1
		c1,0,1.7,0.3,2.2,1c0.5,0.7,0.7,1.5,0.7,2.6c0,1.1-0.2,2-0.7,2.6C51.1,122.8,50.3,123.2,49.4,123.2z M48.3,117.9
		c-0.2,0.4-0.3,1-0.3,1.7c0,0.7,0.1,1.3,0.3,1.7c0.2,0.4,0.6,0.6,1,0.6c0.5,0,0.8-0.2,1-0.6c0.2-0.4,0.3-1,0.3-1.7
		c0-0.7-0.1-1.3-0.3-1.7c-0.2-0.4-0.6-0.6-1-0.6C48.9,117.2,48.6,117.4,48.3,117.9z"/>
	<path class="st12" d="M57.3,123.2c-1,0-1.7-0.3-2.2-1c-0.5-0.7-0.7-1.5-0.7-2.6c0-1.1,0.2-2,0.7-2.6c0.5-0.7,1.2-1,2.2-1
		c1,0,1.7,0.3,2.2,1c0.5,0.7,0.7,1.5,0.7,2.6c0,1.1-0.2,2-0.7,2.6C59,122.8,58.2,123.2,57.3,123.2z M56.2,117.9
		c-0.2,0.4-0.3,1-0.3,1.7c0,0.7,0.1,1.3,0.3,1.7c0.2,0.4,0.6,0.6,1,0.6c0.5,0,0.8-0.2,1-0.6c0.2-0.4,0.3-1,0.3-1.7
		c0-0.7-0.1-1.3-0.3-1.7c-0.2-0.4-0.6-0.6-1-0.6C56.8,117.2,56.5,117.4,56.2,117.9z"/>
	<path class="st13" d="M62,116.1h2.8v7h-1.5v-5.7H62V116.1z"/>
	<path class="st14" d="M70.2,123.2c-1,0-1.7-0.3-2.2-1c-0.5-0.7-0.7-1.5-0.7-2.6c0-1.1,0.2-2,0.7-2.6c0.5-0.7,1.2-1,2.2-1
		c1,0,1.7,0.3,2.2,1c0.5,0.7,0.7,1.5,0.7,2.6c0,1.1-0.2,2-0.7,2.6C71.9,122.8,71.2,123.2,70.2,123.2z M69.2,117.9
		c-0.2,0.4-0.3,1-0.3,1.7c0,0.7,0.1,1.3,0.3,1.7c0.2,0.4,0.6,0.6,1,0.6c0.5,0,0.8-0.2,1-0.6c0.2-0.4,0.3-1,0.3-1.7
		c0-0.7-0.1-1.3-0.3-1.7c-0.2-0.4-0.6-0.6-1-0.6C69.7,117.2,69.4,117.4,69.2,117.9z"/>
	<path class="st15" d="M75,116.1h2.8v7h-1.5v-5.7H75V116.1z"/>
	<path class="st16" d="M80,116.1h2.8v7h-1.5v-5.7H80V116.1z"/>
	<path class="st17" d="M88.2,123.2c-1,0-1.7-0.3-2.2-1c-0.5-0.7-0.7-1.5-0.7-2.6c0-1.1,0.2-2,0.7-2.6c0.5-0.7,1.2-1,2.2-1
		c1,0,1.7,0.3,2.2,1c0.5,0.7,0.7,1.5,0.7,2.6c0,1.1-0.2,2-0.7,2.6C89.9,122.8,89.1,123.2,88.2,123.2z M87.1,117.9
		c-0.2,0.4-0.3,1-0.3,1.7c0,0.7,0.1,1.3,0.3,1.7c0.2,0.4,0.6,0.6,1,0.6c0.5,0,0.8-0.2,1-0.6c0.2-0.4,0.3-1,0.3-1.7
		c0-0.7-0.1-1.3-0.3-1.7c-0.2-0.4-0.6-0.6-1-0.6C87.7,117.2,87.4,117.4,87.1,117.9z"/>
	<path class="st18" d="M92.9,116.1h2.8v7h-1.5v-5.7h-1.3V116.1z"/>
	<path class="st19" d="M98,116.1h2.8v7h-1.5v-5.7H98V116.1z"/>
	<path class="st8" d="M103,116.1h2.8v7h-1.5v-5.7H103V116.1z"/>
	<path class="st20" d="M111.2,123.2c-1,0-1.7-0.3-2.2-1c-0.5-0.7-0.7-1.5-0.7-2.6c0-1.1,0.2-2,0.7-2.6c0.5-0.7,1.2-1,2.2-1
		c1,0,1.7,0.3,2.2,1c0.5,0.7,0.7,1.5,0.7,2.6c0,1.1-0.2,2-0.7,2.6C112.8,122.8,112.1,123.2,111.2,123.2z M110.1,117.9
		c-0.2,0.4-0.3,1-0.3,1.7c0,0.7,0.1,1.3,0.3,1.7c0.2,0.4,0.6,0.6,1,0.6c0.5,0,0.8-0.2,1-0.6c0.2-0.4,0.3-1,0.3-1.7
		c0-0.7-0.1-1.3-0.3-1.7c-0.2-0.4-0.6-0.6-1-0.6C110.7,117.2,110.3,117.4,110.1,117.9z"/>
	<path class="st21" d="M119.1,123.2c-1,0-1.7-0.3-2.2-1c-0.5-0.7-0.7-1.5-0.7-2.6c0-1.1,0.2-2,0.7-2.6c0.5-0.7,1.2-1,2.2-1
		c1,0,1.7,0.3,2.2,1c0.5,0.7,0.7,1.5,0.7,2.6c0,1.1-0.2,2-0.7,2.6C120.7,122.8,120,123.2,119.1,123.2z M118,117.9
		c-0.2,0.4-0.3,1-0.3,1.7c0,0.7,0.1,1.3,0.3,1.7c0.2,0.4,0.6,0.6,1,0.6c0.5,0,0.8-0.2,1-0.6c0.2-0.4,0.3-1,0.3-1.7
		c0-0.7-0.1-1.3-0.3-1.7c-0.2-0.4-0.6-0.6-1-0.6C118.6,117.2,118.2,117.4,118,117.9z"/>
	<path class="st22" d="M29.7,128.1h2.8v7H31v-5.7h-1.3V128.1z"/>
	<path class="st23" d="M37.9,135.2c-1,0-1.7-0.3-2.2-1c-0.5-0.7-0.7-1.5-0.7-2.6c0-1.1,0.2-2,0.7-2.6c0.5-0.7,1.2-1,2.2-1
		c1,0,1.7,0.3,2.2,1c0.5,0.7,0.7,1.5,0.7,2.6c0,1.1-0.2,2-0.7,2.6C39.6,134.8,38.8,135.2,37.9,135.2z M36.8,129.9
		c-0.2,0.4-0.3,1-0.3,1.7c0,0.7,0.1,1.3,0.3,1.7c0.2,0.4,0.6,0.6,1,0.6c0.5,0,0.8-0.2,1-0.6c0.2-0.4,0.3-1,0.3-1.7
		c0-0.7-0.1-1.3-0.3-1.7c-0.2-0.4-0.6-0.6-1-0.6C37.4,129.2,37.1,129.4,36.8,129.9z"/>
	<path class="st24" d="M42.6,128.1h2.8v7H44v-5.7h-1.3V128.1z"/>
	<path class="st25" d="M47.7,128.1h2.8v7H49v-5.7h-1.3V128.1z"/>
	<path class="st26" d="M52.7,128.1h2.8v7H54v-5.7h-1.3V128.1z"/>
	<path class="st15" d="M60.9,135.2c-1,0-1.7-0.3-2.2-1c-0.5-0.7-0.7-1.5-0.7-2.6c0-1.1,0.2-2,0.7-2.6c0.5-0.7,1.2-1,2.2-1
		c1,0,1.7,0.3,2.2,1c0.5,0.7,0.7,1.5,0.7,2.6c0,1.1-0.2,2-0.7,2.6C62.5,134.8,61.8,135.2,60.9,135.2z M59.8,129.9
		c-0.2,0.4-0.3,1-0.3,1.7c0,0.7,0.1,1.3,0.3,1.7c0.2,0.4,0.6,0.6,1,0.6c0.5,0,0.8-0.2,1-0.6c0.2-0.4,0.3-1,0.3-1.7
		c0-0.7-0.1-1.3-0.3-1.7c-0.2-0.4-0.6-0.6-1-0.6C60.4,129.2,60,129.4,59.8,129.9z"/>
	<path class="st27" d="M68.8,135.2c-1,0-1.7-0.3-2.2-1c-0.5-0.7-0.7-1.5-0.7-2.6c0-1.1,0.2-2,0.7-2.6c0.5-0.7,1.2-1,2.2-1
		c1,0,1.7,0.3,2.2,1c0.5,0.7,0.7,1.5,0.7,2.6c0,1.1-0.2,2-0.7,2.6C70.4,134.8,69.7,135.2,68.8,135.2z M67.7,129.9
		c-0.2,0.4-0.3,1-0.3,1.7c0,0.7,0.1,1.3,0.3,1.7c0.2,0.4,0.6,0.6,1,0.6c0.5,0,0.8-0.2,1-0.6c0.2-0.4,0.3-1,0.3-1.7
		c0-0.7-0.1-1.3-0.3-1.7c-0.2-0.4-0.6-0.6-1-0.6C68.3,129.2,67.9,129.4,67.7,129.9z"/>
	<path class="st28" d="M73.5,128.1h2.8v7h-1.5v-5.7h-1.3V128.1z"/>
	<path class="st26" d="M81.7,135.2c-1,0-1.7-0.3-2.2-1c-0.5-0.7-0.7-1.5-0.7-2.6c0-1.1,0.2-2,0.7-2.6c0.5-0.7,1.2-1,2.2-1
		c1,0,1.7,0.3,2.2,1c0.5,0.7,0.7,1.5,0.7,2.6c0,1.1-0.2,2-0.7,2.6C83.4,134.8,82.7,135.2,81.7,135.2z M80.7,129.9
		c-0.2,0.4-0.3,1-0.3,1.7c0,0.7,0.1,1.3,0.3,1.7c0.2,0.4,0.6,0.6,1,0.6c0.5,0,0.8-0.2,1-0.6c0.2-0.4,0.3-1,0.3-1.7
		c0-0.7-0.1-1.3-0.3-1.7c-0.2-0.4-0.6-0.6-1-0.6C81.2,129.2,80.9,129.4,80.7,129.9z"/>
	<path class="st29" d="M89.6,135.2c-1,0-1.7-0.3-2.2-1c-0.5-0.7-0.7-1.5-0.7-2.6c0-1.1,0.2-2,0.7-2.6c0.5-0.7,1.2-1,2.2-1
		c1,0,1.7,0.3,2.2,1c0.5,0.7,0.7,1.5,0.7,2.6c0,1.1-0.2,2-0.7,2.6C91.3,134.8,90.6,135.2,89.6,135.2z M88.6,129.9
		c-0.2,0.4-0.3,1-0.3,1.7c0,0.7,0.1,1.3,0.3,1.7c0.2,0.4,0.6,0.6,1,0.6c0.5,0,0.8-0.2,1-0.6c0.2-0.4,0.3-1,0.3-1.7
		c0-0.7-0.1-1.3-0.3-1.7c-0.2-0.4-0.6-0.6-1-0.6C89.1,129.2,88.8,129.4,88.6,129.9z"/>
	<path class="st30" d="M94.3,128.1h2.8v7h-1.5v-5.7h-1.3V128.1z"/>
	<path class="st31" d="M32.1,147.2c-1,0-1.7-0.3-2.2-1c-0.5-0.7-0.7-1.5-0.7-2.6c0-1.1,0.2-2,0.7-2.6c0.5-0.7,1.2-1,2.2-1
		c1,0,1.7,0.3,2.2,1c0.5,0.7,0.7,1.5,0.7,2.6c0,1.1-0.2,2-0.7,2.6C33.8,146.8,33.1,147.2,32.1,147.2z M31.1,141.9
		c-0.2,0.4-0.3,1-0.3,1.7c0,0.7,0.1,1.3,0.3,1.7c0.2,0.4,0.6,0.6,1,0.6c0.5,0,0.8-0.2,1-0.6c0.2-0.4,0.3-1,0.3-1.7
		c0-0.7-0.1-1.3-0.3-1.7c-0.2-0.4-0.6-0.6-1-0.6C31.7,141.2,31.3,141.4,31.1,141.9z"/>
	<path class="st32" d="M40,147.2c-1,0-1.7-0.3-2.2-1c-0.5-0.7-0.7-1.5-0.7-2.6c0-1.1,0.2-2,0.7-2.6c0.5-0.7,1.2-1,2.2-1
		c1,0,1.7,0.3,2.2,1c0.5,0.7,0.7,1.5,0.7,2.6c0,1.1-0.2,2-0.7,2.6C41.7,146.8,41,147.2,40,147.2z M39,141.9c-0.2,0.4-0.3,1-0.3,1.7
		c0,0.7,0.1,1.3,0.3,1.7c0.2,0.4,0.6,0.6,1,0.6c0.5,0,0.8-0.2,1-0.6c0.2-0.4,0.3-1,0.3-1.7c0-0.7-0.1-1.3-0.3-1.7
		c-0.2-0.4-0.6-0.6-1-0.6C39.6,141.2,39.2,141.4,39,141.9z"/>
	<path class="st33" d="M44.8,140.1h2.8v7h-1.5v-5.7h-1.3V140.1z"/>
	<path class="st34" d="M53,147.2c-1,0-1.7-0.3-2.2-1c-0.5-0.7-0.7-1.5-0.7-2.6c0-1.1,0.2-2,0.7-2.6c0.5-0.7,1.2-1,2.2-1
		c1,0,1.7,0.3,2.2,1c0.5,0.7,0.7,1.5,0.7,2.6c0,1.1-0.2,2-0.7,2.6C54.6,146.8,53.9,147.2,53,147.2z M51.9,141.9
		c-0.2,0.4-0.3,1-0.3,1.7c0,0.7,0.1,1.3,0.3,1.7c0.2,0.4,0.6,0.6,1,0.6c0.5,0,0.8-0.2,1-0.6c0.2-0.4,0.3-1,0.3-1.7
		c0-0.7-0.1-1.3-0.3-1.7c-0.2-0.4-0.6-0.6-1-0.6C52.5,141.2,52.1,141.4,51.9,141.9z"/>
	<path class="st35" d="M57.7,140.1h2.8v7H59v-5.7h-1.3V140.1z"/>
	<path class="st36" d="M65.9,147.2c-1,0-1.7-0.3-2.2-1c-0.5-0.7-0.7-1.5-0.7-2.6c0-1.1,0.2-2,0.7-2.6c0.5-0.7,1.2-1,2.2-1
		c1,0,1.7,0.3,2.2,1c0.5,0.7,0.7,1.5,0.7,2.6c0,1.1-0.2,2-0.7,2.6C67.6,146.8,66.9,147.2,65.9,147.2z M64.9,141.9
		c-0.2,0.4-0.3,1-0.3,1.7c0,0.7,0.1,1.3,0.3,1.7c0.2,0.4,0.6,0.6,1,0.6c0.5,0,0.8-0.2,1-0.6c0.2-0.4,0.3-1,0.3-1.7
		c0-0.7-0.1-1.3-0.3-1.7c-0.2-0.4-0.6-0.6-1-0.6C65.4,141.2,65.1,141.4,64.9,141.9z"/>
	<path class="st17" d="M70.6,140.1h2.8v7H72v-5.7h-1.3V140.1z"/>
	<path class="st37" d="M75.7,140.1h2.8v7H77v-5.7h-1.3V140.1z"/>
	<path class="st38" d="M80.7,140.1h2.8v7H82v-5.7h-1.3V140.1z"/>
	<path class="st8" d="M88.9,147.2c-1,0-1.7-0.3-2.2-1c-0.5-0.7-0.7-1.5-0.7-2.6c0-1.1,0.2-2,0.7-2.6c0.5-0.7,1.2-1,2.2-1
		c1,0,1.7,0.3,2.2,1c0.5,0.7,0.7,1.5,0.7,2.6c0,1.1-0.2,2-0.7,2.6C90.6,146.8,89.8,147.2,88.9,147.2z M87.8,141.9
		c-0.2,0.4-0.3,1-0.3,1.7c0,0.7,0.1,1.3,0.3,1.7c0.2,0.4,0.6,0.6,1,0.6c0.5,0,0.8-0.2,1-0.6c0.2-0.4,0.3-1,0.3-1.7
		c0-0.7-0.1-1.3-0.3-1.7c-0.2-0.4-0.6-0.6-1-0.6C88.4,141.2,88.1,141.4,87.8,141.9z"/>
	<path class="st19" d="M93.6,140.1h2.8v7H95v-5.7h-1.3V140.1z"/>
	<path class="st39" d="M101.8,147.2c-1,0-1.7-0.3-2.2-1c-0.5-0.7-0.7-1.5-0.7-2.6c0-1.1,0.2-2,0.7-2.6c0.5-0.7,1.2-1,2.2-1
		c1,0,1.7,0.3,2.2,1c0.5,0.7,0.7,1.5,0.7,2.6c0,1.1-0.2,2-0.7,2.6C103.5,146.8,102.8,147.2,101.8,147.2z M100.8,141.9
		c-0.2,0.4-0.3,1-0.3,1.7c0,0.7,0.1,1.3,0.3,1.7c0.2,0.4,0.6,0.6,1,0.6c0.5,0,0.8-0.2,1-0.6c0.2-0.4,0.3-1,0.3-1.7
		c0-0.7-0.1-1.3-0.3-1.7c-0.2-0.4-0.6-0.6-1-0.6C101.3,141.2,101,141.4,100.8,141.9z"/>
	<path class="st23" d="M109.7,147.2c-1,0-1.7-0.3-2.2-1c-0.5-0.7-0.7-1.5-0.7-2.6c0-1.1,0.2-2,0.7-2.6c0.5-0.7,1.2-1,2.2-1
		c1,0,1.7,0.3,2.2,1c0.5,0.7,0.7,1.5,0.7,2.6c0,1.1-0.2,2-0.7,2.6C111.4,146.8,110.7,147.2,109.7,147.2z M108.7,141.9
		c-0.2,0.4-0.3,1-0.3,1.7c0,0.7,0.1,1.3,0.3,1.7c0.2,0.4,0.6,0.6,1,0.6c0.5,0,0.8-0.2,1-0.6c0.2-0.4,0.3-1,0.3-1.7
		c0-0.7-0.1-1.3-0.3-1.7c-0.2-0.4-0.6-0.6-1-0.6C109.2,141.2,108.9,141.4,108.7,141.9z"/>
	<path class="st40" d="M117.6,147.2c-1,0-1.7-0.3-2.2-1c-0.5-0.7-0.7-1.5-0.7-2.6c0-1.1,0.2-2,0.7-2.6c0.5-0.7,1.2-1,2.2-1
		c1,0,1.7,0.3,2.2,1c0.5,0.7,0.7,1.5,0.7,2.6c0,1.1-0.2,2-0.7,2.6C119.3,146.8,118.6,147.2,117.6,147.2z M116.6,141.9
		c-0.2,0.4-0.3,1-0.3,1.7c0,0.7,0.1,1.3,0.3,1.7c0.2,0.4,0.6,0.6,1,0.6c0.5,0,0.8-0.2,1-0.6c0.2-0.4,0.3-1,0.3-1.7
		c0-0.7-0.1-1.3-0.3-1.7c-0.2-0.4-0.6-0.6-1-0.6C117.1,141.2,116.8,141.4,116.6,141.9z"/>
	<path class="st41" d="M122.4,140.1h2.8v7h-1.5v-5.7h-1.3V140.1z"/>
	<path class="st39" d="M37.9,159.2c-1,0-1.7-0.3-2.2-1c-0.5-0.7-0.7-1.5-0.7-2.6c0-1.1,0.2-2,0.7-2.6c0.5-0.7,1.2-1,2.2-1
		c1,0,1.7,0.3,2.2,1c0.5,0.7,0.7,1.5,0.7,2.6c0,1.1-0.2,2-0.7,2.6C39.6,158.8,38.8,159.2,37.9,159.2z M36.8,153.9
		c-0.2,0.4-0.3,1-0.3,1.7c0,0.7,0.1,1.3,0.3,1.7c0.2,0.4,0.6,0.6,1,0.6c0.5,0,0.8-0.2,1-0.6c0.2-0.4,0.3-1,0.3-1.7
		c0-0.7-0.1-1.3-0.3-1.7c-0.2-0.4-0.6-0.6-1-0.6C37.4,153.2,37.1,153.4,36.8,153.9z"/>
	<path class="st42" d="M42.6,152.1h2.8v7H44v-5.7h-1.3V152.1z"/>
	<path class="st22" d="M47.7,152.1h2.8v7H49v-5.7h-1.3V152.1z"/>
	<path class="st40" d="M55.8,159.2c-1,0-1.7-0.3-2.2-1c-0.5-0.7-0.7-1.5-0.7-2.6c0-1.1,0.2-2,0.7-2.6c0.5-0.7,1.2-1,2.2-1
		c1,0,1.7,0.3,2.2,1c0.5,0.7,0.7,1.5,0.7,2.6c0,1.1-0.2,2-0.7,2.6C57.5,158.8,56.8,159.2,55.8,159.2z M54.8,153.9
		c-0.2,0.4-0.3,1-0.3,1.7c0,0.7,0.1,1.3,0.3,1.7c0.2,0.4,0.6,0.6,1,0.6c0.5,0,0.8-0.2,1-0.6c0.2-0.4,0.3-1,0.3-1.7
		c0-0.7-0.1-1.3-0.3-1.7c-0.2-0.4-0.6-0.6-1-0.6C55.4,153.2,55,153.4,54.8,153.9z"/>
	<path class="st43" d="M63.7,159.2c-1,0-1.7-0.3-2.2-1c-0.5-0.7-0.7-1.5-0.7-2.6c0-1.1,0.2-2,0.7-2.6c0.5-0.7,1.2-1,2.2-1
		c1,0,1.7,0.3,2.2,1c0.5,0.7,0.7,1.5,0.7,2.6c0,1.1-0.2,2-0.7,2.6C65.4,158.8,64.7,159.2,63.7,159.2z M62.7,153.9
		c-0.2,0.4-0.3,1-0.3,1.7c0,0.7,0.1,1.3,0.3,1.7c0.2,0.4,0.6,0.6,1,0.6c0.5,0,0.8-0.2,1-0.6c0.2-0.4,0.3-1,0.3-1.7
		c0-0.7-0.1-1.3-0.3-1.7c-0.2-0.4-0.6-0.6-1-0.6C63.3,153.2,62.9,153.4,62.7,153.9z"/>
	<path class="st44" d="M68.5,152.1h2.8v7h-1.5v-5.7h-1.3V152.1z"/>
	<path class="st45" d="M76.7,159.2c-1,0-1.7-0.3-2.2-1c-0.5-0.7-0.7-1.5-0.7-2.6c0-1.1,0.2-2,0.7-2.6c0.5-0.7,1.2-1,2.2-1
		c1,0,1.7,0.3,2.2,1c0.5,0.7,0.7,1.5,0.7,2.6c0,1.1-0.2,2-0.7,2.6C78.3,158.8,77.6,159.2,76.7,159.2z M75.6,153.9
		c-0.2,0.4-0.3,1-0.3,1.7c0,0.7,0.1,1.3,0.3,1.7c0.2,0.4,0.6,0.6,1,0.6c0.5,0,0.8-0.2,1-0.6c0.2-0.4,0.3-1,0.3-1.7
		c0-0.7-0.1-1.3-0.3-1.7c-0.2-0.4-0.6-0.6-1-0.6C76.2,153.2,75.8,153.4,75.6,153.9z"/>
	<path class="st46" d="M81.4,152.1h2.8v7h-1.5v-5.7h-1.3V152.1z"/>
	<path class="st13" d="M89.6,159.2c-1,0-1.7-0.3-2.2-1c-0.5-0.7-0.7-1.5-0.7-2.6c0-1.1,0.2-2,0.7-2.6c0.5-0.7,1.2-1,2.2-1
		c1,0,1.7,0.3,2.2,1c0.5,0.7,0.7,1.5,0.7,2.6c0,1.1-0.2,2-0.7,2.6C91.3,158.8,90.6,159.2,89.6,159.2z M88.6,153.9
		c-0.2,0.4-0.3,1-0.3,1.7c0,0.7,0.1,1.3,0.3,1.7c0.2,0.4,0.6,0.6,1,0.6c0.5,0,0.8-0.2,1-0.6c0.2-0.4,0.3-1,0.3-1.7
		c0-0.7-0.1-1.3-0.3-1.7c-0.2-0.4-0.6-0.6-1-0.6C89.1,153.2,88.8,153.4,88.6,153.9z"/>
</g>
<g>
	<path class="st6" d="M159.6,148c-0.3,0-0.5-0.1-0.6-0.3c-0.2-0.2-0.2-0.4-0.2-0.6v-22.5c0-0.3,0.1-0.5,0.2-0.6
		c0.2-0.2,0.4-0.2,0.6-0.2h9c2.3,0,4.2,0.4,5.8,1.1s2.8,1.8,3.7,3.2c0.9,1.4,1.3,3.1,1.4,5.2c0,1,0,1.9,0,2.7c0,0.8,0,1.6,0,2.6
		c-0.1,2.1-0.6,3.9-1.4,5.3c-0.8,1.4-2,2.5-3.6,3.1c-1.6,0.7-3.5,1-5.7,1L159.6,148L159.6,148z M165,143h3.6c1,0,1.8-0.2,2.5-0.5
		s1.2-0.8,1.5-1.5s0.5-1.6,0.5-2.6c0-0.7,0.1-1.3,0.1-1.8s0-1.1,0-1.6s0-1.1-0.1-1.8c0-1.6-0.5-2.7-1.2-3.5
		c-0.8-0.7-1.9-1.1-3.5-1.1h-3.5L165,143L165,143z"/>
	<path class="st6" d="M184.5,148c-0.3,0-0.5-0.1-0.6-0.3c-0.2-0.2-0.2-0.4-0.2-0.6v-22.5c0-0.3,0.1-0.5,0.2-0.6
		c0.2-0.2,0.4-0.2,0.6-0.2h16.2c0.3,0,0.5,0.1,0.6,0.2c0.2,0.2,0.2,0.4,0.2,0.6v3.3c0,0.3-0.1,0.5-0.2,0.6c-0.2,0.2-0.4,0.2-0.6,0.2
		h-11.1v4.7h10.3c0.3,0,0.5,0.1,0.6,0.3c0.2,0.2,0.2,0.4,0.2,0.6v3c0,0.2-0.1,0.4-0.2,0.6c-0.2,0.2-0.4,0.3-0.6,0.3h-10.3v4.8h11.3
		c0.3,0,0.5,0.1,0.6,0.2c0.2,0.2,0.2,0.4,0.2,0.6v3.3c0,0.2-0.1,0.4-0.2,0.6c-0.2,0.2-0.4,0.3-0.6,0.3H184.5L184.5,148z"/>
	<path class="st6" d="M212.6,148c-0.4,0-0.7-0.1-0.9-0.3s-0.4-0.5-0.5-0.7l-7.1-22.2c0-0.1-0.1-0.2-0.1-0.3c0-0.2,0.1-0.4,0.2-0.5
		s0.3-0.2,0.5-0.2h4.3c0.4,0,0.7,0.1,0.9,0.3c0.2,0.2,0.3,0.4,0.4,0.6l4.9,16l4.9-16c0.1-0.2,0.2-0.4,0.4-0.6s0.5-0.3,0.9-0.3h4.3
		c0.2,0,0.4,0.1,0.5,0.2s0.2,0.3,0.2,0.5c0,0.1,0,0.2-0.1,0.3l-6.9,22.2c-0.1,0.3-0.2,0.5-0.5,0.7c-0.2,0.2-0.6,0.3-1,0.3H212.6
		L212.6,148z"/>
	<path class="st6" d="M230.6,148c-0.3,0-0.5-0.1-0.6-0.3c-0.2-0.2-0.2-0.4-0.2-0.6v-22.5c0-0.3,0.1-0.5,0.2-0.6
		c0.2-0.2,0.4-0.2,0.6-0.2h16.2c0.3,0,0.5,0.1,0.6,0.2c0.2,0.2,0.2,0.4,0.2,0.6v3.3c0,0.3-0.1,0.5-0.2,0.6c-0.2,0.2-0.4,0.2-0.6,0.2
		h-11.1v4.7H246c0.3,0,0.5,0.1,0.6,0.3c0.2,0.2,0.2,0.4,0.2,0.6v3c0,0.2-0.1,0.4-0.2,0.6c-0.2,0.2-0.4,0.3-0.6,0.3h-10.3v4.8H247
		c0.3,0,0.5,0.1,0.6,0.2c0.2,0.2,0.2,0.4,0.2,0.6v3.3c0,0.2-0.1,0.4-0.2,0.6c-0.2,0.2-0.4,0.3-0.6,0.3H230.6L230.6,148z"/>
	<path class="st6" d="M252.8,148c-0.3,0-0.5-0.1-0.6-0.3c-0.2-0.2-0.2-0.4-0.2-0.6v-22.5c0-0.3,0.1-0.5,0.2-0.6
		c0.2-0.2,0.4-0.2,0.6-0.2h4.6c0.3,0,0.5,0.1,0.6,0.2c0.2,0.2,0.2,0.4,0.2,0.6v18.2h10.5c0.3,0,0.5,0.1,0.6,0.3
		c0.1,0.2,0.2,0.4,0.2,0.6v3.5c0,0.2-0.1,0.4-0.2,0.6c-0.1,0.2-0.4,0.3-0.6,0.3h-15.9V148z"/>
	<path class="st6" d="M282.3,148.4c-2.1,0-4-0.3-5.6-1s-2.8-1.7-3.7-3.1c-0.9-1.4-1.4-3.2-1.5-5.3c0-1,0-2,0-3s0-2,0-3
		c0.1-2.1,0.6-3.8,1.5-5.3c0.9-1.4,2.1-2.5,3.7-3.2c1.6-0.7,3.4-1.1,5.5-1.1s3.9,0.4,5.5,1.1s2.8,1.8,3.7,3.2s1.4,3.2,1.5,5.3
		c0,1,0.1,2,0.1,3s0,2-0.1,3c-0.1,2.1-0.6,3.9-1.4,5.3c-0.9,1.4-2.1,2.4-3.7,3.1C286.3,148,284.4,148.4,282.3,148.4L282.3,148.4z
		 M282.3,143.4c1.2,0,2.2-0.4,3-1.1c0.8-0.7,1.2-1.9,1.2-3.5c0-1,0.1-2,0.1-2.9c0-0.9,0-1.8-0.1-2.8c0-1.1-0.2-2-0.6-2.7
		s-0.9-1.2-1.5-1.5s-1.3-0.5-2.1-0.5c-0.8,0-1.5,0.2-2.1,0.5s-1.1,0.8-1.5,1.5s-0.6,1.6-0.6,2.7c0,1,0,1.9,0,2.8c0,0.9,0,1.9,0,2.9
		c0.1,1.6,0.5,2.8,1.3,3.5C280.1,143,281.1,143.4,282.3,143.4L282.3,143.4z"/>
	<path class="st6" d="M297.9,148c-0.3,0-0.5-0.1-0.6-0.3c-0.2-0.2-0.2-0.4-0.2-0.6v-22.5c0-0.3,0.1-0.5,0.2-0.6
		c0.2-0.2,0.4-0.2,0.6-0.2h9.7c1.9,0,3.6,0.3,5,0.9s2.5,1.5,3.3,2.7c0.8,1.2,1.2,2.7,1.2,4.5s-0.4,3.2-1.2,4.4
		c-0.8,1.2-1.9,2-3.3,2.6c-1.4,0.6-3.1,0.8-5,0.8h-4.1v7.6c0,0.2-0.1,0.4-0.3,0.6c-0.2,0.2-0.4,0.3-0.6,0.3
		C302.6,148,297.9,148,297.9,148z M303.4,134.8h4.1c1,0,1.8-0.3,2.4-0.8s0.9-1.3,0.9-2.3c0-0.9-0.3-1.6-0.8-2.2
		c-0.5-0.6-1.3-0.9-2.5-0.9h-4.1V134.8z"/>
	<path class="st6" d="M321.4,148c-0.3,0-0.5-0.1-0.6-0.3c-0.2-0.2-0.2-0.4-0.2-0.6v-22.5c0-0.3,0.1-0.5,0.2-0.6
		c0.2-0.2,0.4-0.2,0.6-0.2h16.2c0.3,0,0.5,0.1,0.6,0.2c0.2,0.2,0.2,0.4,0.2,0.6v3.3c0,0.3-0.1,0.5-0.2,0.6c-0.2,0.2-0.4,0.2-0.6,0.2
		h-11.1v4.7h10.3c0.3,0,0.5,0.1,0.6,0.3c0.2,0.2,0.2,0.4,0.2,0.6v3c0,0.2-0.1,0.4-0.2,0.6c-0.2,0.2-0.4,0.3-0.6,0.3h-10.3v4.8h11.3
		c0.3,0,0.5,0.1,0.6,0.2c0.2,0.2,0.2,0.4,0.2,0.6v3.3c0,0.2-0.1,0.4-0.2,0.6c-0.2,0.2-0.4,0.3-0.6,0.3H321.4L321.4,148z"/>
	<path class="st6" d="M343.6,148c-0.3,0-0.5-0.1-0.6-0.3c-0.2-0.2-0.2-0.4-0.2-0.6v-22.5c0-0.3,0.1-0.5,0.2-0.6
		c0.2-0.2,0.4-0.2,0.6-0.2h9.4c3,0,5.4,0.7,7.1,2.1s2.6,3.3,2.6,5.9c0,1.6-0.4,3-1.2,4.2c-0.8,1.1-1.8,2-3.1,2.6l4.8,8.5
		c0.1,0.1,0.1,0.3,0.1,0.4c0,0.2-0.1,0.4-0.2,0.5c-0.2,0.2-0.3,0.2-0.5,0.2H358c-0.4,0-0.8-0.1-1-0.3s-0.4-0.4-0.5-0.6l-4-7.6H349
		v7.7c0,0.2-0.1,0.4-0.3,0.6c-0.2,0.2-0.4,0.3-0.6,0.3h-4.5V148z M349,134.5h4c1.1,0,1.9-0.3,2.4-0.8s0.8-1.3,0.8-2.1
		c0-0.9-0.3-1.6-0.8-2.2c-0.5-0.6-1.4-0.8-2.5-0.8h-4L349,134.5L349,134.5z"/>
</g>
<g>
	<g>
		<g>
			<g>
				<path class="st47" d="M364.5,210h-16.6c-2.2,0-3.9,1.7-3.9,3.9v8.1c0,2.2,1.7,3.9,3.9,3.9h4.3l3.3,7.5l4.6-7.5h4.3
					c2.2,0,3.9-1.7,3.9-3.9v-8.1C368.4,211.7,366.6,210,364.5,210z"/>
			</g>
		</g>
		<g>
			<path class="st7" d="M353.9,214.6c0-0.4,0.3-0.8,0.8-0.8c0.5,0,0.8,0.3,0.8,0.7c0,0.4-0.3,0.8-0.8,0.8
				C354.2,215.3,353.9,215,353.9,214.6z M354,216.2h1.3v5.4H354V216.2z"/>
			<path class="st7" d="M358.4,215.9v0.3h1.5v1h-1.4v4.3h-1.3v-4.3h-0.9v-1h0.9v-0.3c0-1.1,0.7-1.9,1.9-1.9c0.4,0,0.9,0.1,1.1,0.3
				l-0.4,0.9c-0.2-0.1-0.4-0.2-0.7-0.2C358.6,215.1,358.4,215.4,358.4,215.9z"/>
		</g>
	</g>
	<g>
		<g>
			<g>
				<path class="st47" d="M418.5,217h-16.6c-2.2,0-3.9,1.7-3.9,3.9v8.1c0,2.2,1.7,3.9,3.9,3.9h4.3l3.3,7.5l4.6-7.5h4.3
					c2.2,0,3.9-1.7,3.9-3.9v-8.1C422.4,218.8,420.6,217,418.5,217z"/>
			</g>
		</g>
		<g>
			<path class="st7" d="M405.3,226.4h-4.2c0.2,0.8,0.8,1.3,1.7,1.3c0.6,0,1.1-0.2,1.5-0.6l0.7,0.8c-0.5,0.6-1.2,0.9-2.2,0.9
				c-1.8,0-3-1.2-3-2.8c0-1.6,1.2-2.8,2.8-2.8c1.6,0,2.7,1.1,2.7,2.8C405.4,226.1,405.4,226.3,405.3,226.4z M401.1,225.5h3.1
				c-0.1-0.8-0.7-1.3-1.5-1.3C401.8,224.2,401.2,224.8,401.1,225.5z"/>
			<path class="st7" d="M406.6,221.2h1.3v7.5h-1.3V221.2z"/>
			<path class="st7" d="M408.9,228.1l0.5-1c0.5,0.3,1.2,0.5,1.9,0.5c0.8,0,1.1-0.2,1.1-0.6c0-1-3.3-0.1-3.3-2.2c0-1,0.9-1.7,2.4-1.7
				c0.7,0,1.5,0.2,2,0.5l-0.5,1c-0.5-0.3-1-0.4-1.5-0.4c-0.8,0-1.1,0.3-1.1,0.6c0,1.1,3.3,0.1,3.3,2.2c0,1-0.9,1.7-2.4,1.7
				C410.3,228.8,409.4,228.5,408.9,228.1z"/>
			<path class="st7" d="M419.7,226.4h-4.2c0.2,0.8,0.8,1.3,1.7,1.3c0.6,0,1.1-0.2,1.5-0.6l0.7,0.8c-0.5,0.6-1.2,0.9-2.2,0.9
				c-1.8,0-3-1.2-3-2.8c0-1.6,1.2-2.8,2.8-2.8c1.6,0,2.7,1.1,2.7,2.8C419.8,226.1,419.8,226.3,419.7,226.4z M415.5,225.5h3.1
				c-0.1-0.8-0.7-1.3-1.5-1.3C416.2,224.2,415.6,224.8,415.5,225.5z"/>
		</g>
	</g>
	<g>
		<g>
			<g>
				<path class="st47" d="M401.3,259.7h-16.6c-2.2,0-3.9,1.7-3.9,3.9v8.1c0,2.2,1.7,3.9,3.9,3.9h4.3l3.3,7.5l4.6-7.5h4.3
					c2.2,0,3.9-1.7,3.9-3.9v-8.1C405.2,261.5,403.4,259.7,401.3,259.7z"/>
			</g>
		</g>
		<g>
			<path class="st7" d="M388.5,265.7v0.3h1.5v1h-1.4v4.3h-1.3V267h-0.9v-1h0.9v-0.3c0-1.1,0.7-1.9,1.9-1.9c0.4,0,0.9,0.1,1.1,0.3
				l-0.4,0.9c-0.2-0.1-0.4-0.2-0.7-0.2C388.8,264.8,388.5,265.1,388.5,265.7z"/>
			<path class="st7" d="M390.3,268.7c0-1.6,1.2-2.8,2.9-2.8c1.7,0,2.9,1.1,2.9,2.8c0,1.6-1.2,2.8-2.9,2.8
				C391.5,271.5,390.3,270.3,390.3,268.7z M394.8,268.7c0-1-0.7-1.7-1.6-1.7c-0.9,0-1.6,0.7-1.6,1.7c0,1,0.7,1.7,1.6,1.7
				C394.1,270.4,394.8,269.7,394.8,268.7z"/>
			<path class="st7" d="M400.4,265.9v1.2c-0.1,0-0.2,0-0.3,0c-1,0-1.6,0.6-1.6,1.7v2.6h-1.3V266h1.2v0.8
				C398.8,266.2,399.5,265.9,400.4,265.9z"/>
		</g>
	</g>
	<g>
		<g>
			<g>
				<path class="st47" d="M376.7,283.9h-16.6c-2.2,0-3.9,1.7-3.9,3.9v8.1c0,2.2,1.7,3.9,3.9,3.9h4.3l3.3,7.5l4.6-7.5h4.3
					c2.2,0,3.9-1.7,3.9-3.9v-8.1C380.6,285.7,378.8,283.9,376.7,283.9z"/>
			</g>
		</g>
		<g>
			<path class="st7" d="M366.2,289.9h4.7v1h-4.7V289.9z M366.2,292.4h4.7v1h-4.7V292.4z"/>
		</g>
	</g>
	<g>
		<g>
			<g>
				<path class="st47" d="M391.4,194.6h-16.6c-2.2,0-3.9,1.7-3.9,3.9v8.1c0,2.2,1.7,3.9,3.9,3.9h4.3l3.3,7.5l4.6-7.5h4.3
					c2.2,0,3.9-1.7,3.9-3.9v-8.1C395.3,196.4,393.6,194.6,391.4,194.6z"/>
			</g>
		</g>
		<g>
			<path class="st7" d="M379.2,198h2.4v1h-1.2v7.4h1.2v1h-2.4V198z"/>
			<path class="st7" d="M384.8,207.5v-1h1.1V199h-1.1v-1h2.4v9.5H384.8z"/>
		</g>
	</g>
	<g>
		<g>
			<g>
				<path class="st47" d="M419.1,181.4h-16.6c-2.2,0-3.9,1.7-3.9,3.9v8.1c0,2.2,1.7,3.9,3.9,3.9h4.3l3.3,7.5l4.6-7.5h4.3
					c2.2,0,3.9-1.7,3.9-3.9v-8.1C423,183.2,421.3,181.4,419.1,181.4z"/>
			</g>
		</g>
		<g>
			<path class="st7" d="M407.4,189.5c0.4,0.1,0.6,0.4,0.6,1v1.9c0,0.5,0.2,0.8,0.7,0.8h0.2v1h-0.5c-1.1,0-1.7-0.6-1.7-1.6v-2.1
				c0-0.3-0.2-0.5-0.5-0.5H406v-1h0.3c0.3,0,0.5-0.2,0.5-0.5v-2.1c0-1.1,0.6-1.6,1.7-1.6h0.5v1h-0.2c-0.5,0-0.7,0.3-0.7,0.8v1.9
				C408,189.1,407.8,189.4,407.4,189.5z"/>
			<path class="st7" d="M415.1,189v1h-0.3c-0.3,0-0.4,0.2-0.4,0.5v2.1c0,1.1-0.6,1.6-1.7,1.6h-0.5v-1h0.2c0.5,0,0.8-0.3,0.8-0.8
				v-1.9c0-0.6,0.2-0.9,0.6-1c-0.4-0.1-0.6-0.4-0.6-1v-1.9c0-0.5-0.2-0.8-0.8-0.8h-0.2v-1h0.5c1.1,0,1.7,0.6,1.7,1.6v2.1
				c0,0.3,0.2,0.5,0.4,0.5H415.1z"/>
		</g>
	</g>
	<g>
		<g>
			<g>
				<path class="st47" d="M430.7,244.5h-16.6c-2.2,0-3.9,1.7-3.9,3.9v8.1c0,2.2,1.7,3.9,3.9,3.9h4.3l3.3,7.5l4.6-7.5h4.3
					c2.2,0,3.9-1.7,3.9-3.9v-8.1C434.6,246.3,432.8,244.5,430.7,244.5z"/>
			</g>
		</g>
		<g>
			<path class="st7" d="M421.7,250.5c0-0.5,0.4-0.8,0.8-0.8c0.5,0,0.8,0.3,0.8,0.8c0,0.5-0.4,0.8-0.8,0.8
				C422.1,251.3,421.7,251,421.7,250.5z M423.4,254.3c0,0.2-0.1,0.4-0.2,0.9l-0.5,1.4h-0.8l0.4-1.5c-0.3-0.1-0.5-0.4-0.5-0.7
				c0-0.5,0.4-0.8,0.8-0.8C423,253.5,423.4,253.8,423.4,254.3z"/>
		</g>
	</g>
	<g>
		<g>
			<g>
				<path class="st47" d="M347.1,277.6h16.6c2.2,0,3.9-1.7,3.9-3.9v-8.1c0-2.2-1.7-3.9-3.9-3.9h-4.3l-1.3-7.5l-6.7,7.5h-4.3
					c-2.2,0-3.9,1.7-3.9,3.9v8.1C343.2,275.8,345,277.6,347.1,277.6z"/>
			</g>
		</g>
		<g>
			<path class="st7" d="M353,268l-3.5,1.3l3.5,1.3v1.1l-4.7-1.8v-1.1l4.7-1.8V268z"/>
			<path class="st7" d="M356.6,264.3h1.1l-3.3,9.5h-1.1L356.6,264.3z"/>
			<path class="st7" d="M362.7,268.8v1.1l-4.7,1.8v-1.1l3.5-1.3L358,268v-1.1L362.7,268.8z"/>
		</g>
	</g>
	<g>
		<g>
			<g>
				<g>
					<path class="st47" d="M372.1,252h16.6c2.2,0,3.9-1.7,3.9-3.9V240c0-2.2-1.7-3.9-3.9-3.9h-4.3l0.9-7.5l-8.9,7.5h-4.3
						c-2.2,0-3.9,1.7-3.9,3.9v8.1C368.2,250.3,370,252,372.1,252z"/>
				</g>
			</g>
		</g>
		<g>
			<path class="st7" d="M377,246.9c0-0.4,0.3-0.8,0.8-0.8c0.5,0,0.8,0.3,0.8,0.8c0,0.4-0.3,0.8-0.8,0.8
				C377.4,247.7,377,247.3,377,246.9z M377.1,240.5h1.5l-0.3,4.7h-1L377.1,240.5z"/>
			<path class="st7" d="M379.9,242.3h4.7v1h-4.7V242.3z M379.9,244.8h4.7v1h-4.7V244.8z"/>
		</g>
	</g>
</g>
<path class="st7" d="M252.1,299.9c-5.6-2-8.5-6-7.7-10.7c0.8-4.5,4.7-8.3,8.5-8.3c2.3,0,4.2-0.8,5.6-2.4c1.7-2,2.2-4.6,1.9-6.4
	c-0.3-1.8-2.4-3.4-4.1-4.4c0.4-0.4,0.8-0.8,1.1-1.4c1.9,1.1,4.4,3,4.8,5.5c0.4,2.6-0.5,5.7-2.3,7.8c-1.7,2-4.1,3-6.9,3
	c-3,0-6.2,3.2-6.8,6.8c-0.7,3.9,1.7,7.1,6.6,8.8c6.9,2.4,14.7,0.3,21-5.6c5.4-5.1,8.2-11.8,6.9-16.3c-0.8-2.6-2.8-4.2-6.1-4.8
	c-5.8-1.1-10.2-5.7-10-10.2c0.1-2.1,1.5-7,12.2-7.9c8.6-0.7,8.6-7.5,8.6-7.6l1.7,0c0.1,2.4-1.7,8.7-10.1,9.4
	c-6.6,0.5-10.4,2.8-10.6,6.3c-0.2,3.7,3.7,7.5,8.6,8.5c5,0.9,6.8,3.8,7.5,6.1c1.5,5.1-1.5,12.5-7.4,18.1
	C268.1,300.3,259.6,302.6,252.1,299.9z M241.7,271.4C241.7,271.4,241.7,271.3,241.7,271.4c-0.2-0.2-0.4-0.3-0.6-0.4l-0.3-0.2l0,0
	l-6.5-5.3l-10.7-8.7c-1.5-1.1-5.8-7.1-0.3-14.4c5.5-7.4,12.4-5,13.9-3.8l11,7.5l7.3,5l0,0l0.3,0.2c0.2,0.1,0.4,0.3,0.6,0.4
	c0,0,0,0,0,0c0.2,0.2,0.4,0.3,0.6,0.5c0,0,0,0,0,0c0.2,0.2,0.4,0.3,0.6,0.5l0,0c2.5,2.5,4.1,6.7-1.4,14.1c-4.4,5.9-8.1,6.9-11,6.2
	c0,0,0,0,0,0c-0.2-0.1-0.5-0.1-0.7-0.2c0,0,0,0-0.1,0c-0.2-0.1-0.4-0.2-0.7-0.3c0,0-0.1,0-0.1,0c-0.2-0.1-0.4-0.2-0.6-0.3
	c0,0-0.1,0-0.1,0c-0.2-0.1-0.4-0.2-0.6-0.3c0,0,0,0-0.1,0C242,271.6,241.9,271.5,241.7,271.4z M238.7,252.9l6.2,4.6
	c0.6-0.5,1.4-0.6,2-0.2l6.3,4.7c0.6,0.4,0.7,1.2,0.4,2l2.1,1.6c3.1-4.4,3.7-7.6,3.1-10l-11.9-8.9c-0.3,0.2-0.7,0.3-1,0.5
	c-11.8-7.6-13.7-4.2-13.1-4c0.8,0.2,3.6,1.3,8.5,4.4c0.7,0.4,1.3,0.8,2,1.3C241.5,249.8,240,251.2,238.7,252.9z M252.4,264.2
	l0.2-0.3c0.4-0.6,0.3-1.4-0.3-1.8l-5.4-4c-0.6-0.4-1.4-0.3-1.8,0.3l-0.2,0.3c-0.4,0.6-0.3,1.4,0.3,1.8l5.4,4
	C251.2,264.9,252,264.8,252.4,264.2z M245.8,272.4c2.5,0,5.5-1.4,8.9-5.8l-2.1-1.6c-0.6,0.5-1.4,0.6-2,0.2l-6.3-4.7
	c-0.6-0.4-0.7-1.2-0.4-2l-6.1-4.6c-2,3-3.1,6.4-3.4,9.9L245.8,272.4z M255.1,264.1c0,0,1.2-0.8,2.1-3.3c0.8-2.5,0.3-5-2.8-7.5
	c-3.1-2.4-5.7-4.3-8-5.9c-0.9,0.4-1.8,0.9-2.8,1.6c3.9,2.7,7.3,5.7,9.6,8.6C255.1,259.9,255.1,264.1,255.1,264.1z"/>
</svg>
