<?xml version="1.0" encoding="utf-8"?>
<!-- Generator: Adobe Illustrator 24.1.3, SVG Export Plug-In . SVG Version: 6.00 Build 0)  -->
<svg version="1.1" id="Layer_1" xmlns="http://www.w3.org/2000/svg" xmlns:xlink="http://www.w3.org/1999/xlink" x="0px" y="0px"
	 viewBox="0 0 32 32" style="enable-background:new 0 0 32 32;" xml:space="preserve">
<style type="text/css">
	.st0{fill:#2C1001;}
</style>
<g>
	<path class="st0" d="M23.1,10.6c1.2-1.2,3.4-3.4,5.5-5.4c0.4-0.4,0.5-0.9,0.3-1.4S28.2,3,27.7,3h-8H2.9v2.6h13.6
		c-0.3,0.3-0.6,0.6-0.9,0.9c-1,0.9-1.7,1.7-2.3,2.2c-1.1,1.1-1.6,1.6-1.3,2.5c0.1,0.3,0.6,0.7,0.6,0.7c0.2,0.1,0.5,0.4,0.9,0.8
		L2.9,23.3V27l12.5-12.5c0.6,0.6,1.3,1.3,2,2.1L5,29h3.7l10.6-10.6c0.6,0.7,1.3,1.3,2,2L12.7,29h3.7l7.7-7.7c0.5-0.5,0.5-1.3,0-1.8
		c-5-5.2-7.5-7.8-8.9-9c1.1-1.1,3.2-3.1,5.2-5.1h4.2C24.3,5.7,24,6,23.7,6.3c-1,0.9-1.7,1.7-2.3,2.2c-1.1,1.1-1.5,1.6-1.3,2.5
		c0.1,0.3,0.6,0.7,0.6,0.7c0.6,0.5,5.7,5.7,8.4,8.5v-3.7C26,13.4,24.2,11.5,23.1,10.6z"/>
	<path class="st0" d="M30.4,1.6v28.9H1.6V1.6H30.4 M32,0h-1.6H1.6H0v1.6v28.9V32h1.6h28.9H32v-1.6V1.6V0L32,0z"/>
</g>
</svg>
