<?xml version="1.0" encoding="utf-8"?>
<!-- Generator: Adobe Illustrator 27.2.0, SVG Export Plug-In . SVG Version: 6.00 Build 0)  -->
<svg version="1.1" id="Layer_1" xmlns="http://www.w3.org/2000/svg" xmlns:xlink="http://www.w3.org/1999/xlink" x="0px" y="0px"
	 viewBox="0 0 76 15" style="enable-background:new 0 0 76 15;" xml:space="preserve">
<style type="text/css">
	.st0{fill-rule:evenodd;clip-rule:evenodd;}
</style>
<g>
	<g>
		<path class="st0" d="M26.9,10.6c-0.5,1.9-2,3.1-4.2,3.1c-2.8,0-4.8-2-4.8-5c0-3.2,2.3-5.5,5.6-5.5c1.3,0,2.2,0.3,2.7,0.5l0.3,2.9
			h-0.2c-1.2-1.8-2.2-3-3.1-3c-1.2,0-2.1,1.4-2.1,3.7c0,2.9,1.5,4,3.3,4c1,0,1.9-0.3,2.3-0.8L26.9,10.6z"/>
		<path class="st0" d="M35,8.5c0-2.9-0.6-4.9-2.1-4.9s-2.1,2-2.1,4.9s0.6,4.8,2.1,4.8C34.3,13.3,35,11.3,35,8.5z M27.5,8.5
			c0-2.8,2.5-5.3,5.4-5.3c3,0,5.4,2.4,5.4,5.3s-2.4,5.2-5.4,5.2S27.5,11.3,27.5,8.5z"/>
		<path class="st0" d="M43.5,13.4h-4.2l0,0c0.3-1,0.5-1.8,0.5-3.5V7.6c0-1.5-0.3-2.4-1-3.2l0,0L43,3.2v2h0.1
			c0.5-0.8,1.6-1.9,3.4-1.9c1.8,0,3,1.1,3,2.8v3.8c0,1.7,0.1,2.5,0.5,3.5l0,0h-4.2l0,0c0.3-1,0.5-1.9,0.5-3.5V6.2
			c0-0.8-0.4-1.5-1.4-1.5c-0.7,0-1.4,0.4-1.8,1v4.1C43,11.5,43.2,12.3,43.5,13.4L43.5,13.4z"/>
		<path class="st0" d="M51.6,10.9V4h-1.1V3.8l4.2-2.6h0.2v2.3h7.3v0.4h-7.3v6.8c0,1.2,0.6,1.6,1.5,1.6c0.7,0,1.1-0.3,1.2-0.3
			l0.1,0.1c-0.7,0.8-1.8,1.6-3.4,1.6C52.7,13.7,51.6,12.9,51.6,10.9z"/>
		<path class="st0" d="M58.4,13.4L58.4,13.4c0.3-1,0.5-1.8,0.5-3.6V7.5c0-1.5,0.1-2.7-0.6-3.6l0,0l3.8-0.4v2
			c0.8-0.9,1.8-2.5,3.6-2.3l-0.4,3.4h-0.1c-0.5-0.7-1.6-1.2-2.1-1.2c-0.3,0-0.6,0.2-0.9,0.6v3.8c0,1.7,0.2,2.5,0.5,3.5l0,0
			L58.4,13.4L58.4,13.4z"/>
		<path class="st0" d="M71,11.7V8.3c-1.4,0.4-2.2,1.4-2.2,2.3c0,0.8,0.5,1.3,1.4,1.3C70.5,11.9,70.8,11.8,71,11.7z M71.1,12.1
			c-0.6,0.8-1.5,1.6-2.8,1.6c-1.2,0-2.3-0.9-2.3-2.4c0-2.2,2.8-2.9,5-3.4V6.8c0-1.2-0.5-1.7-1.9-1.7c-0.8,0-1.7,0.2-2.6,0.5
			l-0.1-0.1c1-1.2,2.6-2.2,4.7-2.2c2.2,0,3.2,1.1,3.2,2.6v5.2c0,0.5,0.2,0.9,0.9,0.9c0.2,0,0.5-0.1,0.8-0.2v0.1
			c-0.3,0.7-1,1.9-2.7,1.9C72,13.7,71.2,13,71.1,12.1z"/>
		<path class="st0" d="M54.2,3.9h7.9V3.4h-7.9V3.9z"/>
	</g>
	<path class="st0" d="M7.7,7.2h6.4c0.1,0,0.1-0.1,0.1-0.1V6.8c0-0.1,0-0.1-0.1-0.1c-3-0.8-5.4-3.1-6.2-6.1c0-0.1-0.1-0.1-0.1-0.1
		H7.7c-0.1,0-0.1,0.1-0.1,0.1L7.7,7.2C7.5,7.1,7.6,7.2,7.7,7.2z"/>
	<path class="st0" d="M7.7,14.6h0.2c0.1,0,0.1,0,0.1-0.1c0.8-3,3.1-5.4,6.1-6.2c0.1,0,0.1-0.1,0.1-0.1V8.1C14.2,8,14.1,8,14.1,8H7.7
		C7.6,8,7.6,8.1,7.6,8.1L7.7,14.6C7.5,14.6,7.6,14.6,7.7,14.6z"/>
	<path class="st0" d="M6.5,14.6h0.2c0.1,0,0.1-0.1,0.1-0.1V8.1C6.8,8,6.7,8,6.7,8H0.2C0.1,8,0.1,8.1,0.1,8.1v0.2
		c0,0.1,0,0.1,0.1,0.1c3,0.8,5.4,3.1,6.2,6.1C6.4,14.6,6.4,14.6,6.5,14.6z"/>
	<path class="st0" d="M0.2,7.2h6.4c0.1,0,0.1-0.1,0.1-0.1V0.6c0-0.1-0.1-0.1-0.1-0.1H6.4c-0.1,0-0.1,0-0.1,0.1
		C5.5,3.6,3.2,6,0.2,6.8c-0.1,0-0.1,0.1-0.1,0.1V7C0.1,7.1,0.1,7.2,0.2,7.2z"/>
</g>
</svg>
