<?xml version="1.0" encoding="utf-8"?>
<!-- Generator: Adobe Illustrator 27.2.0, SVG Export Plug-In . SVG Version: 6.00 Build 0)  -->
<svg version="1.1" id="Layer_1" xmlns="http://www.w3.org/2000/svg" xmlns:xlink="http://www.w3.org/1999/xlink" x="0px" y="0px"
	 viewBox="0 0 75 20" style="enable-background:new 0 0 75 20;" xml:space="preserve">
<style type="text/css">
	.st0{filter:url(#Adobe_OpacityMaskFilter);}
	.st1{fill-rule:evenodd;clip-rule:evenodd;fill:#FFFFFF;}
	.st2{mask:url(#mask-2_00000049201941347910507170000016199392922767256704_);fill-rule:evenodd;clip-rule:evenodd;fill:#ED1941;}
</style>
<g id="Page-1">
	<g id="loreal_m_pdp_shine_d2b_01a-copy" transform="translate(-30.000000, -21.000000)">
		<g id="Mobile_Nav_Background">
			<g id="nav">
				<g id="_x2D_logo" transform="translate(30.000000, 21.000000)">
					<g id="Clip-2">
					</g>
					<defs>
						<filter id="Adobe_OpacityMaskFilter" filterUnits="userSpaceOnUse" x="0" y="0" width="75" height="20">
							<feColorMatrix  type="matrix" values="1 0 0 0 0  0 1 0 0 0  0 0 1 0 0  0 0 0 1 0"/>
						</filter>
					</defs>
					
						<mask maskUnits="userSpaceOnUse" x="0" y="0" width="75" height="20" id="mask-2_00000049201941347910507170000016199392922767256704_">
						<g class="st0">
							<polygon id="path-1_00000108290817115314421580000008573620508856424095_" class="st1" points="0,0 75,0 75,20 0,20 							
								"/>
						</g>
					</mask>
					<path id="Fill-1" class="st2" d="M9.8,11.5H1.5V1.8H0v10.8h9.8V11.5z M8.1,5.7l2-3.8H8.5L7,5.7H8.1z M18.2,12.2
						c-3,0-5.5-2.4-5.5-5.4c0-2.9,2.4-5.5,5.7-5.5c3.2,0,5.5,2.6,5.5,5.5C23.9,9.8,21.3,12.2,18.2,12.2z M18.3,0
						c-4.4,0-7.4,3.1-7.4,6.8c0,3.9,3.3,6.7,7.4,6.7c4.1,0,7.4-2.7,7.4-6.7C25.7,3.1,22.6,0,18.3,0z M34.3,6.8h-5.1V3.1h5.2
						c1.2,0,1.9,0.6,2.1,1.3c0.2,0.5,0.1,1.1-0.2,1.6C35.9,6.7,35.1,6.8,34.3,6.8z M35.6,8.1C38,7.5,38.3,5.6,38.3,5
						c-0.1-1.9-1.5-3.1-3.8-3.1h-6.8v10.8h1.6V8.1h4.4l3.3,4.5h2C38.9,12.7,36.5,9.6,35.6,8.1z M55.2,8.5l2.6-5.2l2.6,5.2H55.2z
						 M56.8,1.8l-5.5,10.8h1.9l1.4-2.8h6.6l1.4,2.8h1.8L58.9,1.8H56.8z M75,11.5h-8.3V1.8h-1.5v10.8H75V11.5z M48.6,0.1h-2.8
						l-1.3,1.5L48.6,0.1z M48.5,7.7V6.5h-6V3h8V1.8h-9.7v10.8h9.7v-1.2h-8V7.7H48.5z M43.5,19.8h0.8v-3.1h-0.8V19.8z M43.5,16.3h0.8
						v-0.8h-0.8V16.3z M49.4,17.5l-1.7-0.3c-0.3-0.1-0.7-0.2-0.7-0.5c0-0.7,0.8-0.8,1.3-0.8c0.7,0,1.4,0.2,1.4,0.9h0.7
						c0-0.5-0.2-1.4-2.3-1.4c-1.4,0-2,0.7-2,1.3c0,0.8,0.9,1,1.2,1l1.2,0.2c1,0.2,1.2,0.3,1.2,0.8c0,0.6-1,0.7-1.5,0.7
						c-0.7,0-1.6-0.2-1.6-1h-0.7c0,0.4,0.1,0.8,0.6,1.1c0.3,0.2,0.7,0.4,1.8,0.4c1,0,2.3-0.3,2.3-1.3C50.7,18,50.1,17.7,49.4,17.5z
						 M31.3,18.1l1.1-1.9h0l1,1.9H31.3z M31.9,15.5l-2.5,4.3h0.9l0.7-1.3h2.7l0.7,1.3h1l-2.4-4.3H31.9z M37.6,17.5h1.6
						c0.7,0,1.2-0.2,1.2-0.8c0-0.5-0.5-0.7-1.2-0.7h-1.7V17.5z M41.5,19.8h-0.9l-1.2-1.8c0,0,0,0-0.1,0h0c0,0,0,0,0,0h-1.7v1.8h-0.8
						v-4.3h2.7c1.1,0,1.8,0.5,1.8,1.2c0,0.5-0.3,1-1.2,1.2L41.5,19.8z M27.1,17.5h-1.6V16h1.7c0.7,0,1.2,0.2,1.2,0.7
						C28.3,17.3,27.8,17.5,27.1,17.5z M27.4,15.5h-2.7v4.3h0.8V18h1.9c1.3,0,1.8-0.7,1.8-1.3C29.2,16.1,28.5,15.5,27.4,15.5z"/>
				</g>
			</g>
		</g>
	</g>
</g>
</svg>
