<svg id="Layer_1" data-name="Layer 1" xmlns="http://www.w3.org/2000/svg" viewBox="0 0 664 664"><defs><style>.cls-1{fill:#0bc4f8;}.cls-2{fill:#001c25;}.cls-3{fill:#01c8ff;}</style></defs><rect class="cls-1" x="-0.32" y="-0.08" width="664.23" height="664.23"/><rect class="cls-2" x="33.34" y="33.58" width="596.9" height="596.9"/><path class="cls-3" d="M226.3,358c-4.1,0-8.21,0-12.32-.16-3.95-.16-7.75-.31-11.22-.79v98.46H156.45V204h72.7a268,268,0,0,1,31.92,1.58,124.16,124.16,0,0,1,24.34,4.74c17.23,5.21,30.5,13.59,39.82,25.28,9.33,11.38,13.91,26.08,13.91,43.94a71.19,71.19,0,0,1-7.43,32.71A68.83,68.83,0,0,1,309.59,337c-9.64,6.8-21.34,12-35.4,15.65S244.32,358,226.3,358Zm-23.54-39.67q4,.48,10,.95c4.11.16,8.38.16,12.8.16,12.33,0,22.76-1,31.14-3s15.17-4.74,20.23-8.38a29.84,29.84,0,0,0,11.06-13,38.58,38.58,0,0,0,3.48-16.59,36.5,36.5,0,0,0-5.06-19.28c-3.48-5.38-9.33-9.48-17.7-12.49a68.94,68.94,0,0,0-16.28-3.32,202.42,202.42,0,0,0-23.71-1.1H202.76ZM463.2,402.6a14.28,14.28,0,0,0-3.32-9.64,28.51,28.51,0,0,0-8.69-6.17,94,94,0,0,0-12.49-4.58c-4.74-1.11-9.64-2.37-14.85-3.64A173.21,173.21,0,0,1,405,372.41a58.57,58.57,0,0,1-16-9.16A39.38,39.38,0,0,1,378.18,349c-2.69-5.69-4.11-12.64-4.11-20.86,0-10.27,1.89-19.12,5.53-26.55a53.37,53.37,0,0,1,14.85-18.49,62.17,62.17,0,0,1,21.66-10.9,93.62,93.62,0,0,1,26.07-3.64,167.66,167.66,0,0,1,58,9.8v36.19c-4.11-1.42-8.53-2.69-13.12-3.79s-9.16-2.21-13.9-3-9.33-1.58-14.07-2a95.91,95.91,0,0,0-13.12-.79,53.74,53.74,0,0,0-13.43,1.42,25.58,25.58,0,0,0-8.85,4.11,15.33,15.33,0,0,0-4.9,5.69,17.6,17.6,0,0,0-1.42,7,16.15,16.15,0,0,0,3.16,10.12,23.06,23.06,0,0,0,9.17,6.32,85,85,0,0,0,12.17,4.11c4.26,1.11,8.53,2.05,12.48,3.16a168,168,0,0,1,18.81,5.37,60.25,60.25,0,0,1,16.91,9,42.3,42.3,0,0,1,12.32,14.86q4.74,9,4.74,23.23c0,10.27-1.89,19.28-5.84,26.86a52.65,52.65,0,0,1-16.12,19.13A71.81,71.81,0,0,1,460,456.49,126.66,126.66,0,0,1,428,460.28a169,169,0,0,1-31.13-2.69c-9.17-1.89-16.91-4.11-22.92-6.95V414.77A137.33,137.33,0,0,0,401.09,422a152.43,152.43,0,0,0,23.23,1.9,94.52,94.52,0,0,0,15.33-1.1,43.47,43.47,0,0,0,12.33-4,23.07,23.07,0,0,0,8.22-6.63,16.32,16.32,0,0,0,3-9.64Z"/></svg>