<?xml version="1.0" encoding="utf-8"?>
<!-- Generator: Adobe Illustrator 27.2.0, SVG Export Plug-In . SVG Version: 6.00 Build 0)  -->
<svg version="1.1" id="Layer_1" xmlns="http://www.w3.org/2000/svg" xmlns:xlink="http://www.w3.org/1999/xlink" x="0px" y="0px"
	 viewBox="0 0 664 664" style="enable-background:new 0 0 664 664;" xml:space="preserve">
<style type="text/css">
	.st0{fill:#001C25;}
	.st1{fill:#01C8FF;}
</style>
<rect x="-0.3" y="-0.1" class="st0" width="664.2" height="664.2"/>
<rect x="33.3" y="33.6" class="st0" width="596.9" height="596.9"/>
<path class="st1" d="M226.3,358c-4.1,0-8.2,0-12.3-0.2c-3.9-0.2-7.8-0.3-11.2-0.8v98.5h-46.3V204h72.7c10.7-0.1,21.3,0.4,31.9,1.6
	c8.3,0.8,16.4,2.4,24.3,4.7c17.2,5.2,30.5,13.6,39.8,25.3c9.3,11.4,13.9,26.1,13.9,43.9c0.2,11.3-2.4,22.6-7.4,32.7
	c-5.2,9.9-12.8,18.4-22.1,24.8c-9.6,6.8-21.3,12-35.4,15.6S244.3,358,226.3,358z M202.8,318.3c2.7,0.3,6,0.6,10,1
	c4.1,0.2,8.4,0.2,12.8,0.2c12.3,0,22.8-1,31.1-3s15.2-4.7,20.2-8.4c4.9-3.2,8.7-7.7,11.1-13c2.4-5.2,3.6-10.9,3.5-16.6
	c0.1-6.8-1.6-13.4-5.1-19.3c-3.5-5.4-9.3-9.5-17.7-12.5c-5.3-1.8-10.7-2.9-16.3-3.3c-7.9-0.8-15.8-1.2-23.7-1.1h-26L202.8,318.3z
	 M463.2,402.6c0.1-3.5-1.1-6.9-3.3-9.6c-2.5-2.6-5.4-4.7-8.7-6.2c-4-1.8-8.2-3.4-12.5-4.6c-4.7-1.1-9.6-2.4-14.9-3.6
	c-6.4-1.7-12.7-3.7-18.9-6.2c-5.8-2.2-11.2-5.3-16-9.2c-4.7-3.9-8.4-8.7-10.8-14.2c-2.7-5.7-4.1-12.6-4.1-20.9
	c0-10.3,1.9-19.1,5.5-26.5c3.5-7.2,8.6-13.5,14.9-18.5c6.4-5,13.8-8.7,21.7-10.9c8.5-2.4,17.3-3.7,26.1-3.6
	c19.8-0.2,39.4,3.1,58,9.8v36.2c-4.1-1.4-8.5-2.7-13.1-3.8s-9.2-2.2-13.9-3s-9.3-1.6-14.1-2c-4.4-0.6-8.7-0.8-13.1-0.8
	c-4.5-0.1-9,0.4-13.4,1.4c-3.2,0.8-6.2,2.2-8.9,4.1c-2.1,1.5-3.8,3.4-4.9,5.7c-0.9,2.2-1.4,4.6-1.4,7c-0.1,3.6,1,7.2,3.2,10.1
	c2.5,2.8,5.6,5,9.2,6.3c3.9,1.7,8,3,12.2,4.1c4.3,1.1,8.5,2,12.5,3.2c6.4,1.4,12.6,3.2,18.8,5.4c6.1,2.1,11.8,5.1,16.9,9
	c5.2,3.9,9.4,9,12.3,14.9c3.2,6,4.7,13.7,4.7,23.2c0,10.3-1.9,19.3-5.8,26.9c-3.8,7.6-9.3,14.1-16.1,19.1
	c-7.6,5.3-16.1,9.1-25.2,11.1c-10.5,2.6-21.2,3.9-32,3.8c-10.4,0.1-20.9-0.8-31.1-2.7c-9.2-1.9-16.9-4.1-22.9-7v-35.9
	c8.8,3.3,17.9,5.8,27.1,7.2c7.7,1.2,15.4,1.9,23.2,1.9c5.1,0.1,10.3-0.3,15.3-1.1c4.3-0.7,8.4-2.1,12.3-4c3.2-1.5,6-3.8,8.2-6.6
	C462.2,409.4,463.2,406,463.2,402.6L463.2,402.6z"/>
</svg>
