<?xml version="1.0" encoding="utf-8"?>
<!-- Generator: Adobe Illustrator 24.1.3, SVG Export Plug-In . SVG Version: 6.00 Build 0)  -->
<svg version="1.1" id="Layer_1" xmlns="http://www.w3.org/2000/svg" xmlns:xlink="http://www.w3.org/1999/xlink" x="0px" y="0px"
	 viewBox="0 0 134.9 135" style="enable-background:new 0 0 134.9 135;" xml:space="preserve">
<style type="text/css">
	.st0{fill:#FFFFFF;}
</style>
<g id="Graphic_Elements">
	<circle cx="67.4" cy="67.5" r="67.5"/>
	<path class="st0" d="M49.1,38.7c2.5,0,5,0.2,7.4,0.7c2,0.4,4,1.2,5.7,2.3c1.6,1.1,2.9,2.5,3.7,4.3c0.9,2.1,1.4,4.4,1.3,6.6
		c0.1,2.5-0.6,5-1.9,7.1c-1.5,2-3.5,3.7-5.8,4.7c3.1,0.8,5.9,2.6,7.8,5.3c1.8,2.7,2.7,5.9,2.6,9.1c0.1,2.6-0.5,5.1-1.6,7.4
		c-1.1,2-2.6,3.8-4.5,5.1c-2,1.4-4.1,2.3-6.4,2.9c-2.4,0.7-4.9,1-7.4,1H22.5V38.7H49.1z M47.5,61.5c1.9,0.1,3.9-0.4,5.5-1.5
		c1.4-1,2.1-2.8,2.1-5.2c0-1.1-0.2-2.2-0.7-3.2c-0.4-0.8-1.1-1.5-1.9-2c-0.8-0.5-1.8-0.8-2.7-1c-1.1-0.2-2.1-0.3-3.2-0.3H34.9v13.2
		H47.5z M48.2,85.6c1.2,0,2.3-0.1,3.5-0.4c1-0.2,2-0.6,2.9-1.2c0.8-0.6,1.5-1.3,2-2.3c0.5-1.1,0.8-2.4,0.8-3.7c0-2.9-0.8-5-2.5-6.2
		c-1.9-1.3-4.2-2-6.5-1.9H34.9v15.6L48.2,85.6z"/>
	<path class="st0" d="M87.6,85.4c1.7,1.6,4.1,2.5,7.3,2.5c2.1,0.1,4.1-0.5,5.9-1.7c1.4-0.8,2.4-2.1,3-3.6h9.9
		c-1.6,4.9-4,8.5-7.3,10.6c-3.6,2.2-7.7,3.3-11.8,3.2c-3,0-6-0.5-8.7-1.6c-2.5-1-4.8-2.5-6.6-4.4c-1.8-2-3.2-4.3-4.1-6.8
		c-1-2.8-1.5-5.8-1.5-8.7c0-2.9,0.5-5.8,1.5-8.6c1.9-5.2,5.9-9.3,11-11.4c2.7-1.1,5.6-1.7,8.6-1.7c3.2-0.1,6.3,0.6,9.1,2
		c2.5,1.3,4.7,3.2,6.3,5.5c1.7,2.3,2.9,5,3.6,7.8c0.7,3,1,6.1,0.8,9.1H84.8C84.8,80.7,85.9,83.8,87.6,85.4z M100.5,63.9
		c-1.3-1.5-3.6-2.3-6.4-2.3c-1.5-0.1-3.1,0.3-4.5,0.9c-1.1,0.6-2.1,1.3-2.8,2.3c-0.7,0.8-1.2,1.8-1.5,2.9c-0.3,0.9-0.4,1.8-0.5,2.7
		h18.3C103,68,102.1,65.7,100.5,63.9z"/>
	<rect x="82.5" y="42.5" class="st0" width="22.9" height="5.6"/>
</g>
</svg>
