<?xml version="1.0" encoding="utf-8"?>
<!-- Generator: Adobe Illustrator 24.1.3, SVG Export Plug-In . SVG Version: 6.00 Build 0)  -->
<svg version="1.1" id="Layer_1" xmlns="http://www.w3.org/2000/svg" xmlns:xlink="http://www.w3.org/1999/xlink" x="0px" y="0px"
	 viewBox="0 0 134.9 135" style="enable-background:new 0 0 134.9 135;" xml:space="preserve">
<style type="text/css">
	.st0{fill:#FEFEFE;}
</style>
<g id="Graphic_Elements">
	<circle cx="67.5" cy="67.5" r="67.5"/>
	<path class="st0" d="M72.7,58.3c1.1-1.2,2-2.5,3.2-3.6c3.3-3.2,7.8-5,12.5-4.9c2.7,0,5.3,0.3,7.8,1c5.9,1.7,9.3,5.7,10.9,11.5
		c1.1,4.3,1.6,8.7,1.4,13.1c0,9.3,0,18.7,0,28c0,0.9-0.2,1.1-1.1,1.1c-4.8,0-9.6,0-14.4,0c-0.8,0-1-0.3-1-1c0-9,0-17.9,0-26.8
		c0.1-2.2-0.2-4.5-0.8-6.6c-1.2-4-4-6-8.2-5.8c-5.7,0.3-8.7,3.1-9.4,8.9c-0.2,1.4-0.3,2.8-0.3,4.2c0,8.6,0,17.3,0,25.9
		c0,0.9-0.2,1.1-1.1,1.1c-4.8,0-9.7,0-14.5,0c-0.8,0-1-0.2-1-1c0-17.1,0-34.2,0-51.3c0-0.8,0.3-1,1.1-1c4.6,0,9.2,0,13.8,0
		c0.8,0,1.1,0.3,1,1.1C72.7,54.2,72.7,56.3,72.7,58.3z"/>
	<path class="st0" d="M46.4,77.8c0,8.5,0,16.9,0,25.4c0,0.9-0.2,1.2-1.2,1.2c-4.8,0-9.6,0-14.4,0c-0.8,0-1-0.2-1-1
		c0-17.1,0-34.2,0-51.3c0-0.7,0.2-1,0.9-1c4.9,0,9.7,0,14.6,0c0.9,0,1.1,0.3,1.1,1.2C46.4,60.7,46.4,69.3,46.4,77.8z"/>
	<path class="st0" d="M47.7,34.1c0,5.3-4.2,9.6-9.5,9.6c-5.3,0-9.6-4.2-9.6-9.5c0-5.3,4.2-9.6,9.5-9.6c0,0,0,0,0.1,0
		C43.4,24.6,47.7,28.9,47.7,34.1z"/>
</g>
</svg>
