<?xml version="1.0" encoding="utf-8"?>
<!-- Generator: Adobe Illustrator 27.2.0, SVG Export Plug-In . SVG Version: 6.00 Build 0)  -->
<svg version="1.1" id="Layer_1" xmlns="http://www.w3.org/2000/svg" xmlns:xlink="http://www.w3.org/1999/xlink" x="0px" y="0px"
	 viewBox="0 0 134.9 135" style="enable-background:new 0 0 134.9 135;" xml:space="preserve">
<path d="M118.8,0H16.1C7.2,0,0,7.2,0,16.1v102.6c0,8.9,7.2,16.1,16.1,16.1h102.6c8.9,0,16.1-7.2,16.1-16.1V16.1
	C134.9,7.2,127.7,0,118.8,0z M44.6,81.2c0,8.8,0,17.5,0,26.2c0,0.9-0.2,1.2-1.2,1.2c-5,0-9.9,0-14.9,0c-0.9,0-1-0.2-1-1
	c0-17.7,0-35.3,0-53c0-0.7,0.2-1,0.9-1c5.1,0,10,0,15.1,0c0.9,0,1.2,0.3,1.2,1.2C44.6,63.6,44.6,72.4,44.6,81.2z M36.1,46
	c-5.5,0-9.9-4.3-9.9-9.8s4.3-9.9,9.8-9.9c0,0,0,0,0.1,0c5.3,0,9.8,4.5,9.8,9.8C45.9,41.6,41.6,46,36.1,46z M108.7,78.7
	c0,9.6,0,19.3,0,28.9c0,0.9-0.2,1.2-1.2,1.2c-5,0-9.9,0-14.9,0c-0.9,0-1-0.3-1-1c0-9.3,0-18.5,0-27.7c0.1-2.3-0.2-4.6-0.9-6.8
	c-1.2-4.2-4.2-6.2-8.5-6c-5.9,0.3-9,3.2-9.7,9.2c-0.2,1.5-0.3,2.9-0.3,4.3c0,8.9,0,17.9,0,26.8c0,0.9-0.2,1.2-1.2,1.2
	c-5,0-10,0-15,0c-0.9,0-1-0.2-1-1c0-17.7,0-35.3,0-53c0-0.9,0.3-1,1.2-1c4.8,0,9.5,0,14.2,0c0.9,0,1.2,0.3,1,1.2
	c0.2,2.1,0.2,4.3,0.2,6.4c1.2-1.2,2.1-2.6,3.3-3.7c3.4-3.3,8.1-5.1,12.9-5.1c2.8,0,5.5,0.3,8.1,1c6.1,1.8,9.6,5.9,11.2,11.9
	C108.4,69.6,108.9,74.1,108.7,78.7z"/>
</svg>
