<?xml version="1.0" encoding="utf-8"?>
<!-- Generator: Adobe Illustrator 24.1.3, SVG Export Plug-In . SVG Version: 6.00 Build 0)  -->
<svg version="1.1" id="Layer_1" xmlns="http://www.w3.org/2000/svg" xmlns:xlink="http://www.w3.org/1999/xlink" x="0px" y="0px"
	 viewBox="0 0 134.9 135" style="enable-background:new 0 0 134.9 135;" xml:space="preserve">
<style type="text/css">
	.st0{fill:#010101;}
</style>
<g>
	<path class="st0" d="M132.3,28c2.1,2.9,2.6,6.2,2.6,9.6c0,19.8,0.1,39.6,0,59.5c0,11.4-7.6,18.9-18.9,19c-32.3,0.1-64.6,0.1-96.8,0
		c-11.5,0-19-7.6-19-19.2C0,77.2,0,57.6,0,38c0-3.5,0.6-6.8,2.6-10.2c8.2,7,16.2,13.8,24.2,20.7c12.2,10.5,24.5,21,36.7,31.5
		c3.1,2.6,4.9,2.5,8.2-0.4c19.8-17,39.6-33.9,59.4-50.9C131.5,28.5,131.9,28.3,132.3,28z"/>
	<path class="st0" d="M9.7,21.1c3.1-1.7,6.2-2.1,9.3-2.1c32.3,0,64.6,0,96.8,0c0.2,0,0.4,0,0.6,0c2.9,0.1,6.5,0.1,8.1,2.2
		c0.7,0.9-3.1,3.3-5,4.8C102.9,40.5,86,54.9,69.2,69.4c-1.1,0.9-1.7,1.5-3.2,0.3C47.6,53.8,29.2,38,10.8,22.2
		C10.5,22,10.2,21.6,9.7,21.1z"/>
</g>
</svg>
