<?xml version="1.0" encoding="utf-8"?>
<!-- Generator: Adobe Illustrator 27.2.0, SVG Export Plug-In . SVG Version: 6.00 Build 0)  -->
<svg version="1.1" id="Capa_1" xmlns="http://www.w3.org/2000/svg" xmlns:xlink="http://www.w3.org/1999/xlink" x="0px" y="0px"
	 viewBox="0 0 261.8 150" style="enable-background:new 0 0 261.8 150;" xml:space="preserve">
<style type="text/css">
	.st0{fill:#A67C00;}
</style>
<g>
	<g>
		<polygon class="st0" points="49,117.2 44.2,105.9 44.2,105.9 42.9,105.9 48.4,118.9 48.4,118.9 48.7,118.9 54.3,105.9 54.3,105.9 
			53.8,105.9 		"/>
		<polygon class="st0" points="61.7,118.9 69.4,118.9 69.4,118.5 62.9,118.5 62.9,112.4 68.5,112.4 68.5,112 62.9,112 62.9,106.3 
			69.4,106.3 69.4,105.9 61.7,105.9 		"/>
		<polygon class="st0" points="87.3,117 77.6,105.9 77.6,105.9 77.3,105.9 77.3,118.9 77.8,118.9 77.8,107.9 87.4,118.9 87.4,118.9 
			87.7,118.9 87.7,105.9 87.3,105.9 		"/>
		<polygon class="st0" points="95.4,106.3 99.7,106.3 99.7,118.9 100.9,118.9 100.9,106.3 105.2,106.3 105.2,105.9 95.4,105.9 		"/>
		<rect x="113" y="105.9" class="st0" width="1.2" height="13"/>
		<g>
			<path class="st0" d="M126.7,112.1l-1.1-0.6c-1-0.5-1.6-1-2-1.4c-0.3-0.4-0.5-1-0.5-1.6c0-0.8,0.3-1.4,0.8-1.8s1.2-0.7,2-0.7
				c1,0,1.9,0.3,2.8,0.8l0,0v-0.6l0,0c-0.8-0.4-1.7-0.7-2.9-0.7c-1.1,0-2,0.3-2.8,0.9c-0.7,0.6-1.1,1.4-1.1,2.4c0,0.8,0.2,1.5,0.7,2
				c0.5,0.6,1.2,1.1,2.3,1.7l1,0.6c0.9,0.5,1.5,0.9,1.9,1.4c0.3,0.5,0.5,1,0.5,1.6c0,0.8-0.3,1.4-0.7,1.9c-0.5,0.5-1.2,0.7-2.2,0.7
				c-1.2,0-2.3-0.4-3.4-1.1l0,0v0.7l0,0c1,0.6,2.2,0.9,3.4,0.9c1.3,0,2.3-0.3,3-0.8s1.1-1.4,1.1-2.6c0-0.8-0.2-1.4-0.6-2
				C128.6,113.2,127.8,112.7,126.7,112.1"/>
			<path class="st0" d="M143.1,118.7c-1.6,0-2.9-0.6-3.9-1.8c-0.9-1.2-1.4-2.7-1.4-4.5s0.5-3.4,1.4-4.5c0.9-1.2,2.2-1.8,3.9-1.8
				c1.6,0,2.9,0.6,3.9,1.8c0.9,1.2,1.4,2.7,1.4,4.5s-0.5,3.4-1.4,4.5C146,118.1,144.7,118.7,143.1,118.7 M149.6,112.4
				c0-2-0.6-3.6-1.9-4.8s-2.8-1.9-4.7-1.9s-3.4,0.6-4.7,1.9c-1.2,1.3-1.9,2.9-1.9,4.8c0,2,0.6,3.6,1.9,4.8c1.2,1.3,2.8,1.9,4.7,1.9
				c1.9,0,3.4-0.6,4.7-1.9C149,116,149.6,114.4,149.6,112.4"/>
			<path class="st0" d="M166.5,114.3c0,1.4-0.4,2.5-1.1,3.3c-0.7,0.7-1.7,1.1-3,1.1c-2.6,0-3.9-1.5-3.9-4.4v-8.4h-1.2v8.4
				c0,1.5,0.4,2.7,1.3,3.6c0.9,0.8,2.1,1.2,3.6,1.2s2.7-0.4,3.5-1.2c0.8-0.8,1.2-2,1.2-3.6v-8.4h-0.5L166.5,114.3L166.5,114.3z"/>
		</g>
		<polygon class="st0" points="175.1,118.9 182.8,118.9 182.8,118.5 176.2,118.5 176.2,112.4 181.9,112.4 181.9,112 176.2,112 
			176.2,106.3 182.8,106.3 182.8,105.9 175.1,105.9 		"/>
		<g>
			<path class="st0" d="M197.4,111.9c0.8-0.6,1.2-1.4,1.2-2.6c0-1.1-0.4-2-1.2-2.6s-1.9-0.8-3.2-0.8h-3.6v13h1.2v-12.6h2.4
				c1,0,1.8,0.3,2.3,0.8c0.6,0.5,0.8,1.3,0.8,2.2c0,1-0.3,1.7-0.8,2.2c-0.6,0.5-1.3,0.8-2.3,0.8h-1.5v0.3l5.3,6.3l0,0h1.5l-5.3-6.2
				C195.6,112.7,196.7,112.4,197.4,111.9"/>
			<path class="st0" d="M212.3,118.7c-1.6,0-2.9-0.6-3.9-1.8c-0.9-1.2-1.4-2.7-1.4-4.5s0.5-3.4,1.4-4.5c0.9-1.2,2.2-1.8,3.9-1.8
				s2.9,0.6,3.9,1.8c0.9,1.2,1.4,2.7,1.4,4.5s-0.5,3.4-1.4,4.5C215.2,118.1,213.9,118.7,212.3,118.7 M217,107.6
				c-1.2-1.3-2.8-1.9-4.7-1.9s-3.4,0.6-4.7,1.9c-1.2,1.3-1.9,2.9-1.9,4.8c0,2,0.6,3.6,1.9,4.8c1.2,1.3,2.8,1.9,4.7,1.9
				s3.4-0.6,4.7-1.9c1.2-1.3,1.9-2.9,1.9-4.8C218.8,110.5,218.2,108.8,217,107.6"/>
		</g>
		<rect x="143.3" y="120" class="st0" width="6.5" height="0.4"/>
	</g>
	<g>
		<rect x="86.9" y="140.4" class="st0" width="0.9" height="8.7"/>
		<polygon class="st0" points="99.7,147.7 93.4,140.4 93.3,140.4 93.1,140.4 93.1,149.1 93.5,149.1 93.5,141.8 99.8,149 99.8,149.1 
			100.1,149.1 100.1,140.4 99.7,140.4 		"/>
		<polygon class="st0" points="105.4,149.1 110.5,149.1 110.5,148.7 106.2,148.7 106.2,144.8 109.9,144.8 109.9,144.4 106.2,144.4 
			106.2,140.7 110.5,140.7 110.5,140.4 105.4,140.4 		"/>
		<polygon class="st0" points="121.9,149.1 127.1,149.1 127.1,148.7 122.8,148.7 122.8,144.8 126.5,144.8 126.5,144.4 122.8,144.4 
			122.8,140.7 127.1,140.7 127.1,140.4 121.9,140.4 		"/>
		<g>
			<path class="st0" d="M135,144.5l-0.7-0.4c-0.6-0.3-1.1-0.6-1.3-0.9c-0.2-0.3-0.3-0.6-0.3-1c0-0.5,0.2-0.9,0.5-1.2
				s0.8-0.4,1.3-0.4c0.7,0,1.3,0.2,1.8,0.5h0.1v-0.5l0,0c-0.5-0.3-1.2-0.4-1.9-0.4c-0.7,0-1.3,0.2-1.8,0.6c-0.5,0.4-0.7,0.9-0.7,1.6
				c0,0.5,0.2,1,0.5,1.4s0.8,0.7,1.5,1.1l0.7,0.4c0.6,0.3,1,0.6,1.2,0.9c0.2,0.3,0.3,0.6,0.3,1c0,0.5-0.2,0.9-0.5,1.2
				s-0.8,0.4-1.5,0.4c-0.8,0-1.5-0.2-2.2-0.7l-0.1-0.1v0.5l0,0c0.7,0.4,1.4,0.6,2.3,0.6c0.8,0,1.5-0.2,2-0.5
				c0.5-0.4,0.7-0.9,0.7-1.7c0-0.5-0.1-1-0.4-1.3C136.2,145.3,135.7,144.9,135,144.5"/>
		</g>
		<polygon class="st0" points="140.9,140.7 143.7,140.7 143.7,149.1 144.6,149.1 144.6,140.7 147.4,140.7 147.4,140.4 140.9,140.4 
					"/>
		<path class="st0" d="M155.6,145.4h-3.4l1.7-3.8L155.6,145.4z M154.3,140.4h-0.2l-3.9,8.6v0.1h0.4l1.5-3.3h3.7l1.5,3.3h0.9
			L154.3,140.4L154.3,140.4z"/>
		<polygon class="st0" points="160.9,140.7 163.7,140.7 163.7,149.1 164.6,149.1 164.6,140.7 167.4,140.7 167.4,140.4 160.9,140.4 
					"/>
		<polygon class="st0" points="172.5,149.1 177.6,149.1 177.6,148.7 173.3,148.7 173.3,144.8 177,144.8 177,144.4 173.3,144.4 
			173.3,140.7 177.6,140.7 177.6,140.4 172.5,140.4 		"/>
		<g>
			<path class="st0" d="M187,145.6c-0.3-0.4-0.8-0.7-1.5-1.1l-0.7-0.4c-0.6-0.3-1.1-0.6-1.3-0.9c-0.2-0.3-0.3-0.6-0.3-1
				c0-0.5,0.2-0.9,0.5-1.2s0.8-0.4,1.3-0.4c0.7,0,1.3,0.2,1.8,0.5h0.1v-0.5l0,0c-0.5-0.3-1.2-0.4-1.9-0.4s-1.3,0.2-1.8,0.6
				c-0.5,0.4-0.7,0.9-0.7,1.6c0,0.5,0.2,1,0.5,1.4s0.8,0.7,1.5,1.1l0.7,0.4c0.6,0.3,1,0.6,1.2,0.9c0.2,0.3,0.3,0.6,0.3,1
				c0,0.5-0.2,0.9-0.5,1.2s-0.8,0.4-1.5,0.4c-0.8,0-1.5-0.2-2.2-0.7l-0.1-0.1v0.5l0,0c0.7,0.4,1.4,0.6,2.3,0.6c0.8,0,1.5-0.2,2-0.5
				c0.5-0.4,0.7-0.9,0.7-1.7C187.5,146.4,187.3,146,187,145.6"/>
		</g>
		<polygon class="st0" points="78.6,147.8 77.4,144.8 79.2,140.5 79.2,140.4 78.8,140.4 77.2,144.3 75.5,140.4 75.5,140.4 
			74.6,140.4 76.7,145.4 75.7,147.8 72.5,140.4 72.5,140.4 71.6,140.4 75.3,149 75.3,149.1 75.5,149.1 76.9,145.8 78.3,149 
			78.3,149.1 78.5,149.1 82.2,140.5 82.2,140.4 81.8,140.4 		"/>
	</g>
	<polygon class="st0" points="172.9,0 143,69.2 131.9,43.8 150.9,0 149.7,0 131.3,42.4 121.1,18.8 129.2,0 128,0 120.5,17.4 
		112.9,0 110.6,0 130.1,45.2 119.8,69.2 89.7,0 87.4,0 118.9,72.9 119.3,72.9 130.7,46.6 142.1,72.9 142.5,72.9 174.1,0 	"/>
</g>
</svg>
