<?xml version="1.0" encoding="UTF-8"?>
<svg xmlns="http://www.w3.org/2000/svg" viewBox="0 0 24.21 24.21">
  <defs>
    <style>
      .cls-1 {
        fill: #9f9f9f;
      }

      .cls-2 {
        isolation: isolate;
      }

      .cls-3 {
        mix-blend-mode: multiply;
      }
    </style>
  </defs>
  <g class="cls-2">
    <g id="Layer_1" data-name="Layer 1">
      <g class="cls-3">
        <path class="cls-1" d="m23.76,11.03L13.19.46c-.61-.61-1.6-.61-2.2,0,0,0,0,0,0,0l-2.2,2.2,2.78,2.78c.67-.23,1.41-.05,1.91.44.5.5.67,1.25.44,1.92l2.68,2.68c.65-.22,1.4-.08,1.92.44.72.72.72,1.9,0,2.62,0,0,0,0,0,0-.72.72-1.9.73-2.62,0-.53-.53-.69-1.33-.4-2.02l-2.5-2.5v6.59c.18.09.35.21.49.35.72.72.72,1.9,0,2.62,0,0,0,0,0,0-.73.73-1.9.73-2.62,0-.72-.72-.73-1.9,0-2.62.17-.17.38-.31.61-.41v-6.65c-.23-.09-.43-.23-.61-.41-.55-.55-.68-1.35-.4-2.03l-2.75-2.75L.46,10.98c-.61.61-.61,1.6,0,2.21h0s10.57,10.57,10.57,10.57c.61.61,1.6.61,2.21,0l10.52-10.52c.61-.61.61-1.6,0-2.21"/>
      </g>
    </g>
  </g>
</svg>