<?xml version="1.0" encoding="UTF-8"?>
<svg xmlns="http://www.w3.org/2000/svg" viewBox="0 0 32.53 24.23">
  <defs>
    <style>
      .cls-1 {
        fill: #9f9f9f;
        mix-blend-mode: multiply;
      }

      .cls-2 {
        isolation: isolate;
      }
    </style>
  </defs>
  <g class="cls-2">
    <g id="Layer_1" data-name="Layer 1">
      <path class="cls-1" d="m27.83,13.92c-1.13,0-2.11.28-2.93.68-.3-.6-.61-1.12-.66-1.52-.06-.45-.13-.73-.06-1.28.07-.54.39-1.31.39-1.38,0-.06-.07-.33-.72-.34s-1.21.13-1.28.3-.19.56-.27.97c-.11.59-1.3,2.7-1.98,3.8-.22-.43-.41-.81-.45-1.11-.06-.45-.13-.73-.06-1.28.07-.54.39-1.31.39-1.38,0-.06-.07-.33-.72-.34-.65,0-1.21.13-1.28.3s-.13.57-.27.97c-.13.39-1.71,3.9-2.12,4.82-.21.47-.39.84-.52,1.09-.13.25,0,.02-.02.04-.11.21-.18.33-.18.33h0c-.09.16-.18.32-.23.32-.03,0-.09-.42.01-1,.23-1.22.8-3.12.8-3.19,0-.03.11-.37-.37-.54-.46-.17-.63.11-.66.11s-.07.1-.07.1c0,0,.51-2.14-.98-2.14-.93,0-2.22,1.02-2.86,1.95-.4.22-1.26.69-2.17,1.19-.35.19-.71.39-1.05.57l-.07-.08c-1.81-1.93-5.15-3.29-5.01-5.88.05-.94.38-3.42,6.42-6.43,4.94-2.46,8.9-1.79,9.59-.28.98,2.15-2.12,6.14-7.26,6.71-1.96.22-2.99-.54-3.25-.82-.27-.3-.31-.31-.41-.25-.16.09-.06.35,0,.51.15.4.78,1.11,1.86,1.46.94.31,3.24.48,6.02-.59,3.11-1.21,5.54-4.55,4.83-7.35C19.52.12,14.8-.82,10.33.77c-2.66.95-5.54,2.43-7.61,4.36C.26,7.43-.13,9.44.03,10.27c.57,2.97,4.67,4.91,6.32,6.35-.08.04-.16.09-.23.13-.82.4-3.95,2.04-4.73,3.77-.88,1.96.14,3.37.82,3.56,2.11.59,4.27-.47,5.44-2.2,1.16-1.74,1.02-3.99.49-5.02l-.02-.04.64-.38c.42-.25.83-.47,1.19-.67-.2.55-.35,1.2-.42,2.15-.09,1.11.37,2.55.97,3.12.27.25.58.25.78.25.69,0,1.01-.57,1.36-1.26.43-.84.81-1.81.81-1.81,0,0-.47,2.63.82,2.63.47,0,.95-.61,1.16-.93h0s.01-.01.04-.06c.03-.04.05-.08.08-.12h0c.19-.34.61-1.09,1.24-2.34.81-1.6,1.6-3.61,1.6-3.61,0,0,.08.49.31,1.3.14.48.44,1,.68,1.52-.19.27-.3.42-.3.42h0c-.15.21-.32.42-.5.64-.64.77-1.41,1.65-1.52,1.9-.12.3-.09.52.14.69.17.13.47.15.8.13.58-.04.99-.18,1.19-.27.32-.11.68-.28,1.02-.54.63-.47,1.02-1.13.98-2.01-.02-.49-.18-.97-.37-1.42.06-.08.11-.16.17-.25,1-1.46,1.77-3.06,1.77-3.06,0,0,.08.49.31,1.3.12.41.36.86.57,1.3-.93.76-1.52,1.65-1.72,2.23-.37,1.07-.08,1.56.47,1.67.25.05.6-.06.87-.18.33-.11.73-.29,1.09-.56.63-.47,1.24-1.12,1.21-2-.02-.4-.13-.8-.27-1.18.8-.33,1.83-.52,3.13-.36,2.81.33,3.37,2.08,3.26,2.82-.11.73-.69,1.14-.89,1.26-.2.12-.26.16-.24.25.03.13.11.13.28.1.23-.04,1.48-.6,1.53-1.95.08-1.74-1.57-3.63-4.5-3.61h0Zm-21.67,7.31c-.93,1.02-2.24,1.4-2.79,1.07-.6-.35-.37-1.84.78-2.92.69-.66,1.6-1.26,2.19-1.64.13-.08.33-.2.57-.35.04-.03.06-.04.06-.04.04-.03.09-.06.15-.09.42,1.54.02,2.89-.96,3.96h0Zm6.79-4.62c-.32.79-1,2.82-1.41,2.7-.35-.09-.57-1.63-.07-3.14.25-.76.79-1.67,1.11-2.03.51-.57,1.07-.76,1.21-.52.16.3-.63,2.5-.83,2.99Zm5.6,2.68c-.14.07-.27.12-.32.08-.04-.03.06-.12.06-.12,0,0,.7-.75.98-1.1.16-.2.35-.44.55-.7v.08c0,.91-.87,1.52-1.26,1.76h0Zm4.32-.99c-.1-.08-.09-.31.25-1.04.13-.29.44-.78.96-1.24.06.19.1.37.09.54,0,1.14-.81,1.56-1.31,1.74Z"/>
    </g>
  </g>
</svg>