<?xml version="1.0" encoding="UTF-8"?>
<svg xmlns="http://www.w3.org/2000/svg" viewBox="0 0 27.16 24.27">
  <defs>
    <style>
      .cls-1 {
        fill: #9f9f9f;
      }

      .cls-2 {
        isolation: isolate;
      }

      .cls-3 {
        mix-blend-mode: multiply;
      }
    </style>
  </defs>
  <g class="cls-2">
    <g id="Layer_1" data-name="Layer 1">
      <g class="cls-3">
        <path class="cls-1" d="m27.16,12.14c0-1.81-2.26-3.52-5.73-4.58.8-3.53.44-6.34-1.12-7.24-.36-.21-.78-.31-1.24-.31v1.24c.26,0,.46.05.63.14.76.43,1.08,2.08.83,4.2-.06.52-.16,1.07-.28,1.63-1.09-.27-2.28-.47-3.53-.61-.75-1.03-1.53-1.96-2.31-2.78,1.81-1.68,3.51-2.61,4.67-2.61V0c-1.53,0-3.53,1.09-5.55,2.98C11.5,1.1,9.5.02,7.97.02v1.24c1.15,0,2.86.92,4.67,2.59-.78.82-1.56,1.74-2.29,2.77-1.26.13-2.44.34-3.53.61-.13-.56-.22-1.09-.29-1.61-.26-2.12.06-3.77.81-4.21.17-.1.38-.14.64-.14V.03c-.47,0-.89.1-1.26.31-1.56.9-1.91,3.7-1.11,7.23C2.16,8.63-.09,10.34-.09,12.14s2.26,3.52,5.73,4.58c-.8,3.53-.44,6.34,1.12,7.24.36.21.78.31,1.25.31,1.53,0,3.53-1.09,5.55-2.98,2.02,1.88,4.02,2.96,5.55,2.96.47,0,.89-.1,1.26-.31,1.56-.9,1.91-3.7,1.11-7.23,3.44-1.06,5.69-2.77,5.69-4.57h0Zm-7.23-3.7c-.21.72-.46,1.46-.75,2.19-.23-.44-.47-.89-.73-1.33-.26-.44-.53-.88-.8-1.3.79.12,1.55.26,2.28.44h0Zm-2.54,5.92c-.43.75-.88,1.46-1.34,2.12-.83.07-1.67.11-2.51.11s-1.68-.04-2.5-.11c-.46-.66-.91-1.37-1.34-2.11-.42-.73-.81-1.47-1.16-2.21.34-.74.73-1.49,1.15-2.22.43-.75.88-1.46,1.34-2.12.83-.07,1.67-.11,2.51-.11s1.68.04,2.5.11c.46.66.91,1.37,1.34,2.11.42.73.81,1.47,1.16,2.21-.35.74-.73,1.49-1.15,2.22h0Zm1.79-.72c.3.74.56,1.49.77,2.21-.73.18-1.49.33-2.29.44.27-.43.54-.87.8-1.32.26-.44.49-.89.72-1.34h0Zm-5.63,5.93c-.52-.53-1.03-1.13-1.54-1.78.5.02,1.01.04,1.53.04s1.04-.01,1.54-.04c-.5.65-1.02,1.24-1.53,1.78Zm-4.13-3.27c-.79-.12-1.55-.26-2.28-.44.21-.72.46-1.46.75-2.19.23.44.47.89.73,1.33s.53.88.8,1.3Zm4.1-11.56c.52.53,1.03,1.13,1.54,1.78-.5-.02-1.01-.04-1.53-.04s-1.04.01-1.54.04c.5-.65,1.02-1.24,1.53-1.78Zm-4.11,3.27c-.27.43-.54.87-.8,1.32-.26.44-.49.89-.72,1.33-.3-.74-.56-1.49-.77-2.21.73-.17,1.49-.32,2.29-.44h0Zm-5.03,6.95c-1.97-.84-3.24-1.94-3.24-2.81s1.27-1.98,3.24-2.81c.48-.21,1-.39,1.54-.56.32,1.09.73,2.22,1.25,3.38-.51,1.16-.92,2.28-1.23,3.37-.55-.17-1.07-.36-1.56-.57h0Zm2.99,7.94c-.76-.43-1.08-2.08-.83-4.2.06-.52.16-1.07.28-1.63,1.09.27,2.28.47,3.53.61.75,1.03,1.53,1.96,2.31,2.78-1.81,1.68-3.51,2.61-4.67,2.61-.25,0-.46-.06-.63-.15h0Zm13.18-4.23c.26,2.12-.06,3.77-.81,4.21-.17.1-.38.14-.64.14-1.15,0-2.86-.92-4.67-2.59.78-.82,1.56-1.74,2.29-2.77,1.26-.13,2.44-.34,3.53-.61.13.56.23,1.1.29,1.62Zm2.14-3.7c-.48.21-1,.39-1.54.56-.32-1.09-.73-2.22-1.25-3.38.51-1.16.92-2.28,1.23-3.37.55.17,1.07.36,1.56.57,1.97.84,3.24,1.94,3.24,2.81,0,.87-1.28,1.98-3.24,2.81h0Z"/>
        <circle class="cls-1" cx="13.53" cy="12.14" r="2.54"/>
      </g>
    </g>
  </g>
</svg>