<?xml version="1.0" encoding="UTF-8"?>
<svg xmlns="http://www.w3.org/2000/svg" viewBox="0 0 24.12 24.12">
  <defs>
    <style>
      .cls-1 {
        fill: #9f9f9f;
      }

      .cls-2 {
        isolation: isolate;
      }

      .cls-3 {
        fill: #1a1a1a;
      }

      .cls-4 {
        mix-blend-mode: multiply;
      }
    </style>
  </defs>
  <g class="cls-2">
    <g id="Layer_1" data-name="Layer 1">
      <g class="cls-4">
        <path class="cls-1" d="m0,12.06V0h24.12v24.12H0v-12.06Z"/>
        <path class="cls-3" d="m5.29,12.1v.98h3.14v8.92h2.23v-8.92h3.14v-.96c0-.54,0-.98-.02-.99,0-.02-1.91-.02-4.23-.02l-4.22.02v.99h-.02s0,0,0,0Zm14.09-1.01c.62.14,1.09.42,1.51.86.22.24.55.66.58.77,0,.04-1.04.74-1.68,1.13-.02.02-.12-.08-.22-.24-.31-.45-.63-.64-1.13-.68-.72-.05-1.21.33-1.21.96,0,.19.04.3.11.46.16.33.46.53,1.4.94,1.72.74,2.47,1.23,2.92,1.93.51.78.63,2.01.28,2.94-.39,1.01-1.33,1.69-2.67,1.91-.42.07-1.39.06-1.84-.02-.96-.18-1.89-.66-2.45-1.28-.22-.24-.65-.89-.63-.93l.23-.14.9-.52.68-.4.16.21c.2.31.65.74.9.88.78.4,1.83.35,2.35-.12.22-.21.32-.42.32-.72,0-.28-.04-.4-.18-.62-.19-.27-.58-.48-1.66-.96-1.25-.53-1.78-.87-2.27-1.39-.28-.31-.54-.8-.66-1.21-.09-.35-.12-1.21-.04-1.55.26-1.21,1.17-2.05,2.47-2.29.42-.08,1.42-.05,1.83.06h-.01s0,.01,0,.01Z"/>
      </g>
    </g>
  </g>
</svg>