<?xml version="1.0" encoding="UTF-8"?>
<svg xmlns="http://www.w3.org/2000/svg" viewBox="0 0 24.16 24.16">
  <defs>
    <style>
      .cls-1 {
        fill: #9f9f9f;
      }

      .cls-2 {
        isolation: isolate;
      }

      .cls-3 {
        fill: #1a1a1a;
      }

      .cls-4 {
        mix-blend-mode: multiply;
      }
    </style>
  </defs>
  <g class="cls-2">
    <g id="Layer_1" data-name="Layer 1">
      <g class="cls-4">
        <rect class="cls-1" width="24.16" height="24.16"/>
        <path class="cls-3" d="m6.71,17.5V7.31h1.87v10.19h-1.87Zm7.26-1.25c.18,0,.35-.03.51-.06.15-.05.31-.12.45-.19.15-.08.27-.17.38-.26.11-.09.2-.18.28-.27v-3.51c-.21-.17-.45-.31-.72-.44-.26-.11-.54-.17-.84-.17-.19,0-.38.04-.59.11-.2.08-.39.21-.56.39-.17.19-.31.44-.42.77-.12.32-.17.74-.17,1.24,0,.74.14,1.32.43,1.74.29.42.71.63,1.26.63h0Zm-3.56-2.3c0-.65.09-1.22.27-1.73s.42-.93.73-1.27c.31-.34.66-.59,1.06-.77.4-.17.81-.26,1.23-.26.2,0,.38.02.57.05.17.04.35.09.5.15.16.06.31.13.44.2.14.08.27.16.38.24h.01c0-.1,0-.24-.01-.43v-3.67h1.81v8.83c0,.49,0,.91.01,1.26.01.35.02.67.03.93h-1.64l-.07-.79h-.03c-.11.13-.24.25-.38.38-.15.12-.32.22-.5.31-.18.09-.38.16-.59.21-.22.04-.45.07-.7.07-.4,0-.79-.06-1.16-.21-.37-.14-.7-.36-.99-.66-.29-.29-.52-.68-.7-1.16-.17-.48-.26-1.04-.26-1.7h0Z"/>
      </g>
    </g>
  </g>
</svg>