<?xml version="1.0" encoding="UTF-8"?>
<svg id="Layer_1" data-name="Layer 1" xmlns="http://www.w3.org/2000/svg" viewBox="0 0 27.13 23.53">
  <defs>
    <style>
      .cls-1 {
        fill: #fff;
      }

      .cls-2 {
        fill: #565656;
      }

      .cls-3 {
        fill: #b4b4b4;
      }

      .cls-4 {
        fill: #212121;
      }

      .cls-5 {
        fill: #bebebe;
      }
    </style>
  </defs>
  <path class="cls-1" d="m27.13.12c0,7.72,0,15.45,0,23.17,0,.2-.04.24-.24.24-8.88,0-17.76,0-26.64,0-.2,0-.24-.04-.24-.24C.01,15.61.01,7.93.02.25c0-.08-.06-.18.05-.24.02.02.04.04.06.05.34.49.62,1.02.92,1.54,1.11,1.91,2.21,3.83,3.31,5.74,1.44,2.49,2.87,4.99,4.31,7.48,1.4,2.42,2.79,4.85,4.2,7.27.19.33.38.66.56.99.12.22.17.21.29,0,1.46-2.54,2.93-5.08,4.39-7.62,1.27-2.21,2.55-4.42,3.83-6.63,1.44-2.5,2.89-5,4.33-7.5.2-.34.4-.69.6-1.03.05-.09.08-.25.26-.19Z"/>
  <path class="cls-3" d="m27.13.12c-.26.13-.31.42-.44.64-.72,1.21-1.42,2.43-2.13,3.65-.49.85-.97,1.71-1.47,2.57-.83,1.44-1.67,2.87-2.5,4.31-.57.98-1.12,1.97-1.69,2.95-.63,1.09-1.27,2.18-1.9,3.28-.57.98-1.12,1.97-1.69,2.95-.53.93-1.07,1.86-1.61,2.79-.09.16-.17.15-.25,0-.3-.52-.6-1.03-.9-1.55-.51-.87-1.02-1.75-1.52-2.63-.42-.73-.83-1.46-1.25-2.18-.64-1.11-1.29-2.21-1.93-3.32-.49-.85-.97-1.71-1.47-2.57-.64-1.1-1.28-2.2-1.92-3.3-.57-.98-1.12-1.97-1.69-2.95-.63-1.09-1.27-2.18-1.9-3.28C.61,1.01.34.54.08.07c.09-.05.19-.03.28-.03,1.67,0,3.35,0,5.02,0,.08,0,.15.01.2.08.58.97,1.14,1.96,1.71,2.95,1.14,1.97,2.28,3.95,3.42,5.92.9,1.56,1.8,3.13,2.71,4.69.15.26.17.27.33,0,1.42-2.47,2.84-4.94,4.27-7.41,1.19-2.05,2.35-4.11,3.56-6.14.03-.04.07-.07.11-.11h.05c.09.05.19.03.28.03,1.61,0,3.22,0,4.82,0,.09,0,.19-.02.28.02v.05Z"/>
  <path class="cls-1" d="m10.48.01h6.18s.03.04.03.07c-.12.33-.32.62-.5.93-.77,1.33-1.54,2.66-2.3,4-.29.5-.34.51-.62.02-.93-1.59-1.84-3.18-2.76-4.77-.03-.05-.06-.11-.06-.17,0-.03.01-.05.03-.07Z"/>
  <path class="cls-5" d="m5.46.06c-1.8,0-3.59,0-5.39,0,0-.02,0-.04,0-.05h5.39s.02.02.02.03c0,.01,0,.02-.01.02Z"/>
  <path class="cls-5" d="m27.13.07c-1.7,0-3.39,0-5.09,0-.1,0-.21.04-.3-.05,1.73,0,3.45,0,5.18,0,.07,0,.16-.06.21.05Z"/>
  <path class="cls-4" d="m5.46.06s0-.03,0-.05c1.67,0,3.35,0,5.02,0,0,.02,0,.04,0,.05-.13.11-.28.08-.43.08-1.31,0-2.62,0-3.93,0-.18,0-.37,0-.55.03-.03-.04-.07-.08-.1-.11Z"/>
  <path class="cls-4" d="m16.67.07s0-.04,0-.05c1.67,0,3.35,0,5.02,0,0,.04,0,.09-.05.11-.1.02-.21.03-.31.03-1.41,0-2.81,0-4.22,0-.15,0-.3.03-.43-.08Z"/>
  <path class="cls-2" d="m16.67.07c1.56,0,3.13,0,4.69,0,.09,0,.2-.04.27.06-.72,1.23-1.43,2.46-2.14,3.7-.63,1.1-1.26,2.21-1.89,3.3-.69,1.19-1.38,2.37-2.07,3.56-.61,1.06-1.22,2.12-1.83,3.19-.11.19-.18.12-.25,0-.48-.83-.95-1.66-1.43-2.49-.57-.99-1.14-1.97-1.71-2.96-.49-.84-.97-1.69-1.46-2.53-.57-.99-1.14-1.97-1.71-2.96-.53-.92-1.06-1.84-1.58-2.76.04-.17.18-.11.28-.11,1.54,0,3.09,0,4.63,0,.74,1.28,1.48,2.56,2.23,3.84.26.44.52.89.77,1.33.08.15.13.16.22,0,.44-.78.9-1.56,1.35-2.33.55-.95,1.1-1.9,1.65-2.84Z"/>
</svg>