<?xml version="1.0" encoding="UTF-8"?>
<svg xmlns="http://www.w3.org/2000/svg" viewBox="0 0 24.16 24.16">
  <defs>
    <style>
      .cls-1 {
        fill: #9f9f9f;
      }

      .cls-2 {
        isolation: isolate;
      }

      .cls-3 {
        fill: #1a1a1a;
      }

      .cls-4 {
        mix-blend-mode: multiply;
      }
    </style>
  </defs>
  <g class="cls-2">
    <g id="Layer_1" data-name="Layer 1">
      <g class="cls-4">
        <rect class="cls-1" width="24.16" height="24.16"/>
        <path class="cls-3" d="m7.81,13.13c-.17,0-.33,0-.5,0-.16,0-.31-.01-.45-.03v3.99h-1.87V6.9h2.94c.49,0,.93.02,1.29.06.37.04.7.1.99.19.7.21,1.23.55,1.61,1.02.38.46.56,1.06.56,1.78,0,.49-.1.93-.3,1.32-.2.4-.51.73-.9,1s-.86.49-1.43.63c-.56.15-1.21.22-1.94.22h0Zm-.95-1.61c.11.01.24.03.4.04.17,0,.34,0,.52,0,.5,0,.92-.04,1.26-.12.34-.08.61-.19.82-.34.21-.14.36-.32.45-.52.1-.2.14-.43.14-.67,0-.3-.07-.56-.2-.78-.14-.22-.38-.38-.72-.51-.18-.06-.4-.11-.66-.13-.26-.03-.58-.04-.96-.04h-1.05v3.08Zm10.54,3.41c0-.15-.04-.29-.13-.39-.09-.1-.2-.18-.35-.25-.15-.07-.32-.13-.51-.19-.19-.04-.39-.1-.6-.15-.26-.07-.52-.15-.76-.25-.24-.1-.46-.22-.65-.37-.19-.15-.33-.35-.44-.58-.11-.23-.17-.51-.17-.84,0-.42.08-.77.22-1.07.15-.3.35-.55.6-.75.25-.2.54-.35.88-.44.33-.1.68-.15,1.06-.15.45,0,.88.04,1.27.11.4.08.75.17,1.07.29v1.47c-.17-.06-.35-.11-.53-.15-.19-.04-.37-.09-.56-.12-.19-.03-.38-.06-.57-.08-.19-.03-.36-.03-.53-.03-.22,0-.4.02-.54.06-.15.04-.26.1-.36.17-.09.06-.15.14-.2.23-.04.09-.06.19-.06.28,0,.17.04.3.13.41.09.11.22.19.37.26.16.07.33.12.49.17.17.04.35.08.51.13.26.06.51.13.76.22.25.09.48.2.68.36.2.15.37.35.5.6.13.24.19.56.19.94,0,.42-.08.78-.24,1.09-.15.31-.38.57-.65.77-.29.2-.62.36-1.02.45-.39.1-.83.15-1.3.15s-.88-.04-1.26-.11c-.37-.08-.68-.17-.93-.28v-1.45c.4.15.76.24,1.1.29.33.05.65.08.94.08.22,0,.43-.01.62-.04.19-.04.36-.08.5-.16.14-.07.25-.16.33-.27.08-.11.12-.24.12-.39h0Z"/>
      </g>
    </g>
  </g>
</svg>