<?xml version="1.0" encoding="UTF-8"?>
<svg xmlns="http://www.w3.org/2000/svg" viewBox="0 0 48.17 8.46">
  <defs>
    <style>
      .cls-1 {
        fill: #9f9f9f;
        mix-blend-mode: multiply;
      }

      .cls-2 {
        isolation: isolate;
      }
    </style>
  </defs>
  <g class="cls-2">
    <g id="Layer_1" data-name="Layer 1">
      <path class="cls-1" d="m14.54-.06c-.95,0-1.4.1-1.9.29l-.09.03.54.96.06-.02c.37-.15.77-.2,1.53-.2h.8c1.18,0,1.85.59,1.85,1.62v3.17c0,1.03-.67,1.62-1.85,1.62h-1.31c-1.2,0-1.79-.48-1.79-1.49s.59-1.48,1.79-1.48h1.82v-1.06h-1.88c-1.79,0-2.81.93-2.81,2.55s1.08,2.54,2.81,2.54h1.41c1.97,0,2.88-1.32,2.88-2.54v-3.44c0-1.22-.9-2.53-2.88-2.53h-1Zm7.96,0c-1.97,0-2.88,1.31-2.88,2.53v3.44c0,1.22.9,2.54,2.88,2.54h1.22c1.01,0,1.67-.15,2.19-.49l.06-.05-.61-.89-.06.04c-.39.24-.89.33-1.72.33h-1.04c-1.19,0-1.85-.57-1.85-1.62v-3.17c0-1.05.66-1.62,1.85-1.62h1.04c.82,0,1.32.1,1.72.34l.06.04.61-.9-.06-.04c-.53-.34-1.19-.49-2.19-.49h-1.22Zm7.05,0c-1.98,0-2.89,1.31-2.89,2.53v3.44c0,1.22.9,2.54,2.88,2.54h1.41c1.98,0,2.87-1.32,2.87-2.54v-3.44c0-1.22-.9-2.53-2.89-2.53h-1.39Zm8.35.02c-1.7,0-2.81.97-2.81,2.46v6h1.08V2.56c0-1.04.58-1.54,1.78-1.54,1.14,0,1.76.52,1.76,1.45v5.96h1.08V2.46c0-.93.62-1.45,1.76-1.45,1.2,0,1.78.51,1.78,1.54v5.86h1.07V2.42c0-1.49-1.1-2.46-2.81-2.46-1.14,0-1.82.28-2.35.96-.52-.68-1.21-.96-2.35-.96h0ZM0,0v6c0,1.49,1.1,2.46,2.81,2.46,1.14,0,1.82-.28,2.35-.96.52.68,1.21.96,2.35.96,1.7,0,2.81-.97,2.81-2.46V0h-1.07v5.86c0,1.04-.59,1.54-1.78,1.54-1.14,0-1.76-.51-1.76-1.44V0h-1.07v5.96c0,.93-.62,1.44-1.76,1.44-1.2,0-1.78-.5-1.78-1.54V0H0Zm47.35,0c-.23,0-.42.08-.58.24-.16.16-.24.35-.24.58s.08.43.24.59c.16.16.35.24.58.24s.42-.08.58-.24c.16-.16.24-.36.24-.59s-.08-.42-.24-.58c-.16-.16-.35-.24-.58-.24Zm0,.11c.2,0,.36.07.5.21.14.14.21.31.21.51s-.07.36-.21.5-.3.21-.5.21-.36-.07-.5-.21c-.14-.14-.21-.3-.21-.5s.07-.37.21-.51c.14-.14.3-.21.5-.21Zm-.33.26v.9h.15v-.35h.13c.08,0,.14.01.18.03.06.03.08.1.08.2v.1s0,0,0,0c0,0,0,0,0,0h.15,0s0-.03,0-.06c0-.02,0-.04,0-.06v-.07s-.02-.09-.05-.14c-.03-.05-.08-.08-.15-.09.06,0,.1-.02.13-.04.06-.04.09-.1.09-.18,0-.11-.05-.19-.14-.23-.05-.02-.13-.03-.24-.03h-.31Zm.15.1h.14c.09,0,.15.02.19.04.04.02.06.06.06.13,0,.07-.03.12-.1.14-.03.01-.09.02-.15.02h-.14v-.33h0Zm-17.59.52h1.31c1.18,0,1.85.59,1.85,1.62v3.17c0,1.03-.67,1.62-1.85,1.62h-1.31c-1.19,0-1.85-.57-1.85-1.62v-3.17c0-1.03.67-1.62,1.85-1.62Z"/>
    </g>
  </g>
</svg>