<?xml version="1.0" encoding="UTF-8"?>
<svg xmlns="http://www.w3.org/2000/svg" viewBox="0 0 66.93 16.9">
  <defs>
    <style>
      .cls-1 {
        fill: #9f9f9f;
        mix-blend-mode: multiply;
      }

      .cls-2 {
        isolation: isolate;
      }
    </style>
  </defs>
  <g class="cls-2">
    <g id="Layer_1" data-name="Layer 1">
      <path class="cls-1" d="m5.01,1.74C4.35.96,3.79.18,3.67,0c-.01-.01-.03-.01-.04,0-.11.17-.68.95-1.34,1.73-5.62,7.17.88,12.01.88,12.01l.06.03c.04.75.17,1.82.17,1.82h.49s.12-1.07.17-1.82l.06-.04s6.53-4.83.9-12Zm-1.36,11.9s-.29-.25-.37-.38h0s.36-7.82.36-7.82c0-.02.03-.02.03,0l.36,7.81h0c-.08.14-.38.39-.38.39Zm12.18-1.6l-2.71-6.63v-.02h-2.12v.45h.35c.1,0,.2.04.28.11.08.08.11.17.11.28l-.06,6.67c0,.21-.17.38-.38.38h-.35v.45h2.05v-.44h-.21c-.21-.02-.38-.19-.38-.39v-6.28l2.96,7.12c.04.1.15.17.25.17.11,0,.21-.07.25-.17l2.89-6.95.04,6.12c0,.21-.17.38-.38.39h-.22v.44h2.41v-.44h-.32c-.21,0-.38-.18-.38-.38l-.02-6.67c0-.21.17-.38.38-.39h.36v-.46h-2.05l-2.73,6.64Zm18.92,1.14c-.07-.07-.1-.16-.1-.27v-3.28c0-.62-.18-1.12-.55-1.46-.36-.35-.86-.52-1.48-.52-.87,0-1.56.36-2.04,1.05-.01.01-.02.02-.04.02s-.03-.01-.03-.03l-.22-.87h-.38l-.97.56v.3h.25c.11,0,.21.03.28.09s.1.16.1.28v3.86c0,.11-.03.2-.1.27s-.16.1-.27.1h-.25v.45h2.23v-.45h-.25c-.11,0-.2-.03-.27-.1s-.1-.16-.1-.27v-2.55c0-.32.08-.65.21-.97.14-.31.35-.57.62-.78.28-.2.6-.3.98-.3.42,0,.75.13.95.4s.3.61.3,1.04v3.17c0,.11-.03.2-.1.27s-.16.1-.27.1h-.25v.45h2.23v-.45h-.25c-.09.01-.18-.02-.25-.09Zm20.38-7.28c-.61-.32-1.31-.5-2.05-.5h-2.9v.45h.28c.11,0,.2.04.3.14.09.09.13.19.13.3v6.55c0,.11-.04.21-.13.3s-.19.14-.3.14h-.28v.45h2.9c.75,0,1.43-.17,2.05-.5.61-.32,1.12-.81,1.48-1.44s.55-1.37.55-2.22-.19-1.6-.55-2.22c-.37-.62-.86-1.12-1.48-1.45Zm.87,3.66c0,.78-.13,1.44-.41,1.96-.27.52-.64.93-1.08,1.18-.45.26-.95.38-1.47.38h-.59c-.11,0-.2-.04-.3-.14-.09-.09-.13-.19-.13-.3v-6.17c0-.11.04-.21.13-.3.09-.09.19-.14.3-.14h.59c.54,0,1.03.12,1.47.38s.81.65,1.08,1.18c.27.54.41,1.2.41,1.97Zm8.02.45c-.27-.31-.79-.57-1.39-.71.84-.42,1.27-1.02,1.27-1.77,0-.41-.11-.78-.33-1.1-.22-.31-.54-.57-.93-.75-.4-.18-.86-.27-1.38-.27h-3.29v.45h.26c.11,0,.21.04.3.14.09.09.14.19.14.3v6.55c0,.11-.04.21-.14.3-.09.09-.19.14-.3.14h-.29v.45h3.57c.55,0,1.05-.09,1.51-.28.46-.18.83-.45,1.08-.8.27-.36.4-.78.4-1.28.02-.54-.14-.99-.47-1.36Zm-4.08,2.94c-.09-.09-.14-.19-.14-.3v-2.93h1.7c.6,0,1.06.16,1.37.46s.48.7.48,1.18c0,.29-.08.58-.21.84-.14.27-.35.48-.62.65s-.61.25-1.01.25h-1.25c-.11,0-.2-.03-.3-.13Zm-.13-3.86v-2.61c0-.11.04-.21.14-.3.09-.09.19-.14.3-.14h.8c.58,0,1,.14,1.27.42.27.29.4.65.4,1.1s-.12.84-.38,1.12c-.25.28-.62.41-1.13.41h-1.42Zm-33.55-1.05c-.47-.26-.98-.39-1.55-.39s-1.09.12-1.55.39c-.47.26-.84.62-1.1,1.09s-.41,1.02-.41,1.62.13,1.15.41,1.62.64.84,1.1,1.09c.47.26.98.39,1.55.39s1.09-.12,1.55-.39c.47-.26.84-.62,1.1-1.09.27-.47.41-1.02.41-1.62s-.13-1.15-.41-1.62c-.27-.47-.64-.84-1.1-1.09Zm.45,2.71c0,.75-.18,1.35-.55,1.78-.36.44-.85.66-1.45.66s-1.09-.22-1.45-.66c-.37-.44-.55-1.04-.55-1.78s.18-1.35.55-1.78c.36-.44.85-.66,1.45-.66s1.09.22,1.45.66c.37.44.55,1.04.55,1.78Zm20.99-2.71c-.47-.26-.98-.39-1.55-.39s-1.09.12-1.55.39c-.47.26-.84.62-1.1,1.09-.27.47-.41,1.02-.41,1.62s.13,1.15.41,1.62c.27.47.64.84,1.1,1.09.47.26.98.39,1.55.39s1.09-.12,1.55-.39c.47-.26.84-.62,1.1-1.09.27-.47.41-1.02.41-1.62s-.13-1.15-.41-1.62c-.27-.47-.65-.84-1.1-1.09Zm.45,2.71c0,.75-.18,1.35-.55,1.78-.36.44-.85.66-1.45.66s-1.09-.22-1.45-.66c-.37-.44-.55-1.04-.55-1.78s.18-1.35.55-1.78c.36-.44.85-.66,1.45-.66s1.09.22,1.45.66.55,1.04.55,1.78Zm-9.09-3.1c-.49,0-.94.1-1.34.31s-.71.49-.95.85c-.22.36-.35.75-.35,1.17,0,.38.09.73.26,1.04.17.3.4.55.69.76l-.87,1.18c-.11.14-.12.35-.04.5.09.17.25.26.42.26h.25c-.25.17-.44.36-.57.59-.16.26-.23.54-.23.81,0,.52.23.96.69,1.28.45.32,1.08.49,1.89.49.56,0,1.08-.09,1.56-.27.49-.18.88-.44,1.17-.78.3-.35.45-.76.45-1.23,0-.5-.18-.85-.61-1.19-.37-.29-.94-.44-1.65-.44h-2.43s-.01-.01-.01-.01c0,0-.01-.01,0-.02l.64-.85c.17.08.32.12.47.16.14.03.31.04.49.04.51,0,.97-.1,1.37-.31.4-.21.73-.49.96-.85s.35-.75.35-1.17c0-.45-.22-1.27-.81-1.7,0-.01.01-.01.01-.01l1.31.14v-.6h-2.1c-.3-.1-.64-.17-.99-.17Zm.73,3.81c-.23.12-.48.19-.74.19-.41,0-.77-.14-1.07-.44s-.46-.7-.46-1.24.16-.96.46-1.24c.3-.29.67-.44,1.07-.44.26,0,.5.06.74.19.23.12.42.31.57.56.14.25.22.56.22.93s-.08.68-.22.93c-.13.25-.33.44-.57.56Zm-1.65,2.24h1.65c.46,0,.75.09.95.29.19.19.29.46.29.76,0,.45-.18.81-.54,1.08-.36.28-.83.41-1.42.41-.51,0-.94-.11-1.25-.33-.31-.22-.47-.56-.47-.98,0-.27.08-.51.22-.74.16-.22.33-.38.56-.49Zm27.63-.08c-.12-.07-.21-.16-.28-.28s-.1-.25-.1-.38.03-.27.1-.38c.07-.12.17-.21.28-.28.12-.07.26-.1.4-.1.16,0,.28.03.4.1s.21.16.28.28.1.25.1.38-.03.27-.1.38c-.07.12-.17.21-.28.28-.12.07-.26.1-.4.1s-.28-.03-.4-.1Zm.74-.09c.1-.06.18-.13.23-.23s.09-.21.09-.35c0-.12-.03-.23-.09-.35-.06-.1-.13-.18-.23-.23-.1-.06-.21-.09-.33-.09s-.23.03-.33.09-.18.13-.23.23-.09.21-.09.35c0,.12.03.23.09.35.06.1.13.18.23.23.1.06.21.09.33.09.13,0,.25-.03.33-.09Zm-.66-.21v-.06h.01s.03-.01.03-.01c.01,0,.02-.01.03-.01.01-.01.01-.02.01-.03v-.56s-.01-.02-.01-.03c-.01-.01-.02-.01-.03-.01h-.04v-.04h.01s.31-.01.31-.01c.09,0,.16.02.21.06.06.04.08.1.08.17,0,.06-.02.11-.06.14-.04.04-.09.07-.16.07l.07.02.13.22s.02.02.04.02h.04v.07h-.01s-.19.01-.19.01h-.01s-.19-.33-.19-.33h-.04v.21s.01.02.01.03c.01.01.02.01.03.01h.04v.07h-.01s-.32.01-.32.01h0Zm.31-.4s.09-.01.11-.04c.02-.02.04-.07.04-.11s-.01-.09-.03-.11c-.02-.03-.06-.04-.1-.04h-.02s-.02.01-.03.01c-.01.01-.01.02-.01.03v.27h.04Z"/>
    </g>
  </g>
</svg>