<?xml version="1.0" encoding="UTF-8"?>
<svg xmlns="http://www.w3.org/2000/svg" xmlns:xlink="http://www.w3.org/1999/xlink" viewBox="0 0 39.47 24.17">
  <defs>
    <style>
      .cls-1 {
        fill: url(#linear-gradient-4);
      }

      .cls-1, .cls-2, .cls-3, .cls-4, .cls-5 {
        fill-rule: evenodd;
      }

      .cls-6 {
        fill: url(#linear-gradient-2);
      }

      .cls-7 {
        fill: #fff;
      }

      .cls-8 {
        fill: #9f9f9f;
      }

      .cls-9 {
        isolation: isolate;
      }

      .cls-10 {
        fill: #909090;
      }

      .cls-2 {
        fill: url(#linear-gradient-6);
      }

      .cls-3 {
        fill: url(#linear-gradient-5);
      }

      .cls-11 {
        fill: none;
      }

      .cls-12 {
        mask: url(#mask-1);
      }

      .cls-13 {
        mask: url(#mask);
      }

      .cls-14 {
        fill: url(#linear-gradient);
      }

      .cls-4 {
        fill: url(#linear-gradient-7);
      }

      .cls-15 {
        mix-blend-mode: multiply;
      }

      .cls-5 {
        fill: url(#linear-gradient-3);
      }
    </style>
    <linearGradient id="linear-gradient" x1="-546.08" y1="117.75" x2="-546.09" y2="117.74" gradientTransform="translate(290587.37 71397.13) scale(532.1 -606.29)" gradientUnits="userSpaceOnUse">
      <stop offset="0" stop-color="#696969"/>
      <stop offset=".33" stop-color="#707070"/>
      <stop offset=".64" stop-color="#838383"/>
      <stop offset=".93" stop-color="#9e9e9e"/>
      <stop offset="1" stop-color="#a4a4a4"/>
    </linearGradient>
    <mask id="mask" x="10.33" y="5.52" width="8.48" height="9.6" maskUnits="userSpaceOnUse">
      <g id="c">
        <path id="a-2" data-name="a" class="cls-7" d="m14.8,5.59c-.14-.08-.31-.08-.46,0l-3.76,2.17c-.14.08-.22.23-.22.39v4.35c0,.16.09.31.22.39l3.76,2.17c.14.08.31.08.46,0l3.76-2.17c.14-.08.22-.23.22-.39v-4.35c0-.16-.09-.31-.22-.39l-3.76-2.17Z"/>
      </g>
    </mask>
    <linearGradient id="linear-gradient-2" x1="-546.1" y1="117.74" x2="-546.08" y2="117.76" gradientTransform="translate(283814.85 71368.72) scale(519.69 -606.04)" gradientUnits="userSpaceOnUse">
      <stop offset=".14" stop-color="#696969"/>
      <stop offset=".4" stop-color="#929292"/>
      <stop offset=".71" stop-color="#afafaf"/>
      <stop offset=".91" stop-color="#b6b6b6"/>
    </linearGradient>
    <mask id="mask-1" x="10.33" y="4.79" width="8.59" height="10.45" maskUnits="userSpaceOnUse">
      <g id="c-2" data-name="c">
        <path id="a-3" data-name="a" class="cls-7" d="m14.8,5.59c-.14-.08-.31-.08-.46,0l-3.76,2.17c-.14.08-.22.23-.22.39v4.35c0,.16.09.31.22.39l3.76,2.17c.14.08.31.08.46,0l3.76-2.17c.14-.08.22-.23.22-.39v-4.35c0-.16-.09-.31-.22-.39l-3.76-2.17Z"/>
      </g>
    </mask>
    <linearGradient id="linear-gradient-3" x1="-621.37" y1="-103.36" x2="-619.82" y2="-103.36" gradientTransform="translate(2814.07 -170.29) scale(4.51 -1.69)" gradientUnits="userSpaceOnUse">
      <stop offset=".09" stop-color="#b6b6b6"/>
      <stop offset=".29" stop-color="#afafaf"/>
      <stop offset=".6" stop-color="#929292"/>
      <stop offset=".86" stop-color="#696969"/>
    </linearGradient>
    <linearGradient id="linear-gradient-4" x1="-546.12" y1="117.74" x2="-546.11" y2="117.74" gradientTransform="translate(283517.39 71425.41) scale(519.13 -606.53)" xlink:href="#linear-gradient-3"/>
    <linearGradient id="linear-gradient-5" x1="-920.26" y1="148.92" x2="-918.72" y2="148.92" gradientTransform="translate(1575.32 600.98) scale(1.69 -3.95)" xlink:href="#linear-gradient-3"/>
    <linearGradient id="linear-gradient-6" x1="-547.28" y1="118.94" x2="-547.25" y2="118.94" gradientTransform="translate(147004.06 19947.14) scale(268.59 -167.59)" xlink:href="#linear-gradient-3"/>
    <linearGradient id="linear-gradient-7" x1="-547.25" y1="118.99" x2="-547.27" y2="118.92" gradientTransform="translate(147004.06 19947.14) scale(268.59 -167.59)" xlink:href="#linear-gradient"/>
  </defs>
  <g class="cls-9">
    <g id="Layer_1" data-name="Layer 1">
      <g class="cls-15">
        <path class="cls-10" d="m19.52,24.17c-.13,0-.26-.04-.37-.1l-1.19-.7c-.18-.1-.09-.13-.04-.15.24-.08.29-.1.54-.24.03-.02.06,0,.09,0l.91.54s.08.02.11,0l3.56-2.06s.05-.05.05-.1v-4.11s-.02-.08-.05-.1l-3.56-2.05s-.08-.02-.11,0l-3.56,2.05s-.05.06-.05.1v4.11s.02.08.05.1l.97.56c.53.27.86-.04.86-.36v-4.06c0-.05.04-.11.11-.11h.46c.05,0,.11.04.11.11v4.06c0,.7-.38,1.12-1.05,1.12-.21,0-.37,0-.82-.22l-.94-.54c-.23-.13-.37-.38-.37-.65v-4.11c0-.27.14-.52.37-.65l3.56-2.06c.22-.12.53-.12.75,0l3.56,2.06c.23.13.37.38.37.65v4.11c0,.27-.14.52-.37.65l-3.56,2.06c-.12.05-.25.08-.37.08h0Zm1.1-2.83c-1.56,0-1.88-.71-1.88-1.32,0-.05.04-.11.11-.11h.46c.05,0,.1.04.1.09.07.47.28.7,1.22.7.75,0,1.07-.17,1.07-.57,0-.23-.09-.4-1.26-.52-.97-.1-1.58-.31-1.58-1.09,0-.72.61-1.15,1.62-1.15,1.14,0,1.7.39,1.78,1.25,0,.03,0,.05-.03.08-.02.02-.04.04-.07.04h-.46s-.09-.04-.1-.08c-.11-.49-.38-.65-1.12-.65-.82,0-.92.29-.92.5,0,.26.12.34,1.22.48,1.1.14,1.61.35,1.61,1.12,0,.79-.65,1.23-1.78,1.23Z"/>
        <path class="cls-8" d="m8.48,8.08c0-.16-.09-.31-.23-.39l-3.78-2.18c-.06-.04-.13-.05-.21-.06h-.04c-.07,0-.14.03-.21.06L.23,7.69c-.14.08-.23.23-.23.39v5.85c0,.08.05.16.12.2.07.04.16.04.22,0l2.25-1.28c.14-.08.23-.23.23-.39v-2.74c0-.16.09-.31.23-.39l.95-.55c.07-.04.15-.06.23-.06s.16.02.22.06l.95.55c.14.08.23.23.23.39v2.74c0,.16.09.31.23.39l2.25,1.28c.07.04.16.04.23,0,.07-.04.12-.12.12-.2v-5.85s0,0,0,0ZM26.66.03c-.07-.04-.16-.04-.22,0-.07.04-.12.12-.12.2v5.8c0,.05-.03.11-.08.14-.05.03-.11.03-.16,0l-.95-.54c-.14-.08-.31-.08-.46,0l-3.78,2.19c-.14.08-.23.23-.23.39v4.36c0,.16.09.31.23.39l3.78,2.19c.14.08.31.08.46,0l3.78-2.19c.14-.08.23-.23.23-.39V1.69c0-.17-.09-.32-.23-.4L26.66.03h0Zm-.35,11.1s-.02.08-.05.1l-1.29.75s-.08.02-.12,0l-1.29-.75s-.05-.06-.05-.1v-1.5s.02-.08.05-.1l1.29-.75s.08-.02.12,0l1.29.75s.05.06.05.1v1.5h0Zm12.94-1.53c.14-.08.22-.23.22-.39v-1.06c0-.16-.09-.31-.22-.39l-3.76-2.18c-.14-.08-.31-.08-.46,0l-3.78,2.19c-.14.08-.23.23-.23.39v4.36c0,.16.09.31.23.39l3.76,2.14c.14.08.31.08.45,0l2.28-1.27c.07-.04.12-.12.12-.2s-.04-.16-.12-.2l-3.8-2.19c-.07-.04-.12-.12-.12-.2v-1.37c0-.08.04-.16.12-.2l1.19-.68c.07-.04.16-.04.23,0l1.19.68c.07.04.12.12.12.2v1.07c0,.08.04.16.12.2.07.04.16.04.23,0l2.25-1.31h0Z"/>
        <path class="cls-10" d="m35.21,9.39s.06-.02.09,0l.72.42s.04.04.04.08v.84s-.02.06-.04.08l-.72.42s-.06.02-.09,0l-.72-.42s-.04-.04-.04-.08v-.84s.02-.06.04-.08l.72-.42Z"/>
        <g>
          <path id="a" class="cls-14" d="m14.8,5.59c-.14-.08-.31-.08-.46,0l-3.76,2.17c-.14.08-.22.23-.22.39v4.35c0,.16.09.31.22.39l3.76,2.17c.14.08.31.08.46,0l3.76-2.17c.14-.08.22-.23.22-.39v-4.35c0-.16-.09-.31-.22-.39l-3.76-2.17Z"/>
          <g class="cls-13">
            <g>
              <path class="cls-11" d="m14.34,5.59l-3.77,2.17c-.14.08-.24.23-.24.39v4.35c0,.11.04.21.12.29l4.23-7.24c-.11-.02-.23,0-.34.05h0Zm.37,9.51s.07-.03.11-.04l3.77-2.17c.14-.08.23-.23.23-.39v-4.35c0-.12-.05-.23-.13-.31l-3.97,7.26h0Z"/>
              <path class="cls-6" d="m18.57,7.75l-3.77-2.17s-.08-.03-.12-.04l-4.23,7.24s.08.08.12.11l3.77,2.17c.11.06.23.08.35.04l3.97-7.26s-.06-.06-.1-.09h0Z"/>
            </g>
          </g>
          <g class="cls-12">
            <g>
              <path class="cls-11" d="m18.81,12.49v-4.35c0-.16-.1-.31-.24-.39l-3.77-2.17s-.09-.05-.14-.05l4.13,7.06s.03-.06.03-.1h0Zm-8.24-4.74c-.14.08-.24.23-.24.39v4.35c0,.16.11.31.24.39l3.77,2.17c.09.05.19.07.29.05l-4.04-7.36h-.03s0,0,0,0Z"/>
              <path class="cls-5" d="m14.22,4.79l-.05.03h.07l-.02-.03Z"/>
              <path class="cls-1" d="m18.58,12.88c.11-.06.19-.17.22-.29l-4.14-7.07c-.11-.02-.22,0-.32.05l-3.75,2.16,4.04,7.37c.06,0,.12-.03.17-.05l3.77-2.18h0Z"/>
              <path class="cls-3" d="m18.92,12.81l-.03-.04v.06l.03-.02h0Z"/>
              <path class="cls-2" d="m18.58,12.88l-3.77,2.17c-.05.03-.11.05-.17.05l.07.13,4.18-2.42v-.05l-.11-.18c-.02.12-.1.23-.21.29h0Z"/>
              <path class="cls-4" d="m18.58,12.88l-3.77,2.17c-.05.03-.11.05-.17.05l.07.13,4.18-2.42v-.05l-.11-.18c-.02.12-.1.23-.21.29h0Z"/>
            </g>
          </g>
        </g>
      </g>
    </g>
  </g>
</svg>