<?xml version="1.0" encoding="UTF-8"?>
<svg xmlns="http://www.w3.org/2000/svg" viewBox="0 0 24.11 24.11">
  <defs>
    <style>
      .cls-1 {
        fill: #9f9f9f;
      }

      .cls-2 {
        isolation: isolate;
      }

      .cls-3 {
        fill: #1a1a1a;
      }

      .cls-4 {
        mix-blend-mode: multiply;
      }
    </style>
  </defs>
  <g class="cls-2">
    <g id="Layer_1" data-name="Layer 1">
      <g class="cls-4">
        <path class="cls-1" d="m0,0h24.11v24.11H0V0Z"/>
        <path class="cls-3" d="m22.14,18.36c-.18-1.1-.89-2.02-3.02-2.89-.74-.34-1.56-.58-1.81-1.14-.09-.33-.1-.51-.04-.71.16-.64.92-.84,1.53-.66.39.13.76.43.98.91,1.04-.67,1.04-.67,1.76-1.13-.27-.41-.41-.6-.58-.78-.63-.7-1.48-1.06-2.84-1.03-.24.03-.47.06-.71.09-.68.17-1.33.53-1.71,1.01-1.14,1.3-.82,3.56.57,4.49,1.37,1.03,3.38,1.26,3.64,2.22.25,1.18-.86,1.56-1.97,1.42-.82-.17-1.27-.58-1.76-1.34q-.9.52-1.83,1.06c.22.48.45.7.82,1.12,1.75,1.77,6.12,1.68,6.9-1,.03-.09.24-.71.07-1.65Zm-9.03-7.28h-2.26c0,1.95,0,3.88,0,5.83,0,1.24.06,2.38-.14,2.73-.33.69-1.19.6-1.57.47-.4-.19-.6-.47-.83-.86-.06-.11-.11-.2-.13-.21-.61.37-1.22.75-1.83,1.12.3.63.75,1.17,1.33,1.52.86.52,2.01.67,3.22.4.79-.23,1.46-.7,1.82-1.43.51-.95.4-2.09.4-3.36.01-2.07,0-4.13,0-6.21h0Z"/>
      </g>
    </g>
  </g>
</svg>